<mxfile host="Electron" agent="Mozilla/5.0 (X11; Linux x86_64) AppleWebKit/537.36 (KHTML, like Gecko) draw.io/24.7.17 Chrome/128.0.6613.36 Electron/32.0.1 Safari/537.36" version="24.7.17">
  <diagram name="Page-1" id="li7qJpI0PoTpb8_AZxvk">
    <mxGraphModel dx="1977" dy="1272" grid="0" gridSize="10" guides="1" tooltips="1" connect="1" arrows="1" fold="1" page="1" pageScale="1" pageWidth="1169" pageHeight="827" math="0" shadow="0">
      <root>
        <mxCell id="0" />
        <mxCell id="1" parent="0" />
        <mxCell id="hQ67yEuSmeyZ496hQBUE-9" value="" style="group" parent="1" vertex="1" connectable="0">
          <mxGeometry x="661" y="584" width="130" height="130" as="geometry" />
        </mxCell>
        <mxCell id="hQ67yEuSmeyZ496hQBUE-8" value="" style="shape=image;verticalLabelPosition=bottom;labelBackgroundColor=default;verticalAlign=top;aspect=fixed;imageAspect=0;image=data:image/jpeg,/9j/4AAQSkZJRgABAQEAAAAAAAD/4QBCRXhpZgAATU0AKgAAAAgAAYdpAAQAAAABAAAAGgAAAAAAAkAAAAMAAAABAAAAAEABAAEAAAABAAAAAAAAAAAAAP/bAEMACwkJBwkJBwkJCQkLCQkJCQkJCwkLCwwLCwsMDRAMEQ4NDgwSGRIlGh0lHRkfHCkpFiU3NTYaKjI+LSkwGTshE//bAEMBBwgICwkLFQsLFSwdGR0sLCwsLCwsLCwsLCwsLCwsLCwsLCwsLCwsLCwsLCwsLCwsLCwsLCwsLCwsLCwsLCwsLP/AABEIAdoB2gMBIgACEQEDEQH/xAAfAAABBQEBAQEBAQAAAAAAAAAAAQIDBAUGBwgJCgv/xAC1EAACAQMDAgQDBQUEBAAAAX0BAgMABBEFEiExQQYTUWEHInEUMoGRoQgjQrHBFVLR8CQzYnKCCQoWFxgZGiUmJygpKjQ1Njc4OTpDREVGR0hJSlNUVVZXWFlaY2RlZmdoaWpzdHV2d3h5eoOEhYaHiImKkpOUlZaXmJmaoqOkpaanqKmqsrO0tba3uLm6wsPExcbHyMnK0tPU1dbX2Nna4eLj5OXm5+jp6vHy8/T19vf4+fr/xAAfAQADAQEBAQEBAQEBAAAAAAAAAQIDBAUGBwgJCgv/xAC1EQACAQIEBAMEBwUEBAABAncAAQIDEQQFITEGEkFRB2FxEyIygQgUQpGhscEJIzNS8BVictEKFiQ04SXxFxgZGiYnKCkqNTY3ODk6Q0RFRkdISUpTVFVWV1hZWmNkZWZnaGlqc3R1dnd4eXqCg4SFhoeIiYqSk5SVlpeYmZqio6Slpqeoqaqys7S1tre4ubrCw8TFxsfIycrS09TV1tfY2dri4+Tl5ufo6ery8/T19vf4+fr/2gAMAwEAAhEDEQA/APXKKKKACiiigAooooAKKKKACiiigAooooAKKKKACiiigAooooAKKKKACiiigAooooAKKKKACiiigAooooAKKKKACiiigAooooAKKKKACiiigAooooAKKKKACiiigAooooAKKKKACiiigAooooAKKKKACiiigAooooAKKKKACiiigAooooAKKKKACiiigAooooAKKKKACiiigAooooAKKKKACiiigAooooAKKKKACiiigAooooAKKKKACiiigAooooAKKKKACiiigAooooAKKKKACiiigAooooAKKKKACiiigAooooAKKKKACiiigAooooAKKKKACiiigAooooAKKKKACiiigAooooAKKKKACiiigAooooAKKKKACiiigAooooAKKKKACiiigAooooAKKKKACiiigAooooAKKKKACiiigAooooAKKKKACiiigAooooAKKKKACiiigAooooAKKKKACiiigAooooAKKKKACiiigAooooAKKKKACiiigAooooAKKKKACiiigAooooAKKKKACiiigAooooAKKKKACiiigAooooAKKKKACiiigAooooAKKKKACiiigAooooAKKKKACiiigAooooAKKKKACiiigAooooAKKKKACiiigAooooAKKKKACiiigAooooAKKKKACiiigAooooAKKKKACiiigAooooAKKKKACiiigAooooAKKKKACiiigAooooAKKKKACiiigAooooAKKKKACiiigAooooAKKKKACiiigAooooAKKKKACiiigAooooAKKKKACiiigAooooAKKKKACiiigAooooAKKKKACiiigAooooAKKKKACiiigAooooAKKKKACiiigAooooAKKKKACiiigAooooAKKKKACiiigAooooAKKKKACiiigAooooAKKKKACiiigAooooAKKKKACiiigAooooAKKKKACiiigAooooAKKKKACiiigAooooAKKKKACiiigAooooAKKKKACiiigAooooAKKKKACiiigAooooAKKKKACiiigAooooAKKKKACiiigAooooAKKKKACiiigAooooAKKKKACiiigAooooAKKKKACiiigAooooAKKKKACiiigAooooAKKKKACiiigAooooAKKKKACiiigAooooAKKKKACiiigAooooAKKKKACiiigAooooAKKAQQCCCCAQRyCD3FFABRRRQAUUUUAFFFFABRRRQAUUUUAFFFFABRRRQAUUUUAFFFFABRRRQAUUUUAFFFFABRRRQAUUUUAFFFFABRRRQAUUUUAFFFFABRRRQAUUUUAFFFFABRRRQAUUUUAFFFFABRRRQAUUUUAFFFFABRRRQAVXvmKWV+46pa3DD6iNjVio54/OguIf8AnrFJH/32pWgT2PMfCnjX+z4YNN1be9mgVLe5UFngXskijkqOxHI9x09MtrqzvIkntJ4p4XGVeF1dfpkV8+MjRs0bDDRsyMPRlO0ipra7vbKTzbO5nt5P70EjRk/Xaea54za0Z8/QzCVJcs1dH0HRXmGi/EK9gKQazGbmHgfaYVVbhB6ugwrfhg/WvR7O9stQt4rqzmSa3lGUdDx7gg8gjuDW0ZKWx7NHEU6y9xliiiiqOgKKKKACiiigAooooAKKKKACiiigAooooAKKKKACiiigAooooAKKKKACiiigAooooAKKKKACiiigAooooAKKKKACiiigAooooAKKKKACiiigAooooAKKKKACiiigAooooAKKKKACiiigAooooA8V8YacdO16/VVxDdkX0PGBiYkuB9G3Vz/8u+K9a8eaK+oadHf26FrnTd7uqjLPbNgyAY/u4DfgfWvJa5pKzPl8ZR9lVfZ6k1xbyW7IGwySxrNBIv3ZYm4DL+oPoQR2rY8NeIbnQb1WJZ7CdlW8h68dPNQf3l/UcfRujfZtSQ6FeSLGZnaXSLl+ltesMGJj18uXABHqAeprJurW6srie0uomiuIHKSo3YjuD6HqDU7aoyXNTtVh/XkfQUckcsccsTB45UWSN1OVZGG4MD706uN+H2ptd6VLYyvul02QImev2eXLJ+RDD8BXZV1J3Vz6ijUVWCmuoEgAkkAAZJPAAFc1qHjbwxp8jRfaHupVyGWxQSqp9DISE/8AHq47xh4sm1GafTNPlKadExjnkjODdupwRkfwDt69elcXWUqnY8zEZjyy5aX3nqg+JGg55stSA9dkB/TzKV/iP4eCkpa6kzY4UxwqCfc+Ya8qoqfaSOP+0a/c9o8MeI38RDU5DarbpaywpGokMjMJFY5Y4A7V0VcR8OLV4tKv7phgXV6VT3SFAufzJH4V29bRu1qe5hpSnSjKe7CiiiqOgKKKKACiiigAooooAKKKKACiiigAooooAKKKKACiiigAooooAKKKKACiiigAooooAKKKKACiiigAooooAKKKKACiiigAooooAKKKKACiiigAooooAKKKKACiiigAODkHoeDmvIPGPhttHuzeWsZ/sy7clNo+W2mPJiPseqfl259fqK4t7a7gmtrmJJYJkKSxyDKsp7EVMo8yObE4dV4cr36Hz2CQQQSCCCCDggjkEEV3wtovG2ircIUXxHpSLDNnC/a4wCV3/wC9zg9jkdDVDxB4I1LTnluNNSS7sCSwRAWuYB1wyjlgPUfiO5w9C1i40PUoL2MMUU+VdwjgyQMRuUg9x1HuKw2dmeDCLoTdOsvde/8AmbngK4ktPEL2kqsjXNtcW0iOCrLLCRLhge42sK7XxpqzaXosyxPtub9vscJBwyqwJkcfQZH1IqK90a2vNR0HxRpBVpBPbSXQjwBdWsg8syD/AG1B59QMdRzz3jiPUNY17TtJsIZJ5La08wov3Vad+XdjwAAq8k1esYtHo2nh6EoLXXT5nAcD6VqrpYtLeO+1bfBFKN1naD5by8/2gGHyR+rEfQHPHSSafong2GK4vvK1HxBIu+1tuttantKwPJA7E9ewGMjjry9vNQuZry8maW4mbLu3p2VQOAB2FZtWPKlTVH49Zdu3r/kRSP5js4RIwfupGCFUDoBnJ/M1PYWN3qV5bWNqm6e4cIvoo6s7Y7AcmixsL/U7hLWxgeaZ+yj5UH952PAHua9e8M+GLXQIGdys2oTqBcTgfKq9fKizzt9fX9A4x5i8LhZV5XexsadYwaZY2VhB/qraJYwT1YjlnPuTkn61aoorpPp0klZBRRRQMKKKKACiiigAooooAKKKKACiiigAooooAKKKKACiiigAooooAKKKKACiiigAooooAKKKKACiiigAooooAKKKKACiiigAooooAKKKKACiiigAooooAKKKKACiiigAooooAKz73RNC1ElrzTrWZz1kaMLKf+2iYb9a0KrX19a6fA09w2FHCKOXkbsqj1qZOMVeWw1TdVqCV2+hFZQaVpaw6XaAQjbLPDAZJHIQtlihkJOMnpnvRfx30dveS6TBaHUplVQ9wdikqNoaRkUk7R0FcNPql5PqCaiTtljkQxID8qRqeIx7HnP1r0cHIBxjIBwfeuTC4pYjmSW35HoY/LXg4wTe6+5+X3nlL+BfGF9cTXF7PZ+dM5eWWa4d2YnvhEP4CtWw+G1urK+pag8oHJitE8tT7GR8t+gr0GuY1TxFcRXRs9OSOR0cRu7KX3Sk42RqCPp/+qrrTp0I80zysJk0cRUtBXe+r0+ZuWGm6bpcIt7C2igi4LBB8zkd3Y/MT9TVsEHoc/SuK1zV750isGdEkjUG/NsWCNN18sHOcL356/SoTJNo1gsSSOuoaiiySAMf9GtudoA6b29f8K5pZhGMmktFu/0Pfp5LL2cXzJOWyt07+ltfu7nd5GcZGfSiuO8M6c88zahK0gjgYrF8zDzZccljnJA/n9K0NY8RLZySWtoiyXCcSSPzHEx7YHU/59q1hjF7L21Rcq6eZjUy2X1j6vQfM1v0sdDRWNoFxq93BJc30iNE5xbgRqjEAkM2VwMdhx2rZrqpVFVgppWucFei6FR0202uwUUUVoYhRRRQAUUUUAFFFFABRRRQAUUUUAFFFFABRRRQAUUUUAFFFFABRRRQAUUUUAFFFFABRRRQAUUUUAFFFFABRRRQAUUUUAFFFFABRRRQAUUUUAFFFFABRRRQAUUVS1PUbfTLczSfM7ZWGMHDSPjp9B3P+TM5qEXKWyLp05VZKEFdsNS1K10yHzZjudsiGJSN8je3t6n/ACeBvr+71Ccz3DZPIjRfuRr/AHVH86jurq5vZ5Li4fdI/wD3yq9lUegqfSrA6jew2+SI8GSZh1Ea9ce54A+tfM4jFTxc1CG3Rf5n3OCwNLL6bq1Pitq+3kv61Lmg6TJf3CXEikWdu4ZiRxK6nIjX/wBm/wDr8d5TIYYYIo4YUVIo1Coq8AAUskkcUcksrKkcalnZjgKo5JNe7hcPHDQt16s+Tx2NnjavNbTZL+upma7qJ0+yYxti4nJig9VJHzP+A/XFcrpSpaQXmsSgH7P+4slbnzLqQfe5/ujn/wDVTb+5n1vUGaM7YUBWIyHakMC8tLIe3qfwFQ3lwLlrSzs1c2tsPKtkCnfNIx+aVl9WPSvFxGI9pUdRbLSPr3/X7j6fB4L2NBUXvLWXku36fex+k2y3V401yc21qr3l47dCFy2Dn1P9agnluNUv3kAJmu5gkSf3QTtRfwHWp7iaO1tP7NgZWd3Euoyocq8i/dhQjqq9z3P66OhwW1hE2s37BIwGSzQjLyE8F0X1PQfifesIQ52qV9N5P+u35s66lX2aliGtdorv/wAO/wAEjcu54NB0qOOMjzEj8m3B6vMRkuR+ZP8A9euO02yl1O+jhJYqzGW5k7hAcsc+p6D60mo6hcalctPJkL9yCIciNM8Ae5712Wg6Z/Z1pulX/Srja83qg/hj/Dv7muxf7bWUY/BH+vx/I82X/CXhXOTvVn+f/A/M1USOJEjjUKkaqiKOiqowAKdRRX0Gx8g3fVhRRRQIKKKKACiiigAooooAKKKKACiiigAooooAKKKKACiiigAooooAKKKKACiiigAooooAKKKKACiiigAooooAKKKKACiiigAooooAKKKKACiiigAooooAKKKKAGySRwxySyMFjjRndj0CqMk15zqeoS6ldSTvkRjKQIf4IwePxPU//Wrp/FV0YrKG2U4a6k+fH/POPDEficVxdfP5pXbl7JbLc+wyHCKNN4iW70XoFa/h69gstQzOQsdxEYC54CMWDKSfTjH41kUleVTqOnNTXQ+gr0Y16cqctmeq54yPm4yMEc/Q9K4nXbzWrljFPaT21orfLHtLCQjozyJ8p9hms+01fVbIBILhvLHAjlAkQD2Dcj8DWkvizVQMNDaMfXbIP5PXr1sbTxEOVtx/E+cw+V18HV54xjPtrZr9PzMEGXayDftcgsoB+YjpkCrVvZau+429rcjcpUv5ZQBT1+d8AD15q/J4o1l87BbRe6REn/x9iP0rNub/AFG74ubqaRc52FsJ/wB8Lhf0rzWqMdpN/K36v8j3IvEz+KMY/Nv8LL8yZYbCzIa6kS6mX7trbPmIEf8APeYcY9lz9agu7y5vZPNnYfKNsaINscSDosa9AKhiilmdYoY3kkbhUjUsx/AV1ekeGvLZLnUgrMMNHbghlU9jKRwfp0+tXRpVMR7lNWX9bmWIxFHCL2tZ3l07/JdPX72ReHdFZmj1G7TCrh7WJhyx7SsD2/u/n9etoor6XD0I0IckT4bGYueLqe0n8l2QUUUV0HIFFFFABRRRQAUUUUAFFFFABRRRQAUUUUAFFFFABRRRQAUUUUAFFFFABRRRQAUUUUAFFFFABRRRQAUUUUAFFFFABRRRQAUUUUAFFFFABRRRQAUUUUAFFFFABRRRQBxni1ib6zTstqWH1aRgf5CudrqPF0DCSwuh90o9u3sQd6/1/KuXr5LHJrESufoeVSTwkLf1qFFFKiPIyJGrO7kKioCWYnsAK4z0thKSuksvCt3Lte9lECHB8uPDy/Qn7o/Wuks9J0uxA8i3TeP+WsnzyH33N/TFelRy6rU1lovP/I8XE51h6OkPeflt9/8Alc4a10jVrvBhtZNh/jlHlp+b4/QVt2vhJuGvbrjjMdsP03v/APE11lFepSyyjDWWp4NfPMTU0haK/H8StZ2FjYp5drCqA/ebq7+7MeTVmiivRjFRVoqyPEnOU3zSd2FFFFUSFFFFABRRRQAUUUUAFFFFABRRRQAUUUUAFFFFABRRRQAUUUUAFFFFABRRRQAUUUUAFFFFABRRRQAUUUUAFFFFABRRRQAUUUUAFFFFABRRRQAUUUUAFFFFABRRRQAUUUUAUdWsf7Qsbi3GPMwJISegkTkfn0/GvOGVlZlZSrKSrKeCrA4INeq1x/ibS2jkOowL+6kwLoAfck6CT6Hoff6142Z4fmj7WO639D6XI8aqcnh5vR7ev/BOaAJIABLEgKBySTwAK77RdHi06FZJFVryRQZX6+WD/wAs0PoO/r/LmPDlqLnU4WYZS2Rrg/7y4Vf1OfwrvqjK8OmnWl8jbPcZJNYeD03f6IKKKK9w+UCiiigAooooAKKKKACiiigAooooAKKKKACiiigAooooAKKKKACiiigAooooAKKKKACiiigAooooAKKKKACiiigAooooAKKKKACiiigAoqrdajptnxc3MUbf3Ccv/wB8Llv0rNbxRoinAa4b3WE4/wDHiKxniKUHaUkjqp4SvVV4QbXoblFY0fiXQ5DgzSR+8kTgfmoNacF1aXS77eeKVe/luGx9QOacK1Op8EkyauGrUdakGvVE1FFFanOFFFFABRRRQAUUUUAFFFUdV1A6baG5EXm/vI49m7Z97vnB/lUzmoRcpbI0p05VZqEN2XqK5P8A4S9v+geP+/8A/wDYV0Wn3ZvrO2u/L8vzlY7N27bhivXA9PSsKWKpVnywd2dWIwGIw0VOrGy23X6FqkdEkV0dQyOpVlYZDKRggg0tFdJw7GRpmjjTLzUJIzm3nSIQZPzphmLIfpxg/wCHOvRRWdOnGlHlhsbVq068+eo7vT8AooorQxCiiigAorMvdf8AD+nStBe6hbwzqFZomJMgDDIJVQTzWdJ448Hp0v2f/rnb3J/UoKXMu5lKtTjpKS+86SiuTb4geEx0kvG/3bZ//ZsUL8QPChPMl4vu1s//ALKTS5o9yPrNH+ZHWUVgW/jHwjcEBdTijY9rhJYf/HpFC/rW5FNBcIssEscsbfdeJ1dD9GUkU009jWNSE/hdx9FFFMsKKbJJFDHJLK6RxRqXkeRgqKo5JZjxiuWn8feFIZGjWS6nAODJbwEx/gZCufypNpbmc6sKfxux1dFZmla9outK5sLlXdADJC4McyA8ZKNzj3GRWnTvcqMlJXi7hRRRQUFFFFABRRRQAUUUUAFFFFABRRRQAUUUUAFFFFABRRRQAUUUUAFFFFABXJa34hl8yW0099ioSk1wv3mYcFYz6D1//Wd3WrprTTbyVDiQoIoz3DSEJkfTOa85rxsyxUqdqUHa+59LkmBhWvXqK6WiXmKSSSxJLE5JJJJPqSaTIHcVv6BosWoCS6usm3jfy0jUkea4AJ3Ec4H+enPXR2GmxKEjtLZVHHESfqSM1w4fL6laPO3ZM9bF5xSw03TScmtzzKnxySwuskTvHIvKvGxVh+Ir0WfSNHuARJZQZ/vRqI2H/Ao8Guf1DwrIgaXT5DIByYJiN/8AwB+h/H86dXLq1P3o6+m4qGdYas+Sfu377ff/AJl7w9q97fma3uUDmCNX88YUnJwFdRxnryPSugrE8NWT2ti8kqMk1zKzMrgqyqnyKCD+J/GtuvcwnP7GPtHqfKZj7L6zNUVZLt+P4hRRRXUcAUUUUAFFFFABWH4p/wCQUf8Ar5g/ma3Kw/FP/IKP/XzB/M1y4v8AgT9Duy7/AHqn6o4avQdA/wCQPp3+5J/6NevPq9B0D/kD6d/uSf8Ao168bKv4r9P1R9PxB/u8f8X6M1KKKK+jPigooooAKKKKACiiigDxzx3/AMjLff8AXvZ/+ihXMV0/jv8A5GW+/wCvez/9FCuYrlluz5PFfxpeoUVq6Do0uu3xsYp0gYQST75EZxhGVcYUj1rqX+Gl+FJTVbZn7B7eRV/76DE/pQot7BTw1WrHmgro4GrdhqWpaZMJ7C5lgkBBOw/I+OzoflI+oqbVtH1PRbkW1/EFZlLxSRndFKoOCUb+YwD+fOdS2Mfepy7NHs3hbxPDr8DxSqsWo26gzxL9yROnmxZ5x6jt+PPSV4RoN/JpusaXdoxAS4jjmA/ihlIjcH8Dn8K93rohK61PpMDiHWp+9ujz74kX9wkel6bGxWG4825uADjzPLKqin2BJP4D0rzavXfG3h+51izt7iyXfeWBkIiGAZoXA3Kuf4hgEfj615JIkkLtHMjxyKcMkqlHUjsVbBrKpueTmEZqs29uhY0++udNvbO+t2Ky28qvwcbkzhkb2IyDXv6kMqsOjAEfjzXi3hrw5f61eW7NDImnRSJJczupVGVTkxxk9SenHT+ftVXTO7LIzUG3s9gooorU9YKKKKACiiigAoqK4uLe0gnubiRY4II2llkfhVRRkk1gDWtduiHs7PTbWFgGhXWLxoruZG5VvIhRiue2Tn2pN2IlUUdzpKKy9P1Z7i4k0++tGstSjj84Qs6yxTw52mW3lUAEA9RgEZ6VqUJ3HGSkroKKKKZQUUUUAFFFFABRRRQAUUUUAFFFFAGJ4oDHSnI6LcQFvpuxXC16bfWq3tpdWrHHnRlQf7rdVb8DivNZoZreWWCZCksTFHU9iPT29K+dzWm1UU+jR9nkFaLoypdU7/JnW+FL2A28tixCzJI80YPHmI2Cce4PWulrytWdGV0ZldSCrKSGUjuCOa3LPxPqduFScJdIMDL/ACS4/wB9Rj8xWmEzCMIKnU6dTHMcmqVajrUHe/T/ACO4orEtfE2kT4WVntnPaYfJn/fXI/PFbKPHIqvG6ujcqyMGU/QjivZp1oVVeDufM1sPVoO1WLQ6iiitTAKRmVFLMwVVGSWIAA9STVa/vrbT7d7ic8D5UQfekc9FWuC1DVL7UnLTuRED+7gQkRoPcdz7muHFYyGH03fY9XAZZUxnvbR7/wCR2k2v6HCSpu1dhwRCryfqgI/Wok8SaE5wbh093ilA/MCuB/yKUgjggg+4I/nXkvNa19Ev6+Z9Csgw1rOTv8v8j0+C6tLpd9vPFKvcxsGx9QOamry2Gae3kWWCR45F6PGcH6Gu10TXBqA+zXO1bxVyCOFmUdSo9R3H+R6OFzCNZ8k1ZnjY/J54aPtKb5o/ijdrD8U/8go/9fMH8zW5WH4p/wCQUf8Ar5g/ma6cX/An6HBl3+9U/VHDV6DoH/IH07/ck/8ARr159XoOgf8AIH07/ck/9GvXjZV/Ffp+qPp+IP8Ad4/4v0ZpSSRRI8krqkaDLu5Cqo9STVX+1NI/5/7T/v8AR/41Frn/ACCdT/64H+Yrzqu/GY2WHmopX0PIy3K4Yym5yk1Z2PUoZ7e4QyQSxyoGKlomDLuHJGRUlYHhT/kGS/8AX5N/6Alb9d1Co6tNTfU8rFUVQrSpJ3swqn/amkf8/wDaf9/o/wDGrbfdb/dP8q8r9fqa5Mbi5Ybl5Ve9z0Msy+GN5uaTVrfjc9Pgu7K5Li3uIZSgBYROrlQemdpqauQ8If67Uv8ArlB/6E9dfXRhazr0lNrc48fhlha7pRd7W/I8c8d/8jLff9e9n/6KFcxXT+O/+Rlvv+vez/8ARQrmKUt2fDYr+NL1Ov8Ah7/yH3/7B9z/AOhxV63Xhvh3WhoOoG+NsbgG3kg8sSeWfnZW3bip9PSusl+JjlSINHAfsZbrco/BYwf1rSEklqelgsVSpUuWb1LnxJ8j+ztJ3Y877c3l+vl+U2/Ht93NeX1o6vrOp63ci5vpASoKQxRjbFChOdqKSfxJOfy4zqzk7u552KrKtVc47E1pE891ZQoCXmuYIkA6lnkVRX0JXmfgbwzcvcw61fRNHBBlrGOQFWmlIwJdp52r/D6nntz6ZWtNWVz2MupShByl1ILq9sLFFlvLmC3jZ9ivcSLGpYgnaCxHPBrPfWvCMpDSalpDkdC89uxH4k1gfEj/AJBGn/8AYST/ANEy15XRKdnYnFY6VGpyJXPeYdb8PSyRQQapp7ySMscUcdxEWZjwFVQa0a8J8O/8h7w//wBhG1/9DFe7VUJcx0YTEPERbatYKa8kcSPJI6JGgy7uwVVHqSeKoazrFjollJeXZJ52QRKR5k8pGQiZ/U9v5+Oaz4g1fXJme7lKwBiYbWIkQRjt8vc+5/TpRKaiGJxcKGm7PUrrxp4StWKG/EzgkEWkckw/77UbP/HqqL8QfCrHBa9UerWxx/46Sf0ryKisvaM8t5nVb0SPdtP8Q+H9TYJZahBJKekTExyn6RyAN+lalfOvQgjgg5BHBBHcGu48MeNrm0khsdYlaazYhI7qQlpbcngeY3Up79R7jpcanc66GYqb5aisdr4n2mz00S4+yHWtKF9u+59n88ff/wBndtzXParDM2peNp49L0y+jhXTvtD3iGS4t4zZrl4EC5O0ZYgOp44ruLi3tb62mt50Sa2uYikinlXRx2I/Q1iRaZ4m08yx2F3pl1DIFXzNUt5RebEXYizTW5G/aOASAaqSudVam5O/T/gP/MrSxwQp8PI7W5+1TR3MccFznLT2f2KTz3/3SNpP4V1VY+l6ILKX7ZdTRz3nlGCEQwrb2lnAW3mK1gXIAJ5Y5JP6VsU4m1KLSbelwoooqjYKKKKACiiigAooooAKKKKACiiigArO1LR7LU1BkBjnUYSeMDeB6MOhFaNFROEakeWSujSlVnRkp03Zo8+vdC1WyLExGeEZxLbgtx/tJ94flWV6juOvtXq1VLrTNMvc/aLaJ2P8YG2T/vtcH9a8erlSetJ/efS4fiBrSvG/mv8AI81qzZ399YPvtZmTnLIeY3/3kPFb9/4UdA0mnyl8c+RMRuPskg4/MfjXMMrozo6sroxV1YYZWHBBBryalGrhpe9o+59BRxGHxsGou66p/wCR6BpGsQapGy7fLuYwDLFnII6b0Pp/L+epXmdhdPZXlrcqSPLkXeB/FGxwyn8K9Kdwsckg5Cozj8BmvoMDinXpvn3R8fmuBWFqr2fwy2/yOD8QXzXmoSxhv3FoWhjHYuOHb8+PwrMt4JrqeG3hGZJnCL6DPUn2HU1GWLEseS5LE+7HJrofCcSvfXMpGTDb4T2MjYz+QP514ME8VX97qz62o1gcI+VfCvx/4c6TTtIsdOjURxq82B5k7qC7N3wT0HsKuT29tco0c8UcqEYIkUH8s1JRX1cacIx5EtD8+nWqTn7SUnfucBrmk/2ZOjRZNrPuMRbkow5MZP8AL/61ZccksMkU0TFZInV0YdmU5Fd54jhWXSbpj1hMUyexDhT+hNcDXzOOoqhWtDZ6n3eVYmWKw16mrWj8z02xukvbS1ulGBNGGI/ut0ZfwOay/FP/ACCj/wBfMH8zTPCshbTZEP8AyyupVHsGCv8A1NP8U/8AIKP/AF8wfzNe1UqOpg3N9UfL0qKo5iqa2Ujhq9B0D/kD6d/uSf8Ao168+r0HQP8AkD6d/uSf+jXrzMq/iv0/VHu8Qf7vH/F+jH65/wAgnU/+uB/mK87r0TXP+QTqf/XA/wAxXndPNf4q9P1Fw/8AwJev6I7bwp/yDJf+vyb/ANASt+sDwp/yDJf+vyb/ANASt+vYwf8AAh6HzWZf73U9RG+63+6f5V5X6/U16o33W/3T/KvK/X6mvMzb7Hz/AEPc4d/5efL9TpvCH+u1L/rlB/6E9dfXIeEP9dqX/XKD/wBCeuvrty7/AHePz/M8vOv98l8vyR4547/5GW+/697P/wBFCuYrp/Hf/Iy33/XvZ/8AooVzFbS3Z+eYr+NL1Citzwvo1rrmptZXMs0UYtZZ90GwOWRkUD5wRjn0ruh8OfDuObrUyfXzYB/7SpqLexdHB1K0eaOx5TRyMEdRyK9A1X4dSQwSzaTdyTvGpb7NcqgeQDnCSJgZ9AV/GvP+RkEEEHBB4II7EUmmtzKtQnRdpo7Tw744v7KSK11eV7mxYhPPfLXFv23FurL655/LB9VR0kRJI2V45FV0ZSCrKwyCCOxr52r1f4e6jJdaVcWMrFm06ZViJPIgmBZV/AhgPw9K0py6M9TL8VKUvZTd+wz4kf8AII0//sJJ/wCiZa8rr1T4kf8AII0//sJJ/wCiZa8rqanxHJmP8dmr4d/5D3h//sI2v/oYr3WvCvDv/Ie8P/8AYRtf/QxXtt7Mbeyv516wWtxMPqkbNV09md2WO1OTPH/F+sPq2sXIVybSxZ7S1UH5fkOJJPqxH5Aelc7RknknJPJJ7k80Vje+p4tSbqTcn1NTRdD1LXbk29mqgRgPPNLkRQqTgFiOcnsP8Mjprv4canDA0lpfwXMyruMLRGHfjsjlmGfTOK6jwJZxW3h60mUDzL6Sa5lbHJw5iUZ9gB+ddRW0YJrU9vD4CnKmnPdnzu6SRvJHIjJJGzJIjghkdTgqwPcU2uu+IFnFba6JowAL60juJABgearNEx/HArkaxas7Hi1qfspuHY9V+H+sPeafPps7lptO2eSWOS1q+do/4CQR9MV2teQ+AJmi8Qxxg/Lc2d1Ew9doWUf+g169XRB3R9FgajqUVfpoFFFFWdwUUUUAFFFFABRRRQAUUUUAFFFFABRRRQA2SSOJHkkZUjRSzsxwqqOpJNOBVgGUgqwBBByCD3BFYfie58nTWiB+a6lSH/gA+dv5Y/GuUsdW1PT8LBNmLOfJlG+P8B1H4EV51fHxoVfZyWh7OFymeKoe1g7O+z6no9Fc1a+LLVgBeW8kTd3h/eIfw4b+daS6/oLDP22MezrIp/IrXRDF0Zq6kvyOSpl+KpO0qb+Wv5GnXDeKY4k1NWTAaS2jeXH94Mygn8AK3brxPpMKN9nZ7mTHyqisqZ/2ncD9Aa4y6uZ7y4muZyDJKcnH3VA4CqPQV5uY4mnOHs4u7PbyXBV6dV1ppxVra9SA9D9DXqCIXtUQ9Wt1Q59SmK86060e9vbS3UEhpFaQj+GJDuYn+X416XSymDtOT22HxBUXNTgt1d/l/keVFSpKnqpKn6qcGug8KTKl/cRMcGe3+T3aNs4/In8qq+ILFrPUJXC/ubotPEewYnLr+B5/Gs2Cea2mhuIW2ywuHQ9sjsfY9DXmQbw1dc3Rnu1EsdhHyv4l+P8Aw56jRWbp2s2GoRqVkWOfA8yGRgGDf7Oeoq5PdWdshknnijQDOXYDP0HWvq41YSjzp6H59OhUhP2cou/YzvEcyxaTdKes7RQoPUlgx/QGuBrV1vVjqc6iMMtrBuEKtwXJ6yMP5f8A16zI45JpI4olLSSOqIo6lmOAK+Yx1ZV6147LQ+6yvDSwuHtU0b1fkdp4UjK6bK5/5a3UrD6Kqp/Q0/xT/wAgo/8AXzB/M1p2NqtlaWtqpz5MYVj/AHnPLH8TmszxT/yCj/18wfzNe3Om6eDcH0R8vSrKtmKqLZyOGr0HQP8AkD6d/uSf+jXrz6vQdA/5A+nf7kn/AKNevMyr+K/T9Ue7xB/u8f8AF+jH65/yCdT/AOuB/mK87r0vUYTcWF/CBlpLeVVHq204rzOqzZfvIvyI4fkvYzj5/p/wDt/ChB06YdxeS5/FENb9cP4d1SGwmmguW229xtIc9I5F4y3sf6V2gnt2Xes0RTGdwdSuPXIOK9LAVYzopJ6o8TNsPOnipSa0eqHt91v90/yryv1+prs9X8RW8CSW9g6y3DAq0q/NFF2yD0J9P8g8ZXl5nWhUlGMXe1z3ciw1SjCU6itzWt8rnTeEP9dqX/XKD/0J66+uP8IsPtOoL3METD6K5H9a7CvTy7/d18/zPDzr/fJfL8keOeO/+Rlvv+vez/8ARQrmK6fx3/yMt9/172f/AKKFcxW0t2fneK/jS9Tr/h7/AMh9/wDsH3P/AKHFXrdeC6Tq1/ot0byy8rzjE8J85N6lGKseAR6DvXRr8RfEg+9b6a3uYpx/KWtITSVmehg8ZTo0+SW56uSACSQABkk9AK+f9Rkhm1HVJYceTLe3ckWOhRpWZSK2dT8Z+JNUhktpJYre3kBWVLNChdTwVZ2Zmwe+CK5ypnLm2MMdio17KHQK9A+Gm77Trv8Ad8izz9d0mP615/Xq3w80+S20q5vpFKtqM4aLI5MEIKK34ktSh8RGXxcq6a6DfiR/yCNP/wCwkn/omWvK69U+JH/II0//ALCSf+iZa8rp1PiHmP8AHZq+Hf8AkPeH/wDsI2v/AKGK9tvomuLK/gX701rcRD6vGyivEvDv/Ie8P/8AYRtf/QxXutXT2Z3ZYr05I+dQCODwRwR6EcUV0Hi7SH0nWboKhFres93aMB8uHOXjH+6T+RHrXP1ja2h4tSDpycX0PYPAd7Fc6BbwBh5thLNbyr3AZzKjY9CD+h9K6qvBtI1nUtEuvtVjIAWASaKQFopkBztdQR+Bzn8+eku/iLrc9u0Vva21rK6lTOrPKy57xqwAB+ua2jUSWp7WHx9ONJKe6K3j69iu9dMUTBlsLaO2cjkeaWaVh+GQD9K5OlZndmd2ZndizsxJZmY5JJPOTSVi3d3PGq1PaTc31Or8AQtL4iikA+W3tLqVj6BgIh/6FXr9cT8PtIe0sJ9TnQrLqOwQBhgi1jzhv+BHJ+gHrXbV0U1ZH0WBpuFFX66hRRRVncFFFFABRRRQAUUUUAFFFFABRRRQAUUUUAZWs6QNVii2zGOaDeYt3MZ3YyHA57DmuKu9O1GxJFzbuqg4EijdEfo68V6VQQCCCAQeCD0NeficBCu+a9mexgc2q4SPs7Xj2/4J5TS16LPoui3BLSWUO49WjBjP/kMiqh8MaGTny5x7CZ8frXlyyustmme9DP8ADte8mvu/zOFqa2tbq8kEVtE8rk87R8q+7MeAK7mPw7oUZB+y7yP+eskjj8icfpWnFDBAgSGOONB0WNQq/kK0p5VNv95LTyMa3EFNL9zFt+Zm6NpEelxMzEPdSgec46KBzsTPb+f8tWiivcp0404qEVoj5StWnXm6lR3bKt/YW2o272846/NG4+9G46MtcBqGmX2myFbhCYycRzICYnH17H2Nek0jIjqyOqsjDDKwBUj0INcuKwUMRrs+56GAzOpg/d3j2/yPKqK9Bm8PaHMSxtRGTyfJd4x/3ypx+lRp4Z0JDkwyv7PNJj9CK8l5XWvuv6+R9Es/w1rtP7l/mcLFFNPIsUMbySMcKkYLMfwFdroehCwxdXW1rtlwqjlYFPUA/wB49z/k69vaWdouy2giiU9fLUAn6nrU9ehhcvjRfPN3Z42PzieJi6dNcsfxYVh+Kf8AkFH/AK+YP5mtyo57e2uU8q4iSWPIbbIoZcjocGu6tTdSnKC6nk4WqqNaNR9Hc8ur0Hw//wAgfTv9yT/0a9Tf2Rov/Pha/wDfpatxRQwRpFDGscSZCIgAVcnPAFcODwUsPNyk76Hr5lmlPGUlTjFqzv8Agx9cJrujzWU8tzChazlYvlRnyWY5Ktjt6H/J7uggEEEAgjBB5BBrqxOGjiIcr36Hn4HHTwdTnjqnujymjA9K9Cn0DRJ2LG1CMTkmBmjBP+6p2/pUcfhvQozkwPJ7SyyMPyBArxXlVa+6/r5H06z/AA1rtO/y/wAziLW0u7yUQ20TSOSM7R8qD1dugFWdV0yTS5oInfeJYFk3gYG8HDqPp/WvQ4oYIEEcEUcaDosahR+QqG6sbG98r7VAkvlFim7Py7sA9DXT/ZSVNpP3vwOH+326ybjaHbqch4Vfbqbp/wA9LWUf98sjV3FVLfTNLtZBLb2kMcgBAdV+YA8EZq3XoYShKhT5JM8jMcVDF1vawVtOp4547/5GW+/697P/ANFCuYr3i80HQNQmae9062mnYKrSOvzkKMAFhzxVB/Bfg9/+YYi/7k1yv8nrV022fJ1svqTm5prU8Wor2FvAXhFultcJ/uXU3/sxNR/8K+8K+l9/4En/AOJqfZyMP7NreR5FQASQoBLE4AAySfQAV7FF4E8IxkFrWaXHaW5mI/JGFbNlo2iadg2Wn2sDD+NI18z/AL7OW/Wn7Nlxyyo/iaR5r4e8EajqEkVzqkclrYAhjHIClxcDrtC9VU9yefT1Hq8cccMccUSKkcaLHGiDCqijAUAdhTqK1jFRPXoYeFBWicT8SP8AkEaf/wBhJP8A0TLXldfQN5YafqEaRXtrDcRo4kVJ0DqHAK7gD35NUv8AhGvC3/QH0/8A78J/hUSg27nFisDKtU50zx/w7/yHvD//AGEbX/0MV7tWZD4f8OQSxTw6VYxzROskUiQoGR1OQykDrWnVQjynRhMO8PFpu9zN1rRrHXLJ7O6BUg74JlA8yCUDAdc/qO/6jxvWNC1bQ5jHeQnyixENzGCYJR7N2Psef5n3amyRQzI8U0aSRuMOkih0YehVuKJQ5gxODhX12Z870V7NdeCPCd0xYWbW7HqbSV4x+CZKfpVRfh54XByW1Bh6NcKB/wCOoD+tZezZ5Ty2qno0eSenvwPc123hjwVdXskV9q8Tw2KlXjt5AVluu43r1Cevc/Q5rvtP8N+HdLZZLPT4VlXpNJullB9Q8pJH4YrWq40+510MuUHzVHfyEVVVVVQFVQFVVAAAHAAApaKK1PXCiiigAooooAKKKKACiiigAooooAKKKKACiiigAooooAKKKKACiiigAooooAKKKKACiiigAooooAKKKKACiiigAooooAKKKKACiiigAooooAKKKKACiiigAooooAKKKKACiiigAooooAKKKKACiiigAooooAKKKKACiiigAooooAKKKKACiiigAooooAKKKKACiiigAooooAKKKKACiiigAooooAKKKKACiiigAooooAKKKKACiiigAooooAKKKKACiiigAooooAKKKKACiiigAooooAKKKKACiiigAooooAKKKKACiiigAooooAKKKKACiiigAooooAKKKKACiiigAooooAKKKKACiiigAooooAKKKKACiiigAooooAKKKKACiiigAooooAKKKKACiiigAooooAKKKKACiiigAooooAKKKKACiiigAooooAKKKKACiiigAooooAKKKKACiiigAooooAKKKKACiiigAooooAKKKKACiiigAooooAKKKKACiiigAooooAKKKKACiiigAooooAKKKKACiiigAooooAKKKKACiiigAooooAKKKKACiiigAooooAKKKKACiiigAooooAKKKKACiiigAooooAKKKKACiiigAooooAKKKKACiiigAooooAKKKKACiiigAooooAKKKKACiiigAooooAKKKKACiiigAooooAKKKKACiiigAooooAKKKKACiiigAooooAKKKKACiiigAooooAKKKKACiiigAooooAKKKKACiiigAooooAKKKKACiiigAooooAKKKKACiiigAooooAKKKKACiiigAooooAKKKKACiiigAooooAKKKKACiiigAooooAKKKKACiiigAooooAKKKKACiiigAooooAKKKKACiiigAooooAKKKKACiiigAooooAKKKKACiiigAooooAKKKKACiiigAooooAKKKKACiiigAooooAKKKKACiiigAooooAKKKKACiiigAooooAKKKKACiiigAooooAKKKKACiiigAooooAKKKKACiiigAooooAKKKKACiiigAooooAKKKKACiiigAooooAKKKKACiiigAooooAKKKKACiiigAooooAKKKKACiiigAooooAKKKKACiiigAooooAKKKKACiiigAooooAKKKKACiiigAooooAKKKKACiiigAooooAKKKKACiiigAooooAKKKKACiiigAooooAKKKKACiiigAooooAKKKKACiiigAooooAKKKKACiiigAooooAKKKKACiiigAooooAKKKKACiiigD//Z;clipPath=inset(17.67% 5.67% 9.33% 5.33%);" parent="hQ67yEuSmeyZ496hQBUE-9" vertex="1">
          <mxGeometry width="30.48" height="25" as="geometry" />
        </mxCell>
        <mxCell id="hQ67yEuSmeyZ496hQBUE-7" value="" style="fillColor=none;strokeColor=#5A6C86;verticalAlign=top;fontStyle=0;fontColor=#5A6C86;whiteSpace=wrap;html=1;" parent="hQ67yEuSmeyZ496hQBUE-9" vertex="1">
          <mxGeometry width="119" height="130" as="geometry" />
        </mxCell>
        <mxCell id="hQ67yEuSmeyZ496hQBUE-11" value="&lt;font color=&quot;#4d4d4d&quot;&gt;APIs REST&lt;/font&gt;" style="rounded=1;whiteSpace=wrap;html=1;strokeWidth=0;strokeColor=none;fillColor=#99CCFF;" parent="hQ67yEuSmeyZ496hQBUE-9" vertex="1">
          <mxGeometry x="5" y="28" width="109" height="22" as="geometry" />
        </mxCell>
        <mxCell id="hQ67yEuSmeyZ496hQBUE-14" value="" style="group" parent="hQ67yEuSmeyZ496hQBUE-9" vertex="1" connectable="0">
          <mxGeometry x="5" y="77" width="48" height="47" as="geometry" />
        </mxCell>
        <mxCell id="hQ67yEuSmeyZ496hQBUE-12" value="" style="image;sketch=0;aspect=fixed;html=1;points=[];align=center;fontSize=12;image=img/lib/mscae/SAP_HANA_on_Azure.svg;" parent="hQ67yEuSmeyZ496hQBUE-14" vertex="1">
          <mxGeometry x="7" y="15" width="34" height="17" as="geometry" />
        </mxCell>
        <mxCell id="hQ67yEuSmeyZ496hQBUE-13" value="" style="rounded=1;whiteSpace=wrap;html=1;fillColor=none;strokeColor=#808080;" parent="hQ67yEuSmeyZ496hQBUE-14" vertex="1">
          <mxGeometry width="48" height="47" as="geometry" />
        </mxCell>
        <mxCell id="hQ67yEuSmeyZ496hQBUE-17" value="&lt;font style=&quot;font-size: 9px;&quot; color=&quot;#666666&quot;&gt;Outros Sistemas&lt;/font&gt;" style="rounded=1;whiteSpace=wrap;html=1;fillColor=none;strokeColor=#808080;" parent="hQ67yEuSmeyZ496hQBUE-9" vertex="1">
          <mxGeometry x="66" y="77" width="48" height="47" as="geometry" />
        </mxCell>
        <mxCell id="hQ67yEuSmeyZ496hQBUE-27" value="" style="endArrow=open;startArrow=open;html=1;rounded=0;startFill=0;endFill=0;strokeColor=#808080;exitX=0.5;exitY=0;exitDx=0;exitDy=0;entryX=0.222;entryY=1.005;entryDx=0;entryDy=0;entryPerimeter=0;" parent="hQ67yEuSmeyZ496hQBUE-9" source="hQ67yEuSmeyZ496hQBUE-13" target="hQ67yEuSmeyZ496hQBUE-11" edge="1">
          <mxGeometry width="50" height="50" relative="1" as="geometry">
            <mxPoint x="26" y="77" as="sourcePoint" />
            <mxPoint x="26.930000000000007" y="47" as="targetPoint" />
          </mxGeometry>
        </mxCell>
        <mxCell id="hQ67yEuSmeyZ496hQBUE-30" value="" style="endArrow=open;startArrow=open;html=1;rounded=0;startFill=0;endFill=0;strokeColor=#808080;exitX=0.5;exitY=0;exitDx=0;exitDy=0;entryX=0.222;entryY=1.005;entryDx=0;entryDy=0;entryPerimeter=0;" parent="hQ67yEuSmeyZ496hQBUE-9" edge="1">
          <mxGeometry width="50" height="50" relative="1" as="geometry">
            <mxPoint x="89.9" y="77" as="sourcePoint" />
            <mxPoint x="89.9" y="50" as="targetPoint" />
          </mxGeometry>
        </mxCell>
        <mxCell id="ejuhgeyHWz-k4nTtib_r-1" value="Usuários" style="sketch=0;outlineConnect=0;gradientColor=none;fontColor=#545B64;strokeColor=none;fillColor=#879196;dashed=0;verticalLabelPosition=bottom;verticalAlign=top;align=center;html=1;fontSize=12;fontStyle=0;aspect=fixed;shape=mxgraph.aws4.illustration_users;pointerEvents=1" parent="1" vertex="1">
          <mxGeometry x="124" y="280" width="80" height="80" as="geometry" />
        </mxCell>
        <mxCell id="ejuhgeyHWz-k4nTtib_r-3" value="AWS Cloud" style="points=[[0,0],[0.25,0],[0.5,0],[0.75,0],[1,0],[1,0.25],[1,0.5],[1,0.75],[1,1],[0.75,1],[0.5,1],[0.25,1],[0,1],[0,0.75],[0,0.5],[0,0.25]];outlineConnect=0;gradientColor=none;html=1;whiteSpace=wrap;fontSize=12;fontStyle=0;container=1;pointerEvents=0;collapsible=0;recursiveResize=0;shape=mxgraph.aws4.group;grIcon=mxgraph.aws4.group_aws_cloud;strokeColor=#232F3E;fillColor=none;verticalAlign=top;align=left;spacingLeft=30;fontColor=#232F3E;dashed=0;" parent="1" vertex="1">
          <mxGeometry x="530" y="200" width="460" height="274" as="geometry" />
        </mxCell>
        <mxCell id="uFBekcITJ7WLvXIk4Seb-42" value="EC2 auto-scaling" style="fillColor=none;strokeColor=#5A6C86;dashed=1;verticalAlign=top;fontStyle=0;fontColor=#5A6C86;whiteSpace=wrap;html=1;" parent="ejuhgeyHWz-k4nTtib_r-3" vertex="1">
          <mxGeometry x="114" y="56" width="160" height="150" as="geometry" />
        </mxCell>
        <mxCell id="uFBekcITJ7WLvXIk4Seb-41" value="" style="rounded=1;whiteSpace=wrap;html=1;arcSize=3;" parent="ejuhgeyHWz-k4nTtib_r-3" vertex="1">
          <mxGeometry x="135" y="94" width="127.5" height="97" as="geometry" />
        </mxCell>
        <mxCell id="uFBekcITJ7WLvXIk4Seb-40" value="" style="rounded=1;whiteSpace=wrap;html=1;arcSize=3;" parent="ejuhgeyHWz-k4nTtib_r-3" vertex="1">
          <mxGeometry x="131" y="90" width="127.5" height="97" as="geometry" />
        </mxCell>
        <mxCell id="ejuhgeyHWz-k4nTtib_r-6" value="S3" style="sketch=0;points=[[0,0,0],[0.25,0,0],[0.5,0,0],[0.75,0,0],[1,0,0],[0,1,0],[0.25,1,0],[0.5,1,0],[0.75,1,0],[1,1,0],[0,0.25,0],[0,0.5,0],[0,0.75,0],[1,0.25,0],[1,0.5,0],[1,0.75,0]];outlineConnect=0;fontColor=#232F3E;fillColor=#7AA116;strokeColor=#ffffff;dashed=0;verticalLabelPosition=bottom;verticalAlign=top;align=center;html=1;fontSize=12;fontStyle=0;aspect=fixed;shape=mxgraph.aws4.resourceIcon;resIcon=mxgraph.aws4.s3;" parent="ejuhgeyHWz-k4nTtib_r-3" vertex="1">
          <mxGeometry x="338.25" y="23" width="50" height="50" as="geometry" />
        </mxCell>
        <mxCell id="fsfbUrL5CFbAlfbQf_c5-4" style="edgeStyle=orthogonalEdgeStyle;rounded=0;orthogonalLoop=1;jettySize=auto;html=1;exitX=1;exitY=0.5;exitDx=0;exitDy=0;exitPerimeter=0;entryX=0;entryY=0.5;entryDx=0;entryDy=0;endArrow=none;endFill=0;" edge="1" parent="ejuhgeyHWz-k4nTtib_r-3" source="ejuhgeyHWz-k4nTtib_r-4" target="uFBekcITJ7WLvXIk4Seb-8">
          <mxGeometry relative="1" as="geometry" />
        </mxCell>
        <mxCell id="ejuhgeyHWz-k4nTtib_r-4" value="DynamoDB" style="sketch=0;points=[[0,0,0],[0.25,0,0],[0.5,0,0],[0.75,0,0],[1,0,0],[0,1,0],[0.25,1,0],[0.5,1,0],[0.75,1,0],[1,1,0],[0,0.25,0],[0,0.5,0],[0,0.75,0],[1,0.25,0],[1,0.5,0],[1,0.75,0]];outlineConnect=0;fontColor=#232F3E;fillColor=#C925D1;strokeColor=#ffffff;dashed=0;verticalLabelPosition=bottom;verticalAlign=top;align=center;html=1;fontSize=12;fontStyle=0;aspect=fixed;shape=mxgraph.aws4.resourceIcon;resIcon=mxgraph.aws4.dynamodb;" parent="ejuhgeyHWz-k4nTtib_r-3" vertex="1">
          <mxGeometry x="338.25" y="190" width="50" height="50" as="geometry" />
        </mxCell>
        <mxCell id="ejuhgeyHWz-k4nTtib_r-8" value="" style="rounded=1;whiteSpace=wrap;html=1;arcSize=3;" parent="ejuhgeyHWz-k4nTtib_r-3" vertex="1">
          <mxGeometry x="127" y="86" width="127.5" height="97" as="geometry" />
        </mxCell>
        <mxCell id="ejuhgeyHWz-k4nTtib_r-9" value="&lt;b&gt;&lt;font style=&quot;font-size: 16px;&quot;&gt;Aplicação Chatbot&lt;/font&gt;&lt;/b&gt;" style="text;html=1;align=center;verticalAlign=middle;whiteSpace=wrap;rounded=0;" parent="ejuhgeyHWz-k4nTtib_r-3" vertex="1">
          <mxGeometry x="128" y="114.5" width="126" height="40" as="geometry" />
        </mxCell>
        <mxCell id="uFBekcITJ7WLvXIk4Seb-5" value="" style="edgeStyle=orthogonalEdgeStyle;html=1;endArrow=block;elbow=vertical;startArrow=none;startFill=0;strokeColor=#545B64;rounded=0;entryX=0;entryY=0.5;entryDx=0;entryDy=0;endFill=1;exitX=1;exitY=0.5;exitDx=0;exitDy=0;entryPerimeter=0;" parent="ejuhgeyHWz-k4nTtib_r-3" source="ejuhgeyHWz-k4nTtib_r-8" target="ejuhgeyHWz-k4nTtib_r-6" edge="1">
          <mxGeometry width="100" relative="1" as="geometry">
            <mxPoint x="285.7" y="237" as="sourcePoint" />
            <mxPoint x="168.45" y="244" as="targetPoint" />
          </mxGeometry>
        </mxCell>
        <mxCell id="uFBekcITJ7WLvXIk4Seb-6" value="" style="edgeStyle=orthogonalEdgeStyle;html=1;endArrow=block;elbow=vertical;startArrow=none;startFill=0;strokeColor=#545B64;rounded=0;endFill=1;exitX=1;exitY=0.5;exitDx=0;exitDy=0;" parent="ejuhgeyHWz-k4nTtib_r-3" source="ejuhgeyHWz-k4nTtib_r-8" edge="1">
          <mxGeometry width="100" relative="1" as="geometry">
            <mxPoint x="264.25" y="137" as="sourcePoint" />
            <mxPoint x="338.25" y="134" as="targetPoint" />
          </mxGeometry>
        </mxCell>
        <mxCell id="uFBekcITJ7WLvXIk4Seb-7" value="" style="edgeStyle=orthogonalEdgeStyle;html=1;endArrow=block;elbow=vertical;startArrow=none;startFill=0;strokeColor=#545B64;rounded=0;endFill=1;exitX=1;exitY=0.5;exitDx=0;exitDy=0;entryX=0;entryY=0.5;entryDx=0;entryDy=0;entryPerimeter=0;" parent="ejuhgeyHWz-k4nTtib_r-3" source="ejuhgeyHWz-k4nTtib_r-8" target="ejuhgeyHWz-k4nTtib_r-4" edge="1">
          <mxGeometry width="100" relative="1" as="geometry">
            <mxPoint x="264.25" y="137" as="sourcePoint" />
            <mxPoint x="348.25" y="137" as="targetPoint" />
          </mxGeometry>
        </mxCell>
        <mxCell id="uFBekcITJ7WLvXIk4Seb-8" value="&lt;font style=&quot;font-size: 10px;&quot;&gt;Vectors&lt;/font&gt;" style="text;html=1;align=center;verticalAlign=middle;whiteSpace=wrap;rounded=1;strokeColor=#77767b;strokeWidth=1;fillColor=#E6E6E6;" parent="ejuhgeyHWz-k4nTtib_r-3" vertex="1">
          <mxGeometry x="398.5" y="199" width="50" height="32" as="geometry" />
        </mxCell>
        <mxCell id="uFBekcITJ7WLvXIk4Seb-9" value="&lt;font style=&quot;font-size: 10px;&quot;&gt;LLM Model&lt;/font&gt;" style="text;html=1;align=center;verticalAlign=middle;whiteSpace=wrap;rounded=1;strokeColor=#77767b;strokeWidth=1;fillColor=#E6E6E6;" parent="ejuhgeyHWz-k4nTtib_r-3" vertex="1">
          <mxGeometry x="401" y="118.5" width="45" height="32" as="geometry" />
        </mxCell>
        <mxCell id="uFBekcITJ7WLvXIk4Seb-34" value="&lt;p style=&quot;line-height: 90%;&quot;&gt;&lt;font color=&quot;#241f31&quot; style=&quot;font-size: 10px;&quot;&gt;API Gateway&lt;/font&gt;&lt;br&gt;&lt;/p&gt;" style="text;html=1;align=center;verticalAlign=middle;whiteSpace=wrap;rounded=0;" parent="ejuhgeyHWz-k4nTtib_r-3" vertex="1">
          <mxGeometry x="33" y="179" width="40" height="30" as="geometry" />
        </mxCell>
        <mxCell id="uFBekcITJ7WLvXIk4Seb-33" value="" style="sketch=0;points=[[0,0,0],[0.25,0,0],[0.5,0,0],[0.75,0,0],[1,0,0],[0,1,0],[0.25,1,0],[0.5,1,0],[0.75,1,0],[1,1,0],[0,0.25,0],[0,0.5,0],[0,0.75,0],[1,0.25,0],[1,0.5,0],[1,0.75,0]];outlineConnect=0;fontColor=#232F3E;fillColor=#E7157B;strokeColor=#ffffff;dashed=0;verticalLabelPosition=bottom;verticalAlign=top;align=center;html=1;fontSize=12;fontStyle=0;aspect=fixed;shape=mxgraph.aws4.resourceIcon;resIcon=mxgraph.aws4.api_gateway;" parent="ejuhgeyHWz-k4nTtib_r-3" vertex="1">
          <mxGeometry x="33" y="139.5" width="40" height="40" as="geometry" />
        </mxCell>
        <mxCell id="uFBekcITJ7WLvXIk4Seb-45" value="" style="edgeStyle=orthogonalEdgeStyle;html=1;endArrow=block;elbow=vertical;startArrow=none;startFill=0;strokeColor=#545B64;rounded=0;endFill=1;exitX=1;exitY=0.5;exitDx=0;exitDy=0;exitPerimeter=0;entryX=0.081;entryY=0.693;entryDx=0;entryDy=0;entryPerimeter=0;" parent="ejuhgeyHWz-k4nTtib_r-3" source="uFBekcITJ7WLvXIk4Seb-33" target="uFBekcITJ7WLvXIk4Seb-42" edge="1">
          <mxGeometry width="100" relative="1" as="geometry">
            <mxPoint x="86" y="187" as="sourcePoint" />
            <mxPoint x="127" y="158.5" as="targetPoint" />
          </mxGeometry>
        </mxCell>
        <mxCell id="nI8AgHkMesnjkUPYI1qy-2" value="" style="sketch=0;points=[[0,0,0],[0.25,0,0],[0.5,0,0],[0.75,0,0],[1,0,0],[0,1,0],[0.25,1,0],[0.5,1,0],[0.75,1,0],[1,1,0],[0,0.25,0],[0,0.5,0],[0,0.75,0],[1,0.25,0],[1,0.5,0],[1,0.75,0]];outlineConnect=0;fontColor=#232F3E;fillColor=#ED7100;strokeColor=#ffffff;dashed=0;verticalLabelPosition=bottom;verticalAlign=top;align=center;html=1;fontSize=12;fontStyle=0;aspect=fixed;shape=mxgraph.aws4.resourceIcon;resIcon=mxgraph.aws4.auto_scaling2;opacity=70;" parent="ejuhgeyHWz-k4nTtib_r-3" vertex="1">
          <mxGeometry x="114" y="56" width="16" height="16" as="geometry" />
        </mxCell>
        <mxCell id="fsfbUrL5CFbAlfbQf_c5-3" style="edgeStyle=orthogonalEdgeStyle;rounded=0;orthogonalLoop=1;jettySize=auto;html=1;exitX=1;exitY=0.5;exitDx=0;exitDy=0;exitPerimeter=0;entryX=0;entryY=0.5;entryDx=0;entryDy=0;endArrow=none;endFill=0;" edge="1" parent="ejuhgeyHWz-k4nTtib_r-3" source="fsfbUrL5CFbAlfbQf_c5-2" target="uFBekcITJ7WLvXIk4Seb-9">
          <mxGeometry relative="1" as="geometry" />
        </mxCell>
        <mxCell id="fsfbUrL5CFbAlfbQf_c5-2" value="SageMaker" style="sketch=0;points=[[0,0,0],[0.25,0,0],[0.5,0,0],[0.75,0,0],[1,0,0],[0,1,0],[0.25,1,0],[0.5,1,0],[0.75,1,0],[1,1,0],[0,0.25,0],[0,0.5,0],[0,0.75,0],[1,0.25,0],[1,0.5,0],[1,0.75,0]];outlineConnect=0;fontColor=#232F3E;fillColor=#01A88D;strokeColor=#ffffff;dashed=0;verticalLabelPosition=bottom;verticalAlign=top;align=center;html=1;fontSize=12;fontStyle=0;aspect=fixed;shape=mxgraph.aws4.resourceIcon;resIcon=mxgraph.aws4.sagemaker;" vertex="1" parent="ejuhgeyHWz-k4nTtib_r-3">
          <mxGeometry x="338.25" y="109.25" width="50.5" height="50.5" as="geometry" />
        </mxCell>
        <mxCell id="uFBekcITJ7WLvXIk4Seb-20" value="" style="group" parent="1" vertex="1" connectable="0">
          <mxGeometry x="235" y="241" width="97.93" height="140" as="geometry" />
        </mxCell>
        <mxCell id="uFBekcITJ7WLvXIk4Seb-15" value="" style="rounded=0;whiteSpace=wrap;html=1;strokeColor=#808080;" parent="uFBekcITJ7WLvXIk4Seb-20" vertex="1">
          <mxGeometry x="-1" y="18" width="97.93" height="117" as="geometry" />
        </mxCell>
        <mxCell id="uFBekcITJ7WLvXIk4Seb-18" value="" style="shape=image;verticalLabelPosition=bottom;labelBackgroundColor=default;verticalAlign=top;aspect=fixed;imageAspect=0;image=data:image/png,iVBORw0KGgoAAAANSUhEUgAAB4AAAAOgCAYAAADcQWvjAAAABGdBTUEAALGPC/xhBQAAACBjSFJNAAB6JgAAgIQAAPoAAACA6AAAdTAAAOpgAAA6mAAAF3CculE8AAE+MklEQVR42uzBgQAAAACAoP2pF6kCAAAAAAAAAAAAAAAAAAAAAAAAAAAAAAAAAAAAAAAAAAAAAAAAAAAAAAAAAAAAAAAAAAAAAAAAAAAAAAAAAAAAAAAAAAAAAAAAAAAAAAAAAAAAAAAAAAAAAAAAAAAAAAAAAAAAAAAAAAAAAAAAAAAAAAAAAAAAAAAAAAAAAAAAAAAAAAAAAAAAAAAAAAAAAAAAAAAAAAAAAAAAAAAAAAAAAAAAAAAAAAAAAAAAAAAAAAAAAAAAAAAAAAAAAAAAAAAAAAAAAAAAAAAAAAAAAAAAAAAAAAAAAAAAAAAAAAAAAAAAAAAAAAAAAAAAAAAAAAAAAAAAAAAAAAAAAAAAAAAAAAAAAAAAAAAAAAAAAAAAAAAAAAAAAAAAAAAAAAAAAAAAAABmDw4EAAAAAID8XxtBVVVVVVVVVVVVVVVVVVVVVVVVVVVVVVVVVVVVVVVVVVVVVVVVVVVVVVVVVVVVVVVVVVVVVVVVVVVVVVVVVVVVVVVVVVVVVVVVVVVVVVVVVVVVVVVVVVVVVVVVVVVVVVVVVVVVVVVVVVVVVVVVVVVVVVVVVVVVVVVVVVVVVVVVVVVVVVVVVVVVVVVVVVVVVVVVVVVVVVVVVVVVVVVVVVVVVVVVVVVVVVVVVVVVVVVVVVVVVVVVVVVVVVVVVVVVVVVVVVVVVVVVVVVVVVVVVVVVVVVVVVVVVVVVVVVVVVVVVVVVVVVVVVVVVVVVVVVVVVVVVVVVVVVVVVVVVVVVVVVVVVVVVVVVVVVVVVVVVVVVVVVVVVVVVVVVVVVVVVVVVVVVVVWFPTgQAAAAAADyf20EVVVVVVVVVVVVVVVVVVVVVVVVVVVVVVVVVVVVVVVVVVVVVVVVVVVVVVVVVVVVVVVVVVVVVVVVVVVVVVVVVVVVVVVVVVVVVVVVVVVVVVVVVVVVVVVVVVVVVVVVVVVVVVVVVVVVVVVVVVVVVVVVVVVVVVVVVVVVVVVVVVVVVVVVVVVVVVVVVVVVVVVVVVVVVVVVVVVVVVVVVVVVVVVVVVVVVVVVVVVVVVVVVVVVVVVVVVVVVVVVVVVVVVVVVVVVVVVVVVVVVVVVVVVVVVVVVVVVVVVVVVVVVVVVVVVVVVVVVVVVVVVVVVVVVVVVVVVVVVVVVVVVVVVVVVVVVVVVVVVVVVVVVVVVVVVVVVVVVVVVVVVVVVVVVVVVVVVVVVVVVVVVVVUV9uGYBgAQBgBYuHCAAwI2EIJADjzOwe4dbVIAAAAAAAAAAAAAAAAAAAAAAAAAAAAAAAAAAAAAAAAAAAAAAAAAAAAAAAAAAAAAAAAAAAAAAAAAAAAAAAAAAAAAAAAAAAAAAAAAAAAAAAAAAAAAAAAAAAAAAAAAAAAAAAAAAAAAAAAAAAAAAAAAAAAAAAAAAAAAAAAAAAAAAAAAAAAAAAAAAAAAAAAAAAAAAAAAAAAAAAAAAAAAAAAAAAAAAAAAAAAAAAAAAAAAAAAAAAAAAAAAAAAAAAAAAAAAAAAAAAAAAAAAAAAAAAAAAAAAAAAAAAAAAAAAAAAAAAAAAAAAAAAAAAAAAAAAAAAAAAAAAAAAAAAAAAAAAACAksadbf/Ts+sFe3cfJEV5J3B8QMQ3FI0K+IIvu7DssjPdz9OnIioCC+zOTL89HfUuXlK+JuZi4nl33j9eGVOJUZOTu0iiJiRKEl8uiVeFhou8KbDL4r7N7szsvPbKgfElJl6prPiChpe77skWIZeYoLXC7O73U/Wt5h+K4p/u39M9/fSCiREAAAAAAAAAAAAAwMGZOO2EcTN+cPGRM384b2JYbHPipNiWxBn7a4vXR1vj51faFD8v1paYI9L2ZSLr/G3QlftL29fpPebXgu4M+vpfSuac+2RJ/VQWP6CS+pksuI/qKesbenf4d4iIRk136inrVpG1h86jB2ZfqXUmF4bn2/C8O5QRnJvP2X9ebk+c3rBq0bEzHrqkct6uvX/uhAgAAAAOuXO/NWdCOI/V/cf8icGcdsrQvHZmsI5u3L+Gbk/MFRn7ij9YQ2fsz+gp61/2r58/encG3SHS9vV/MFNm7E/Fnk3OO2CmNGLtibP2z5JPNh0zM5glax9gjgQAAACAqjfr8QVHNq5bMqlxXfPJQdOjG1vO1vus84Pm6T1Ws9aRvCboOj1l/b0suN+slHfvFRn7SZG2V4fJktpi+KrfKAcFR1lSL8iiOxi0Y6hBw/d2GQPe+wf0XtBuw/f+96Ab+BD5RESjrIFK7/+pZEntlIXwfLu/142yKofn5EpllRVZ5+mh8/YakbEfl3l3qSy4/xoc79K6zb/TOpLXa53J8Mbiwso1oNfSG59unt64vvnM4PpwYnCtOL7usflHRgAAAPBHZq9efHQwM00OOjPaGp+h91oX6ylrUTBfXaV1mTeInHNHOHuJrPPo0Dy2xiirLsNXueCYkyX1qwPW0YOVNfOB6+fKcVhny93//9+QJfXm0Ew5GPSaUVbFoVkyI7LO+v1zZMG9Z2iG/EI4QwZHS++zLom1J+rD/3/QSY1rl0yacs2scREAAAAAwPCaueKSIxv+a/HxWpc5XetIarHNiYV6yvprkXNu1PvsrwV//q7Mu48ZZbVGFt1nZc7ZJvPudsP3XjUGvNeD45tGWe0N2ve7BSIREY3KfLXPKFcKbwTu+N01QL0i8+62oK2yqDbKklojsk64y8IDetr+qsg5XxAZ+/Lg2tKkdSRjWpd5TnCj74S6Ry6dOOXqOm72AQCAUaNm2YVHBD+ePibWnjhV6zLrguPFeq/liJzz+XAu0vus78mSWhm0Uebd52TBfcHwvdeCBo2y2hO0r2rnwOGYIX3v7XB+lAX3RZlz/lsW3TZZUk/pafshvddaKvqdm0Ta/mSsPXGp1plsCGbHafUrm44L7lnw40IAAAAA+HOizzRPira21Iq0vUDvsa4XOefrsuD+WPQ77UZZFYNeliX1TnAMf9m7t2oXkERENFLaa/je+0PXlpcMX5VFzumQefcnwfFerdu8We+z7FhbPBpco045957zjogAAABUsfAt3ujGlilBDXqvtUTvsa4NjrfLgrtc9Durg2Pa8L1tsqR2GGUVvj27p0rntCqcG1Vl15rg+LwsVXan2SQL7o/CH6dr3eYNwTERaw3mxg3N0xqfXnJsBAAAAADGmpkPXjQhtjk+VetKnq+nrGtF1v53WVLrZNHdZvjeYNDuKl30ERHRWMmv9LYsuq8EdYmM/ajod27ROpOJWHuipmHlQm7sAQCAwyKcQ4KHvFP1HlPXOpKWyDlfEhn72zLvrjLKqkcW3F8ZvrczaDe7YR2SmXFP0Fuy4P5GllRaFt3wsyXfkznnH7WupNK7zb+KbY6H3yGeNO2z7DQDAAAAYJSo+fYFR8Ta4uHidK5I21+UBXeFLLppw1evBvGLYyIiGjmVVfhQeKssuKtEv3O3SNuXxbYk6oO3hI+LAAAADKOp18wY37huyfGx1nid3mNeKtLW5/Re6x5ZcJ+UeTdn+N7LRlm9awx4o3OL5pHfvsqb1r73a1lwi0FrZM65X++zbtJ7zGSsNd4QzJAnnXWbzk4zAAAAAEaG2b9YdLzWmTT0HvM60e+skCXVZ5TVG2zfTEREoyrf22WU1QuyUHnT48t6t9kSa4ufUXvfHG7kAQCAD7uFc/iwd0Y4T+gp6ybR7ywXOWeTLKntRlntNAbYLWuUtNcoq3dkSb0o8+4W0e/8UO+zbtG6TSvWnqhvXLP4E+fcbYyPAAAAAMDhNuXKmnHRTS1T9V5rgUjbX5E5Z70sqVcMX7FAJSKisZOvdsqiWxBZ+/siY1+ldSZnNTy58KgIAADAAeoevmRi+KOxYFa4SPQ714uMvUwW3fWy4D4fzhNBvNU7lvr950deDNoiMvaDImvfqHeb82Pt8bNn/Wz+0REAAAAAOETGRTc0T9O7TUtk7Xtlwe01fLWjahdUREREh7bdRlltk3n3P/U+62bt2YScvaqJbwcDADAGzV6zeFJsc7xG77USIuvcJvPOT2XBzRtl9box4PFpJPqgN4UHZdEty5zzhMg5d+i9lqdtSdQFW4NPjgAAAADAcIq1tpykp8wmkak89E2H30Os0sUSERFRdeR7e8OdMWTeWSky9rVaV3JW3aPzjowAAIBRqWFV0yTt2US91mVeJjL23TLvrJMltdXwvbeqdl6hkdC7sqSelwV3Y3hPRu8xP611JLXZTy3igTAAAACAD6/h500Tw0WFyDm3yqK72fDVG1W6GCIiIqr2wjeDt4uss0JPmZfHNiemRAAAwIgWrJmPCq7p5+p9Vlxk7K/KvLteFtUvjbJ6r0rnERoN+eq3sqRelnm3TWTsb+l91mWx9sobwuw6AwAAAOCDBQuHU/WU5cq8+7BRVi8YAx7fISIiIhqu/MpbHJ0iY39Z6zH1+pUL+F4wAAAjwNnfNMY3Pt18qtZtXqz3Wv8k8+7jRlkNGL7HDll0+PK9XUZZbZd5d43eZ92udZuLohtbTpv5yLwJEQAAAABj27Qb68bFtiTq9F7rFllUnWxRRURE9LG3z/C9l0TOeUzrMs1oa/zECAAAqCp1P7n06GhbfJbeZ18u8+53ZVGljLL3muFX7XxBYzm/0qAsqn6Zd3+s91mfi7UntPonFh4XAQAAADB21P5g7gStI3mBzLt3ybJ6LvxeYdUuZIiIiEZrZfWWLKm1etq+Krqh5bQIAAA4bGavXjxZ60jOERn7ZpFznpBFtd3wPbZ1ppGX7+0Jt4sWOWetyDi3aZ3JRbPXLTklAgAAAGB0mvHgReGD37ki6yyXJfXrql2sEBERjaV8731ZcHv0XuuL0Y0tp0cAAMAhEW2Nn6KnrMUi49wlcm6rLKn/MQb4gTSNsspqUObdLpGx79X7bCfWnji95r4L2CoaAAAAGOlq7p9zRKwjeSEPfomIiKo439v9+wfBvBEMAMBwO+0f6scH19gztW7zkyLr/NvQp5AGq3Y2IBrufO9tWVJZ0e88qPWYn4luaqmtXT6Xh8EAAADASHKsOHGc3mM1iJyzVJbUb6p2AUJERER//CA4bV8dbYtPjgAAgI9s2pdmjY9uCB76dpmeyDgPyIKbM8reu1U7BxAdyl1oiuo5kXV+pPWYn462xmtqv8/DYAAAAKCqRTe2TBdZ5yuG722t2sUGERER/bnekSW1VmQdr+HnTcdEAADAQYu2VbZ3bhZZ5zuy4OYN33unSq/3RNXyMHggfBisp6xPxdoTp0397IzxEQAAAADVIbqh5USRda6SRTdl+N6+ql1cEBER0cHle2+KnPuInrLOO3bG5HERAADwJzWuWzJZ77UWipxztyyqrvAaWrXXd6Jqzfd2VbaJzrnL9D7bjG6KnxoBAAAAcHjUPTJvgp6y5ouc+wtjwNtVtQsJIiIi+kjJsnpJZOzbtY7kGREAAFBRv7LpaK3T1PQ++1aZdzcYvvdGtV7LiUZgO2XB7dDT9p1at3nh7DVLJkUAAAAAHBpap3mWyDrfMHzv1SpdMBAREdHwtEcWVZeesv6m8ZkWtoUGAIxJJ1tnjYttTkzXe6yrRb/zuFFWLxsD7IBF9LHme6+KnPuUnrJujG1JzKx7eB7fCwYAAAA+Do1rlxwlss4VRln1stglIiIaQ/neTllUy7VusyECAMAYMXv14hO0LnOhyDpLZVllDd/7bdVeq4lGa763R5bVVtHvrNC6TTP6TMvJEQAAAADDQ++xamXB/Y4x4A1W7aKAiIiIPtZkSQ2ItH1DcEOc7fgAAKPSlCtrxkdb47V6n/15kXPXGr63o1qvy0RjLt97S+bddj1t/3NsS6KxZtkc3goGAAAAPoqGJ5omin7nCllWvVW7ACAiIqJDl++9Jwvuw1q3WRcBAGCUCH/cpHUkF4p+Z5ksun74GYSqvRYT0T5ZVL8UOechrcu0Gtc1fyICAAAA4OBEW+NnyJJaavi89Uv0f+zd+49cZRnA8Xfb7lottkWMQG3T7qbbbndnzjnvsbQrtEhhd7u7M+ec903xllijwagJJFr8QYyBGInyA5e1LRQ0SAKVVm7aILCILe22C3u/zO6cOWcWNYpcNBTohtBCbzG2wQDh0ste3pn9fpLvvzDPkzx55xAR0fuKVMbp975asbmWlxcAgIJldTTPt3vT35Kh+pOM1GvGzl0i+uAi9YYMg3a7z9tgdaYWn79+cYkAAAAA8MHs3vRqGao2Yxd8IiIimvwidcAZ8m9JtjddKAAAKBBLH7msNNneZDkD/s/dSPW7sX7b2FlLRKfaUTfWsZPxW5LPNK2ubq37lAAAAABwUtWOy2c6Gf97MqeeN3ShJyIiIrM67kbqSasnvUIAAGCwqj+smWV1pppkNrhbRuqfhs5VIjrLZKT2y1A9aHWnvlz95/rzBAAAADCVWZ2p+U7G3+LG+k1Tl3giIiIytEg9J4eDb1bev7pMAABgkMSexs/Z/d43nIz/qIzUqLGzlIjGtlgdlDnV5gz5VyfbmxYIAAAAYKqx+73lMgx2Gbu0ExERkfnF+g1n0Pul1ZWaKwAAmGSJPWsX2r3pDTIMuty8PmTs/CSi8e6wzKkhu8/7WWJvY1XFltrpAgAAAChqJaLEHvCudPM6NnRJJyIiosLqqAzVA4m2xkoBAMAE+0TV7BKrO7VMDgc3ypwadmN91NB5SUQT33EZqb/KbLDR7kkvr9x2Kf9cAwAAgOJjdaVmOgPeD2WkXjF0MSciIqICTeZUpzMUXCwAAJgAFXfVzki2N9U6Gb/FjfWIqfORiAwp1i84Gf++ZEdz/dIHvzRTAAAAAMWgZmfDeTIb3Obm9UFjl3EiIiIq7CL1N7snvW7WFz9bIgAAGAfld6w8efgd9O6SOfWysTORiIxMRuo1J+Nv/98heMkDHIIBAABQwJLtTQucjH+vm9fHTF3AiYiIqEiK9b9lpK5O7GviW2sAgDFTcfsKDr9ENPaH4JMvgj8pAAAAgEIis0GFG+tWUxduIiIiKspGZaQ2VD9RN0sAAHAWylsumpHc17TSGfDu5PBLRONxCJbZ4CG7O+VV3reKF8EAAAAwn9WZWuHGerepSzYREREVdYecjL+x+om62QIAgNNUsenE4beWwy8RTdAh+IAz6G9LPttct2T7pRyCAQAAYCaro3mVDNWwqYs1ERERTYFifcTJ+Js4AgMATlXFlpWl73rx+5KxM46IijIZqdfeOQQv/T2HYAAAABjE6mi+RIYqa+oyTURERFOqI86gv2nZY1dwBAYAfJQSqzO1zBn0N/Lil4gMOQRvtzqa11RsXjFdAAAAAJPn5Mtfjr9ERERk3EvgIf9eJ+NfIAAAeB+rK7XUGQ5udCM1YuwsI6KpWaReltlgk92TXl6+8SIOwQAAAHgvjr9EREQ01ZPZ4M7qx3kJDAA4qWZnw3y7N73BjVRo6uwiIjpRrP9l93s3JXavXSIAAACAk/jbZyIiIqL/fxP4cb4JDABTWWL32nOdQW+9DINON9ZHjZ1bRETv7bgMg7wz6G1ItjfNEwAAAMB4srpTy2VODRu6HBMRERG9qxNH4I0cgQFg6ql66LKZ1rPNKWc4aHXz+pChc4qI6OM6IiPVafd765c9yr/bAAAAYBzIMCh38/ppQxdiIiIiog87ArfUPFk/UwAAit6sxXNK7L70CpkNfutG6oChs4mI6PSK9UGZDR6x+726JVtXlwoAAABgjI6/C928bjV2ESYiIiL68A66sf6B1dk8QwAAilbymeZFTr/3CzfWzxs6j4iIzrZXnEF/i9XRXCOEKBEAAADAmap5qv4zMlRbDV18iYiIiD6+ET0qQ3WVAAAUnerW+jlWV+oqmVP9bl4fN3YWERGNVbEacYaDnyR2rT1fAAAAAKfL6mguk2Fws5vXx4xdeomIiIhOIRmpl+zetC8AAEVhwXXWdLvfu0KG6lE31m+ZOn+IiMapozKn2pxBf93SbZfyuRMAAACcmsW/uXiaG+sfuSP6oKGLLhEREdHplpU55QoAQEGzulKVcji41Y3UfwydN0REE1OsR2U2uMfuTbPjAgAA4OPZ/d7X3FjvN3bBJSIiIjqTIrU7ua9pkQAAFJyqh9d82u5LXyVzatjYOUNENAnJSP3dyfg/tjqaLxQAAADAB5FhsNLN6+dMXWqJiIiIziYZqa1ONpgtAACFosTqTq2Sw8FDbqwOmTpfiIgM+FvoXXZvOlW+eUWpAAAAAN5h9aTnyZx62tBFloiIiGgsOiqHg+vn32BNEwAAo1W31l1gD3g/lZF60R0xdq4QERmTjNTrzpDfYvWklggAAAAg0dY4y431r01dYImIiIjGsFdlGCgBADBSxV21pfaAl5JhsMeN9TFDZwkRkbHJSA3aA963q3asOUcAAABg6pJhcI2b12+ZurgSERERjWUyp3J2X9oWAACjJPasLXcy/mY3Vq+aOkOIiAqiWB9yhv1tyX1NlgAAAMDU4wx6a9y8fsHYhZWIiIhoHJKReqRmV8NcAQCYdJW/W11mdafWyTDoNXVuEBEVYjKnRqye1DU1f2k4VwAAAGBqSD7bPM+NVZupSyoRERHROHZERuqGijtW8j1gAJhEib2NFc6gv9mN9aih84KIqLCL9dsyp3ZYPenaaXNmlAgAAAAUr8TexlKZUy3GLqdERERE412s9zvDQaMAAEy4yq2ryqye1JW8+iUimqBi/Q9nyL82sbeR18AAAADFSobBOjevXzd2KSUiIiKamLrsAW+RAABMmERbY7kz6N/uxopXv0REE9thmVN/dAY8KQAAAFBc7D5viRurrKGLKBEREdHEFqlfVbfWlwoAwLiqvGdVmd2d5lu/REQGfBvY7k1/t2rH5ecIAAAAFL6anQ0zZU7dbeoCSkRERDQJHZBhoAUAYNwk9zbOc4b8W92IV79EREYU60POkH9/8pmmGgEAAIDCJkP1FTev3zR2+SQiIiKajGLd7Qz5/BU0AIwDqztVLyPV5ub1MWPnABHRFE1GasgZ8L5es7OhTAAAAKDwOAPeQjfW3aYunERERESTmQzVLQtv+sI0AQAYEzVPNcx1BrzrZE69ZOpvPxERnWhUZoOWmp1rFwgAAAAUDqsnPd2N1W2GLplEREREk1+s98tscIUAAJy15N4mS4bqYTevDxv7u09ERO9J5lSb3eddvuB6u0QAAADAfDIbXObm9SumLphERERERhTrJ50h/1wBADgj1U/Uldl93noZqpyxv/VERPRRvegM+tfWPNUwWwAAAMBcMhvMcWP9mKFLJREREZFJHZaR+r4AAJzJXz5/XmaDm928HjX0N56IiE6tt2QYbE/sbqwSAAAAMJPMqe+4ef22oQslERERkVnFOpKhWioAAKfM6khdInPqaWN/24mI6LSTOTVg96S9uan50wQAAADMYXenF7mRypi6SBIR0X/Zu/9Xu+s6gOOfzZxpoqJOyohNN9Rt7p7P570Ry2Lirk2v995zPu8gwSAoofo5qh9sCPlDVKMgxb5YoYQsGphhfiu/pKLG3ea+3G/nfM6hxJD8gqG5aWrqaC2IwlpTd+/e53MeT3hw/4MXL+7nvN9vIElV/NY5W9Yfk0mSDtnyGz/63nxP83NFu3wi2ZkOwDvXKZ/Lp5pfXfGr4ZMzSZIkpVGo4tXJLpAAAKmq4jP5VGtdJkk6xKnfy84oplrfDVV8Odl5DsCR8LdiqvXzoYlRV0JLkiQd7fLJZiN04x8SXRwBAJJWzJZbVj80cnwmSXpL+e7mmmK2vDv04pupznEAjqDewf14d75rfOT4/NQFmSRJkua/JZvXLiza5bXJLo0AAOnbGzpxJJMk/asl31xzzNC20StCFXuJzm4A5tZT+Z7mF4cmRt+XSZIkaX7LJ5tFqOKfEl0UAQD6xS35ZNMpYEk60Irbh08pplrXhE58IdGZDcB86MVXinb5w1X3bvxQJkmSpPlp1T0bFxWz5Y+TXRIBAPrHi8Vs2cwkacBr7BxfVrTLLaEbX090XgMw/0+mPJDvGv9wJkmSpLkvdMr1oRufT3U5BADoK53yvqGJ0ZMzSRrQGjvGPla0y0dDL9E5DcDRexe4Xf6+sX308vN+edHCTJIkSXPT8p9csDB0yuuTXQwBAPrPvtApL8skacBa+p21x+Z7mp8O3fh4ovMZgDT8OZ9sbjp364XeBZYkSZqL8ilv/wIAzIFb8j3NEzJJGpAaj42dWMyWXwtV/EuicxmAlFTx1WK2/EHjsbEzM0mSJB25ln1/3cKiXV6X7CIIANC/Xgyd8pJMkgagVfd8fEkx07op9OJric5kAFLUi/uL2fI35z946VAmSZKkI1Mx3TovVPGJZJdAAIB+VsUbV/764vdkklTj8slmKGbLB5KdxQAkr2iXk8V06+JMkiRJ775Qxa+kuvgBANTA08VsmWeSVNOGJkZHQqdsh16ycxiAflHFJxvbx65cunmNH1BKkiS9i/eZ3h+quD3ZpQ8AoA6qeE0mSTXrnJ+tPyZ0ys+GKj6Z7PwFoP90yhdDu9y0+qFLT8gkSZL09iva5eWh630mAIA5VcU9jV3jH8wkqSads2X9Cflkc1PoxeeTnb0A9K9efCWfat6w8o7hxZkkSZIOv/N/e8lxoSq3JrvoAQDUx2uhU16RSVINKqZbi4uZ1rWhiq8mOnMBqIc3i+nWrcVU6+xMkiRJh1cxW4bQjU8nuuABANRLp/zF6odHjs8kqY8bevSypaEbbw69uD/ZeQtAffQO/r1/aNvo2kySJEn/v1DFq5Jd7gAA6ufZolP6x5Wkvu3AW4znFzOtBxOdsQDUWNEuZ1Y/MrIhkyRJ0v+usXP81FDF36W61AEA1FIVr84kqQ8LVVwfqnJnsvMVgPrrlH884JOZJEmS/nvFTGtD6MZ9yS50AAB1VMWJf/wQL5OkPunEcNqCYrq1MfRiJ9nZCsDg6MWniunWlctvuGBRJkmSpP8sdMprk13kAADqa18x03J1naR+aUFjx9hnQhWfSnSmAjCIqrg33zV+1bLvrfMRWJIk6d9O/34gdONkskscAECNFZ3yG5kkJd65Wy9c1Ng++vnQKZ9LdZ4CMMCq+FI+2bwm3z1+UiZJkqSDp3/HQzf+NdkFDgCgzqq4rbFz/LRMkhJtaNvoolDFTQe8lOwsBYBefP2A6/PJ5smZJEnSILd089oFoYrXJbu4AQDU317XQEtKtaFto8eFbtwUen40DEBfeCP04vVDE6N+YClJkga3olOeEbpxd6ILGwDAQCjaroGWlF4r7hw+vZhtbQ69+HKq8xMA3qIX3yhmWreuum/j2ZkkSdIgVsy0LgrduDfZhQ0AYBBUcSLf7RpoSem04o7h0/PJ5k2hG99MdnYCwCEU0627V93vI7AkSRrAinb59VSXNACAAfJC0SnXZZKUQCvvvNjHXwBqoZhu3eUksCRJGqjy3eMnhSo+mOqCBgAwUDrllzJJOmTzevJ3f7LzEgDe7kng+zaelUmSJA1CoYpF6MZnU13OAAAGSlXe1tgxdlwmSUepla59BqCmipnWPflUM88kSZLqXjHT+oJfdQMAJOPx0CldTyfpqLTitg2LnfwFoNZ6cWfolGsySZKkurb8Rx9ZGKr402QXMgCAwfN6MdP6RCZJ81w+2VxSTDVvdfIXgNr750fgtZkkSVIdy6eaZ4YqziS7jAEADKJO+e1MkuaxFbcPn17MtG4OvUTnIgD4CCxJknR4hU55UejGfckuYgAAg+mR0ClPySRpXj7+bvDmLwCDyXXQkiSpjoUqfjnZBQwAYHA9U7TLoUyS5riVtw/7+AvAYKviw6sfHlmWSZIk1aHQi8eGbtya7PIFADC43ghV/FQmSfPz8Xd/orMQAOZFMd26a9W9G8/KJEmS+r3GjrHFoYqTqS5eAAB/Z+/eg6Oq7gCOX1/Y0Y52rP6nHaettSIke69CsYLVIkUe2b0HRAs+QIUidLQyYq04PqsIrbYUleKLSvFVLYNVRK1agbZBIxLIQnbvzQsSkpCEPAjZvPbx63JJUmSkBSTJ2d3vZ+c74wyDMAxz5jg/f2czObPQXmAAQC+5gM1fIiKig4fA7174IUNgAACQ4sxC+xLLUY26XrqIKP0zHdvL5xWQ7PC+/JKVbHA4pzvvxw7+uUOciTLUvfqwu8iZIOYXfm114K/j/XN2Vz4n4NX1+9P2z4+I0ryw+mjwv8acagDAMXbBaoa/REREbAIDAIC0ZG4LzOSpLyLqxbqGuz1D3QOHrN6PXVo0WS4ruk5Gl9wiY0tmyPU77pJbKx6Qn+98WB6sflIe2bXE6/n6N+S1xnfk1f15//yPvZ/IJ5HNh9WGlnxZ1fRB8ueu7vl3vNLwtjxe+0LPrzG3cqHMrLhfZpTfJ3bpbBlTMl1+XDxVRhRNkaHupJ7fd9YB9QyJNf3zJ6IUL6zKzG0230UG4JganDv2ZHNrYDH/LUhERHToIfCgj0efYwAAAKQiK6yW6HrRIqLUqWfIm6x7o9Z0bG/rdnjRFMkpvVWm7LhTZlU8IPdVL5JFtcu94evqPR9LXqRANreGpKKzWqo766Qxtkda4q0SibdJIvnpSx2JTmmJR2RvsppovVR31kq4vVQ2tm71hs0rm96Xpbtfk4U1z8ntOx+RW8rnycSy22Rk8VQZ5l7jbRjvHwzndG8Rsz1MRF+1VitkjzYA4BjJ+nTcAMtV85K1anruERER6VFYveAr8J9uAAAApBLLUaclW6vtJYuItB327h/05vRs8f7Q/am3LXvN9jtkTuVj3lbtioa/yQfN/5ZgmyvlndXSEGvyBqyxRExSXSL56UxEvUH1rmiduO3bZUNks7dhvKTuFbm/+g/eJnGgdLZcUXyjXOxMEN/+4TiDYSI6muYaAHAM+IJ+hr9ERESHm6uiyZ5iCAwAAFKKuS3wXctRFdpesohIo2Gv3+tiZ6L8qOh6mVT2C7lj56PyRO0yebPpQ/k0skW2d1RKY6xZ2hMdkumiiZhE4q1SE90tW9tc+XBvrrxYv0oeqn5Kbim/V8aXzvSevjYd+8BtYW3/HhBRPxdWy7Lyxh1vAMBX5Cvwz2b4S0REdAS5KmY5atHA90Z9zQAAAEgFlqt+YjmqRdsLFhH1z8C36wljy1He882Tym6XOZXz5am6l+SdPWtlW1uR1EbrvW1eHJl48tMcb5Gdnbvks0hQXm9c4z0nPb383n0b1N4z0r7uoTBbwkT033LNQputAwBH7fSrzj4+K2/cNCtk12p6zhEREelbWLVlf55zz7eXDBtgAAAA6M4stGdre7Eior4a+HZv93rfX3tl8TS5uXyezK9ZKiub/i75rYVSF21g2Nu7z0l7T0mXdVRIbku+LKtfKfOqfuc9pz2i6LoDno5mIEyUwVWYIft8AwCOUnZ+zgQrZNdpesYRERHpX1hFsjflzD31B2ceZwAAAOjMCtlPaHupIqJe3PAN9DznPKr4Jrm14gFZXLdC1jSvE7e9zNtQTSQ/6DfeE9K7ow2yqbVQXm1cLfdW/16u3X6Ht5HtDe15Mpoo02qxXDXSAICjYIXtyyxXOZqeb0RERKmTq+osR00yAAAAdHVR8YQTLEe9oe2FioiOVd0bpN7g8PLiG2TKjjtlQc2z3nPObvt2icTbBHrbNxCu6xoIv9K4Wu6pekL8pbNkqDvJe7I7GdvBRGmeuc2+0QCAI5T92fgsy1FbdD3biIiIUi5XVfoK/GMMAAAAHWXljj3NCtm52l6miOioM5N1b/kOcSbKmJIZMrdyoTc4DLa50hjbw4ZviosmolLVWStr9+bJorrlclP5PXJF8Q1sBxOlcyH7PgMAjsCgtVedb24NrNP2XCMiIkrRzG32tsH/HDPcAAAA0I0Vtr9lOSqs60WKiI68bCfgbYIOc6/xngt+ZNcf5d3m9bKjo4rv8E1ze2J7pbC9WF5ueMsb9o8tmeF9p7M3DGYzmChdWmoAwGEyg4GzrLC9UtPzjIiIKPUL2RvNYOA8AwAAQCeWo7KS7db2EkVER7Lp2zP0/U3N87K+5TPvueB48oPMs2/YX9axU1Y1fSC/rPqtjPGGwYrNYKJUL2y/NfCdkScaAPB/DHx/1NctRz1vuSqh7ZlGRESUDrnqXTMYOMcAAADQhVloj7AcFdH2AkVEh8znHHLoy9POOIxh8ATJ4juDiVKvsPrEV+D/pgEA/8P3XhoxwJef86gVVp3anmdERERplBkMLL/g7ZFnGAAAADqwHDU5WVTXyxMRfTFf13e7DnEnSqB0tjxW8wxDXxz1MHhO5XwZWTzN+3uVzTCYKFUKJTvbAIBDyN447jgrrKZbjmrR9BwjIiJKx+JmyJ5vBv0DDAAAgP5mOeo2y+FJMCKdM/cP57yN31ElN3nf7bpmzzqp7KzheWd8JW2Jdgm3l8qf6lfKzeXz5NKiyTwRTaR/dVZYfd8AgEPI/nx8wHJUraZnGBERUfrmqohvi3+WYRjHGQAAAP3JctRj2l6aiDK87m3fS9xrZeqOu+W5+tcl1F7ibXACx1pTbK9siOTLwprnJFA2WyxHsRVMpGNhtddX4L/cAIAv4dvsH2KGbEfbM4yIiCjdC9m12ZtyJhoAAAD9yQqrJ7W9MBFlaN3bvmNKpsv91YtlfctGaYo1C9AXEslPRecu+WvTezKr4kEZXjRFstkKJtKptmS2AQAHycobd67lqvWanl1ERESZk6vCZsgeZgAAAPQHy51wsuWoldpelogyKLNr23eoe7XcsOMueXb3X6Sko1yiiZgA/aUl3iobW4OyoOZZGVf6s67nyBkEE/Vz8WQ3GwBwgEFrrzrDDAZe0/TcIiIiyrjMQnt9Vu7Ycw0AAIC+ZjnqlGRrdL0oEWVCPm+g5ve2LOdUzpc1zeukPtYkgE5iibiUdFTIiw2r5Lodc2WoezXPQxP1b3cbANDlwvdHDbAcNd9yVVzTM4uIiCgzc9VLvvycbxgAAAB9yXLUGcmC2l6SiNI4nxPwurJ4mjy862nJixRIa7xNAN3VRRu8/1Hhtp2/luFFkyWLQTBR3xe2HzIAoEv2ppxZlqOatT2ziIiIMre4b4t//nkvDj/JAAAA6CtmMHCW5aiQphckorQsu+t7VO2y2bK4boWE20ulMxEVINVE4m2SG8mXX1U9LiOLp0m2E2AQTNR3LbOKJpxgAMh4ZsgeZbmqUtOzioiIiBzVbIXVVAMAAKCv+Ar8g6ywqtL0ckSUVnUPxyZtv13+3PCm7OzcJYnkB0h1nYlOCba5Mr9mqbfRnh32i8/he4KJerkVyU40AGS0rA1jB5qF9mZNzykiIiLqLmSXZ+WNu9wAAADoC5arLrIcVavt5YgoDTpw8Lu8YZVUR2sFSEfRRKxrEPyMjC2dIT4nwCCYqPdam+wUA0DGysobf6blqlWanlFERER0cK7a4Nvs/44BAADQ2yxHXZZsj7YXI6IUbv/gV/UMfqsY/CJDxBIxKekol6d3vyzjS2fyNDRR75SX7FQDQEa68KPRJ5nBwALLUQlNzygiIiL6ksxg4PVB/2HvfkOrKuMAjj8VIb7oRbSgN0lvCmm1e85JUZkRQQ5l7p5zzKYrCBarzKCMMEpi/aEw1h8oKHD0Qqo3FVQvloh7oYRCluD+uO2cc93dXDUdzM3N6e7u5v11PBuzRUu3e697vPt+4Mve3cte3IeH+7vPc37ZcLsCAADI8wB4E18aEHHiF8iXRKp75tXQDIKJclWT0WLfoQAsSma7U20F7rCm6xMRERHNVuBOWJ5bu+xd8xYFAACQL5bnbmYATJSbjMnBLyd+gVmuhn7/yiCYE8FE2Xcq7D4FYNEx25w1lud2abo2ERER0dXy3EGjxa5SAAAAeRwAv6TtZojoBsn0nWj4W558LrrytjfN4BeY7Wro5lFPXu/9SEoTVQyCibKrJ2y5ArCohFdGLrM897Cm6xIRERFde0HJr+WmAgAAyNMV0G9pugki0j7Td6IB1qMnn5a6vi/l5FiPZCQjAP5fKjMmh0eOyQt/vC2rgick5tnafs6JNK4vzFAAFo3ixrKllufWa7omERER0dzbZ7TadykAAIA8DIBrNd0AEWldzItLaWKr7Oytk+MX26OTjQDmZvjSiDQMHZKnTr06dY06g2CiOZQOe0wBWDSMFvtFy3dHNV2TiIiIaO5lzDbn0/v3r1uiAAAAcjwA/kLTDRCRts/5vfz3mZ5d0nj+iIxmUgIgO33j/VJ/9lvZmHyea6GJGAAD+A+xYxsfsXz3L03XIyIiIppvgTtitjvVCgAAIIfD35vCvtN2A0Sk23XPvh0NqL4a+En6JwYFQG75qS6pPf2ZrE08KTEvru16QKRJ42aHU64AFDzjeAXP/SUiIirkPDdpNMdXKAAAgFxhAEx0rdc9V8k7Zz6PBlQA8mcsk5aD549Kdc8b8pC/iWuhiWYvE7ZdAShoDxxav9Q8Ye/RdB0iIiKiHGW2OQ0lR8uLFAAAQLaKD5QtsTqcn3Xd+BBpcN1zNICq6XkzGkilM+MC4Po4OzEoewd+lA2dz3ItNNHs7VAACprRatdYgXtB0zWIiIiIclUQPQ/4g3s+XnmrAgAAyIbZ4RRZvvubthsfogU+9bu+s0b2DvwgAxPnBMDC6Eh1yq7Tn8jqoFJiHqeBif7VywpAwTLbnVWW7yY1XX+IiIgo9w2ZbXalAgAAyPL656Kw3zXd8BAt2KnflcFm2dlbJ82jngBYeBczKWkYOihbuneI4ducBia60m4FoCAZTfE7Lc/dp+naQ0TzzPSdGRm+Pd9mvpam/y8RzaMOp9VoqliuAAAAshgAcwKYaCpz6tRvRXKbfH9uv1y4NCoA9PJn+ozs7tsjpYkqTgMTTVavABSce79++GbzhP2e5bsZTdceIvpHZtTkMDcWVuLFox70KqIs340eLbQieFzWBFumW9dZLU7XdrHnmBNWkdwmaxNV06+1Oqi8/B5Rhu9Mv3eJF5dYmOHb/JCS6AbKbLO/KT5QdpsCAACY5wD47jBf180O0fU+9fta74fip7oEgL7SmXFpHD4iW7tfkRhfYhExAAYKkNnuxK3A7dd03fmbvbN7aSqM47iX9Wd010XURi8XeVMRCBG2oVQESRFFkYUiEV1IVDDCJAgishleRGBGLyppUi4UJS9SU9zybNMNt9Pcm9vZyzlnL2ff7Ndp9+7Cje33gc/tczg3h+f8vs/3HJatSfWmLR1C3Ps/WKVQ1UQB7DF3C4WyzZ6baPXfxy2xC49CvXgc6kN/7BM+xL9gJDGBOdmOedlBOlUvxGwQ/i0qbrqWDWBBWS6uNZNewKA0jo/xr+iLvkd36CUswedo91twxddJofGJlcs44jqPg84mUFitB9X6vXCTmGUry4zRbuLfvTAMwzAMU3IAvHvTcIVudFiWW781TqaQhayp9A/mcG6DBiRLigvz8i+MJaYwmpgk38ZG0RPpL0lrdABD0jitMyJNYCo1C7viIsVskK4r5ZNQCxnkoYGpGIpt4MOus9wGZmvXZbO1jmGYqmLfj5O7+CtNLFte9aC32OLdL5hpz3ncfQHnvB244X9A+1BrZADDkg3TqTk4FDfWcxFE83HImkLvMuWmgAIUTUVKSyOSi8GXDWBRFmBLzuBdfAzPwq/RGXiCq767OO1tw1F3CzWJDUIx5OYDlyxb3r2+37DYWF/HMAzDMAzDATDLbq31e8jZjNu/uyGoq2C2HRqKJLQUBa12xY3v6Z8YkmzoibxBV7CXGtltooWanmbPdTSsXPo7dKHBxAGhqfiJM31IU7K0jm79v8EO2bh6DWZPKy6u3UGH+BD31p/SCf5XG4P4nJjErLwEl+qlkFgpqBwQlwFqAyenccbbDoNwihsLbC06bHSYdtYxDFMV7PnWsMPoML2o0OcNy1alRuEPe2caJFV5r/GuLJUPNzd1b3I/3Psh91bdSt1Eb+J0H1HcMAKKIjA9h30HZceILC4YlUUliBEVDBgEBTQBBQWNghJEBRUEZB0G+nT3rD37Pj3Ty3T36Sd9/sxMhgRxgJnh9DnPr+pXmqok6HTPW+c9z39p6+o1niflnnGH/x6MKJiNOSVLsbLqDWyr341DoZPIbS6SILU5GZNw1Qro0CWwrozXSMHtvsbD+HPt+3i2Yq0RdMt96Oz9azAyzgbDHCVNaffuA/4o49CAHzsIIYQQQi4GxaP+nAEwtaNG1+9duZONUVzs+u2WkC6G2kQD/M2F2Nd0GFvqdmJl1esSqk4ofASDz75UkNFprePIpNpcbBmtJraFtl092k2UP1NGo507Hk3RVCkeuMk7EnflTsKogrmYHliAp8tXY13NVuxo+EzGsaWCbQm4dQbDXU5hrBQLylbK5+LU2A1MbeWnilf9kYMQYglc2e4xiqaGTHreUGoJW+4ahlIAept/HMYUzDMKg6Wjd0/jAVkLVJdokClAdiWJpBS5VsSrjelIMoFpVdWf8WDJMinOvdU3Rn6erT9LJwNhSrvKhOtk5qL/23Trdx2EEEIIIRexW+pGRVPrTfqAQ2ln2xocyg6k4+EzIJ1O60sC+fl+0PApXqjcIC8JxhU+hDty75HRaS3halvA60zTfVNte8A0d7ugWvZJy4uk1Ghx+a4tLFuJDbXb5WWSJ5qHukSQ3cJdQFiPSlFH/7wpxudh2u8NpZ3sJ4rGAJgQK3DNV3f/UvFk5Zj0rKE0bXVpWa3FpVIs2D93iow8Tt1T5L5yKuKTlTPxZBykQ1OcZNT1yYgm+4aXlL8sE5P65d4rxbwtP2t2CFPamXrVKtcp950OQgghhJCOonhVt6KpEdM+4FDaeUo4l6pSls7T6kQdSKdUhct+XF+0QMbwrq7ehAeKl2BI/v0SgPbQpJu3/e4o27wIaAu5z+kaHiYvRsYXPoynyldhY+12fBU6jtJYpa27CzoZ6b6eGVhsq+8btbV7Uv6rgxCS1vzqi/4/VDR1s0nPGUrTyr+PdJYOXylCnRFYaNwDpSAzv7kYYU6B6tQR0o16CP5oIT4Kfo7lletlylMf/3gomso9wpR2nnszjgz8LwchhBBCSEdQNAbA1B5meNxGKCkX/ngyAXJ5ge+ZaK7s6n2m4hWj2lv25fb0DmvthOVOqAvobHkh1VoVf7NvlIzAnlX8NP5Y/SY+azqEQKwMET0KcunUJOrxYuUGo+OcI6Gp1T2YkjvBCElzlDNZ0xVNjZr0nKHU9P69y9eNW3yjMLJgjqxn2dGwV/bahvQwSLchd8bTET+21+/GE2UrMDR/lqz7yWB3MKWXY1I5k7XkZ6/exFHQhBBCCGEATKlLy5Kq77klS6UimVw00pma1xzAx437sbzyNdxTNN+oopfu3gzNzQt853UKSzicejEio6MfKFmCV2velg7hqngtEixcuGhiybjsY87Mm8GR0NTKFqb8qYMQkra4st0ZiqZ6TXrGUGpanRL6yl0EffwTZALMupqt+Dp8Sp6fda5cMQNyj6mI1+DLpqNYWfUGJhX9Fr/2jYVMiuJdktKLtcqVw1HQhBBCCOlYAJzJAJhaVeNC2cs3Bi9Xb0aD3ghycRXbR8I5eL32Xcwu/h0G5E01OnwZ+HZnINzWITxSOhgWlr8kO7ZSYbzs3SIdJyfiw8zixVA0ld9dakWLGAATkr5kHBrwQ8WTxdHPlF5cp6/8/V25k/BgyTJsrvtAnvdCHOucFgT1JhwPn5F1OKkpSDJNyqVl8Z5JaUf1qHudxwZxFDQhhBBCvjUAnpIyadqHGkovfd+vMVZXRj4nWPnd4ZG5+5uOYkXVRqMqW3b4tl7EnbyIX8mXXK3Bu3Rd3507xXjRJS9MTkV8HGd3Ed/v5yvXcyQ0taIMgAlJY1w5WdNYkEvpBW0fDspe2TklS/FO/S4WRlqAsB6BJ5qHTXXvY2ZgEaQzmEXHlHZkFPTTV23rzVHQhBBCCLlgAPywSR9mKL2M7sks4/Ioe2pJR0LfY3ihcgPGFj5o7KPlhdvkOv/e9SDV8vcVL8bG2neRwzD4W4kn49hW/1fcmTsJGR6GwNQyMgAmJE1Jhb8/V7zqGZOeLZReadvuJb18ozGp6DGjAFKeecPs9LUkTXpIOoPX1mwxPm8p3Ex9/izepPT8Vrqy3f0chBBCCCEXCIAfMumDDKWXEozJmOJnKl5BZbwG5LzIOOzUXizp9D0n9NXcDH3TzJZuCPn7vi1h8J9q/8JuiG/hcCgbowvn8WUStYpFiocBMCHpxq/29f9BKgBeZ9JzhdIrPuL5Ou9QDMm/X+4sR8KnZGwwsQ/GSqIDoWNYWrEGmXkzcK02mPuCKf1Hveonrhz3TxyEEEIIIQyAqZU1gpy+/gl4s24HoslmkHOJJeMyWuuN2vcwuegx3OYfawTmDH0tZEsYbLwckTHRj5Yux87gXpTFq5BEEuRcCppLZJT2tdwLTNNdj1rlPJ6pOAghaYXzROZoRVNDpj1bKO1eW1eeyISbh0qexUfBz+U5ltgbHToCsTJsr9+NB4qXGCOi2RVMqSgmXNnuRx2EEEIIIQyAqVU1LoBZ+TPxWeNBkHOpiNfgr8Ev8FjZC+iXey8UTeV4Zxt4tqM7E9d7h2FYwSwsr3wNh0InOSL6PJ0Fz1W+hhu8w/kSiaazwZR9HISQtMF5ZND/KJp6yKRnCqVXpIBxaP4sWUuTE/GzoJd8075g6QZfVrEWg/Kmt95tTfv9prSbLHUeHXSLgxBCCCGEATC1mk7NLR2t2RENRJDRv1o0H2uq38TIgjlGuMXQ18Y6NbehVMvfX/wUttZ/xG6KdjQnm/FW3U7pNslgCEzT02DK3g5CSFrwi3du+57iyXrepOcJpd0a/N7oHYHpgYV4p34XyuPVnFpDOtwVXBQrxaa6D3BP0aPGuHDed6m99ajbfvVF/x85CCGEEEIYAFMr2Hq5m1+6HMWxchDIXqwvm47i8bIX0S93ElytI55N+hnSK/OirYc2BMMLZmN19SbpsIgnEyDAnsYDcOfNYBcBTUcZABOSRjiPDeqneNRak54nlHapzpbn0V6+0Zhf+hz2Nh3ibl9yWdQmGmTtzeySJcb3ikEwtavNKac7CCGEEELa48rJWmLShxdKL/TiQEbbrqh6HfWJIOxOZbxGquanBRbgFrn0uuHkpZdeQOfZ3c8yFnxB2UocCB1Hkx6C3TkR8WBs4UP8/aHpJgNgQtKEjEMD/kPR1I9NepZQ2rXrSTyZ8uy5tGINDoeyOeaZdCohPSLfqwVlK3Cbfyyu4Z5gaj9Pp54zrnIQQgghhBgop7O+q2jqepM+uFB6XmWUrX8s3qh9T0Yd2xUdSQRiZVhfsw0jC+Zy7BW9jK5gN271jcHM4sXYFfxc9uLamYLmEswoXsQQmKaTDIAJSRMUTZ2TMmHSs4TSLltFMjBvmuxtzYn4kOD0GdKFxJIxHAnnyPetf94U4/vHIJjaR0/W6qt33v59ByGEEEKIoqkMgGla6dTcsqfz3YaPbbsfSkdS9vs+X7keav59uFYbjAwPL7S0c8ZD3+AdYezUlj3BVfFa2JXyeBUWlb8ERVNZVEHTQQbAhKQBzhOZ/69oqtek5wilXRL8ZubNwMvVm1HQXAwdOgjpLnTo8Lbcm/vnTkYGg2BqD+tTqyYGOAghhBBCGADTdDIVTskLhP2hY7YMf3Xo0KJ5WC4XWFYy0y7tCJaO8vGFj9g6CG7Qm6RzoKd3GENganYZABNicpzHB31f8aprTHqGUNrZO34lcDsb/JaAkCuJDr2tgPqu3Mm4hlOzqPXdnRoF/RMHIYQQQuwNA2CaLhpB55jCB2WUk91oubC2C36535d2iwyCARkzv7ZmC27wDmfBBTWzDIAJMTmuU+67FU2tM+kZQmlnFBHKs9IduffimYpXcCaaC0LMhI4ksiPe1h3BXJ9ErWzCdTJzjoMQQggh9oYBME0HjYvZxKL58DcXwm4UxkrxPDt+qWmC4Ifxdv0u1NtsR7ARAm+s3Y7e/nH8HaRmtYEBMCHmRTmd9RPFq35i0vOD0k5ZI9LLNxpPla/G6agfCY56JiYmloxLYfnDpb/Hjb4RxvfXtL9flF6GWmr6yNUOQgghhNgXBsDU7BovFKYFFsBns/C3JFaB9TXbMCR/ltHty45fapog+HrvUMwILMSu4Bdo0sOwC0kksTO4F338ExgCUzMaStnfQQgxJa7TWbONbhyTnh+UXrIZmlumpMwqfhoHQselaI6QdCGkR/Bp40FMDTyBHtoQPuNTy+k65V5z1Xt9v+8ghBBCiD1hAEzNrBH+zi99DpU2GjtbnwjinfpdGFUwF4qm8hJKTWmGJ9N42SdV84dD2UgkE7ALO4P70Ns/Hhke/m5S0znJQQgxHYpHvVrxqj6TnhuUXup6HrmrpabDSFFgox4CIelKXcsdfFjBA1y3RK2lV63hlCBCCCHExjAApma1NfytTtTBDkSTzVJ9PCOwCNd5WX1Mze/ZcX9u6YhdWrEG3mgB7ILxovPuvKn8PaVmc4qDEGIq/vcPPb+X6v5dbdIzg9JLfv4bmDcN62q2oiJeDUKsQnGsHCuqXsftuRON7nbuB6bW0KN+kPH1wH93EEIIIcR+MACmZn2xYJfwN4kkciI+PF72Im7xjWJXIU075UWg5kZm3gxsqN2O2kQ97MDhcDbU/PuQwRCYMgAmhHwDrmx3X8Wj1pr0zKD0YifAyH1lYflLtir8I/ZCh44TEQ8eLn0WPb3DeD+nVjCmeDgpiBBCCLElDICp2XS2hL81NgiRKuM1eKX6LfTPncwKY5r2Gt2w12qDMSXwuHSzx5JxWJ2vw6eQxRCYMgAmhJyHjCODfqh41e0mPS8o7aht43DHFz6Cjxv3c88vsQUhPYL3GvZAxkLzrk7TXY96NNUF/N8OQgghhNgLBsCUnb/djrw02dN4ABMKHzECM+4YopbSqJLv5RuNJ8tXwRvNh9VJhcDsBKYMgAkh/4TzROY4RVOjJj0vKO1w1+8dufdgTfWbUrxKiN0oipViWcVa3Oobw25gmt561MVXbe/zHQchhBBC7AMDYGoWXTbp/M1rDmBR+UvoxQsktbCt++HU/N9gc90HCOpNsDLsBKYMgAkh7XGdcv+n4lEPmfSsoLRDk116aENwX/FiHA3nyNoaQuxKPBnH501fSwG3U8tiNzBNVwsVj/pLByGEEELsAwNgys7f7qFJD2Nr3YfIyp/JEVLUNra+PJxd8jscDZ+GbuGXh62dwE6GwJQBMCG2x3Uma46iqQmTnhWUXkgpaBuQNxWb6t5HQ6IRhBAIFfFqvFC1oaUbONO0v8OUfqMedXWqC/h7DkIIIYTYAwbA1Azh7yMWD3890TwJuHt6hzMcorbU6Abul3svXqneYuku/4OhE8a/J3/PKQNgQmyM89ignyke1WvSc4LSb931O6/kGeREfCCdRyKpI5aMyV7ZqngNymJVxh1Rfs5Hwqfw1+AX2BX8XPwo5cba7fhD1Z+x6vxKYfGudv+bTxoP4GREk/8/LZpvBJUysjusRxBLxtnB3cmf5T6jG7iI3cA0La12Zbt/7SCEEEKIPWAATDn2uWu7frfUfYjMvBns+qW213hB0kMbjBmBhfKiy6p8GNyHPv7xDIEpA2BCbMgv3u79HeVM1tMmPSMoveCu39tzJ2JdzVY06Oz6vRSakzHUJ4IoiVXgRNiD3cH9eKd+F/5YvRlPla/C/cVPYVpgAUYVzMHQ/Fno7R8vnaQ3+0ahp3cYrk/Z8le5N17jyfxGr9UGo2e7//4N3uHo5Rudcgz6+idgeMED8udMDyzE7OIleK7iVayt3oLt9btllHFOxI/SWCWCiSYkkgmQS+sGfrFqI3cD0/TTq25znsj8FwchhBBCrA8DYHoFXzIYY2Et2/mrtXT93sCuX0r/aazgXbmT8Ebte5bdDbwzuBd9/BP4u08ZABNiM5QzqqJ41WKTnhGU/qNtBapTA0/gCHf9doh4MiHPsPnNARxoOiYh7/OV6/FQybOYWDQfA/OmSbjbsyXIdWpuIyCU4DbDUHO3Fge32lmfpdj2Z6ZsCYzlP7d2eN/sGykh8cC86Zhc9BgeL3sRK6vewHsNe2SlSSBWhiY9hAR0kAsi4fmnjQcxqmAuMljwTdPHRsWjDnQQQgghxPowAKZXKgCaUDQfec0BWI1oshnvN3xi7AJl1y+lF9gNfJ02BA+WLIM3mg8rsiP4mXRhOHkGUAbAhNiCjMMDv6No6kqTng+Unu9OZoSBstO0Kl4L8k9IIN6oh5DfXIz9TUfxWs07WFT2khH0yp7kG70jjAk3EuyeDXjbhbsm/dzbh8Rt/9yaGz20IdJF7M6biclFj2NJ+R+xue4DHAgdQ1GsVMZJk/NTGCuVID0V+rMAlKaLOzOODPo3ByGEEEKsDQNgekXC38JH4IsWwmoY476eLF9lvAjgxY/Sb9F1NgiWYokdDZ/J2DwroUPHqzVvG1MAWAhCGQATYgNcOe5bFU2tNOn5QGl7JagcWjALuxu/RDwZB2kLfGWM8+mIH39p2IOlFWswLfCETK9JheXyTCddvGe7ak0b8l6i7YNh8WzH8CgJu39T/CRWVL1uPLdLAWdQb2LHeDsiehRv1e1Ev9x7jZ+daT9jSluMuXLcExyEEEIIsTYMgGk3h7+yDzc74oWVSCIpFeH3FD1qXJoZ9lB6ETpbuk+erViLSot1nxih9prqt3CddyjPBcoAmBAL88s9d/5AOZO1yaRnA6XtAz7ZHzuv5Bn4ogUgQJMehj9aKFOcUoGvFCvf7p8oHbFtYa+N73jtQ2GZ4uMdgjtz78Wkot/ihcoN+LTxKxQ0l8gkLLuTBHA4nI2JRY9yGhg1vx513zVfDfixgxBCCCHWhQEw7caQR/YhHQydgJUwXhhsqNmGPv7xyPCw65fSy9k/Ny2wACciHliJsB7F0+Uvm/ZnTy0lA2BCrhCubHcfRVPrTHo2UNp2H7vVNwYvV29Gg94Iu5JEErWJBnwdzsa6mq2YGViEO3MnSbB5dowzg7tvUQLx1kC4p3e43PPnlizFn2r/gmPh07b+fhmUxirxVPlqYyQ018FQMxtznc7i/YEQQgixMgyAaXeFO7f5x2FX8HNYCWMX0m/Lnmd3H6WdXCiyvX63pUZCN+hNeKzsBY6GpwyACbEgV++4nd2/1PQaYZ07fyY+btyPRFKH3dChoyJejc8aD+LZinUYX/iwhOEtQSZDusuztUNY7sS9/eMwqegxrKjaiAOh46hN1MOORJJRvFm3A339E1koTs2rVz2eCoF/6iCEEEKINWEATLsh/JUdmFvqPoRuoR1Bh0PGaKf5th4HRmlXvUC6yTcSv69chyoLjYQ2doRPDyxkCEwZABNiMRSPmqVoatCk5wK1ua3raWYEFsleWzuRBFAZr5HQd1nFWowomIMbvSOMMI5dvl2oq1138C2+URhX+JDsDv5KwuAG2I0vm45idME8ZPAOQM2pnnKugxBCCCHWhAEw7eLLn4zSWl29CbFkHFYgnozj7fpdxt4jVvJS2sUjoX9T/CR80UJYBX9zofHykSEwZQBMiEVwZbt/pGjqhyY9E6jNNZ6nrvcOM/baShBqF4J6kxTr/qHqT+eGvtzJeoXCYLc8+97sGyX7lddUv4XsiBcRPQq7kN9cjHkly+Bi8Tg1p+wCJoQQQqwKA2Da1S4oWyF7cq1AXaIBL1ZtxE3ekQxwKO2mbuBhBQ9gb9NhWIWj4RzcnTeVZwhlAEyIBVA86lBFU8MmPROojTWeM37tH4vXa99FNNkMqxNPJlDQXIK36nZiWmBBy3hnN5wMfc0WBstf+/onYE7J77CtfrexL9dSk8K+iZpEvUw4Su0F5neSsguYEEIIIQ4GwDStNS7b9xUvRnWiDlYgECvDvJJnoGgqL2yUdu9ZIi+J3q7/yDJ7gXcFv0Bv/3jum6MMgAlJY5wn2f1LzanR6Togbyp2B7+EDmvv+23Um7A/dBSLy1dhUN509NAGG+OHeV8zua1jontoQ6TYc3nlazgWPo2QRQrH/8bemcdIXaZ5vCZrdDe72dnMJjs7yexfu5nZjCvdVYo63vdNdxW3oAIq3iIoHnjhKijiiPcJAqKoyIijyAIiiiAit1zdVdVX9UnfZ3V1ddfxLE9BZRyiSDd9vO+vPp/kkxjTIVTB++P3Pt/3fZ6fQvcy7zet0MMZtIRGbgEDAAAAATDaqQY2o0NTpKizXJzAzkietqvixh7iAKlBqd68f7FuUaqtn+0kJZm6kXNqcDgFSiQABrCUQ7d/2w19HmCGqvsVnbn6fSRfnExlV42O5UnNNj67YIzeLGWvZqnpm9p6OPLOiidkRcs6qYs1ilNJSFIPg+qBBUJg5BYwAAAAEACjXerm7dKiG2RL+26xHd2cfdH2LZszRENuCpwcGCoP7X8uVfSznY5kVGfyGft9o5USAAP0E+48L7d/0Sjdh7yrYqaUdlWJE0lIQgqiIXmzfomMCE3itq/DTN8K1gOS15beJwsbl0lpZ6U4lZ2RfLmu9D79zMb+mWDGyS1gAAAAp0EAjL29aTujYLR80rJWbKcrGZN3Gz/Rk8icJkc07DbwTeWPSGFnmdhOY7xZJlXM4IAJEgADWIZ7b+6lnoAvbOizADPM9CG5J6pfc8z4ncP3ZTsi+2R2zTy5qvhm/bzszxxuelawt+R2eb3+fQlEiyXuwHbmBdFSvcXOIQbkFjAAAAAQAKP5auFBW7TGkjGxmXAiIi/XvathNjM6EQ0NgbXNvLZnt52CzlIZHppECIwEwACWcOIXl5zgyfcuNvQ5gBmmBkd/DI6SObULHTEm48eC38f2vyQXpA7l0uY508wOHAyCLy+6UZ6pfUvyo0WOC4K13fUDVX/Sz0kQjGbcAt6X+1sXAAAAOAMCYOzNzdm9VbOtLzw0xVvk6Zq5GmazAUM0WL0ZkFt8m6xp+zY1U9dmvglvl4sKx3PgBAmAASzAvSf3Ak/A12TocwAzSN1/afj7duPH0mX5AdwjBL+0eUZJh/+X/SAITjgoCNYaxOzaeTI4OJy/6zjQxt153htcAAAA4AwIgLG3NmSjQlOkuLNcbEbnit5d+RThL6Il6rPnwsJx8lnLOutD4PeaPpPTgiN59iABMIDBnLj6Yr39+56hzwDMIPUd6KKi8fJR8+fWd19KE5dEqrvL9HTwG8jlvQgP7wL0gyB4ngSiJeIUIokOea5uoZwSHMbfexxY/b6vB22+8lcuAAAAsB8CYOydAGa8fNu+U2ymoqtaZ3Gy2UK0TH0GaZFwceOnVt9+6Ux2ycya13kGIQEwgMFk7845xxPwNRr6DMAM8WD4O0FWtW4QJ5CUZGoW6vN1b8tFhRO48YtHHQTrTOg36j9I7eWdQHuiQ96sXyJnF4yhMxAOpF3uvbnjXAAAAGA/BMB4rDOn9Mba4qblYjPaQmpC2TQKDYiWmn1o/t38ho+svgVTE2uQ68seZB4wEgADGMhJ6y/TfdPLhq5/zBCz/Adv/q5u/UacQHWsTuY1LNUgjxmo2OMZwaNDU+TDppXSEG8W20lIQpY2ryIExoHV71t74BbwP7sAAADAbgiA8VgD4CeqX5VoslNsRcPfsaGpetLc2O8ZEX9e919DYKtvAmvrQ21rl00IjATAAEbhzvd6PAFfhaHrHzNADX+Hldwp68JbrB99EU60y6ctX8q40vv1s/Heg8ccBA8ODJObyh+RDeFtVtcnCIHREFs9ft9VLgAAALAbAmA8lgLENaVTrW635I8Wy9jSeyTLT8EB0QmmQ+AFlofAWvA5nXnASAAMYBSefO8MQ9c+ZoB6WHV4aJLs6vCLzWiwtSOSJ1Mrn5bTgiPYh2Gvr5NzCsbKw/ufTx30tpmEJAmBcaBdlrVzyD+4AAAAwF4IgLGnIcuFheOsnvubnwp/p1J0QHSY6RD42dr50hxvFRs5OA/4NQJgJAAGMITsnUP+y+P3BQxd++hws/y5jgh/K7pq5KW6d+SiwvE67oL3HOyzvUDWofnAbzX8WZriLWIr3ATGAbbBvSf3LBcAAADYCwEw9sRTAsPkncZPxFb8hL+IjjZdUHy8+hVpSbSJjVTH6mV82QPMA0YCYAAD8AR8Uw1d9+hwnRD+RhIdsqp1g1wdulvf0QiysN/aQp8cGCo3lz8qG8PbJZ5MiI0QAuNA6s73zv3d++ce5wIAAAA7IQDGnmyk7q2aLeFERGyEm7+ImaEWGLXo82r9exJLxsVGvmvfpd0WKPYgATDAwKGzf3/tCfi2GLru0cHqfmVoyR1Wh7+F0VJtx6vdWZjziwPWFvqCwutSt8+rY3ViI4TAOICWuvO8J7kAAADATgiAsbvhrxYhdCNvI4S/iJmlhsBnWDwTOHnAtxqWatcFY79jJAAGcDruvbljPAFfl6HrHh2q7ru0VfJXbZvFRjoSUfm4eY34Sm6XbNo9oyEHQ7UWoGsqLvbdBv5rCDyW9YT9q9833QUAAAB2QgCM3QpSCkbL6tYNYiO0fUbMTNMzgTUEjlkYArcl2uWeylncmkECYIABYNDmK//R4/etMHTNo0NNh7+rLN13FXWWyUP7n5PTgyN5f0HjbgOfV3ht6jZwbaxBbCMhSfmwaaXubQiBsT8D4D3Zu3N+6wIAAAD7IADG7hQiZta8buUtupLOCrmm9F7CX8QMNR0Cz7f0JnBBNCS5xbdSREUCYIB+xuP3XuQJ+JoMXfPoQLW964WWhr+dya7U73tYyZ3c+kVjTf+9vKHsQdnUvlOSYhe6l3mhbpEMDg5jjWF/GTvgjS4AAACwDwJgPNrwVwPUiq4asY2qrlqZVDGDWTmIGW46BNZT8zayrHmNnBocIW5Dv18kAAZwGv8594y/8+R73zR0vaMDTb+raJtX26iJ1cvsmnlyVsEYDqyhFWb5UzftUwdEWxNhsYlIokPm1C6UwcHhhMDYX36VtfWqX7oAAADALgiA8WgKEdomaX14q9hGdaxe7qqYyaYIEf/mVs2KlnWStOy8f0cyKg/unyNZFFWRABigX3Dv8/7BE/CFDF3v6DDT43bebvxYYsm42MTW9j0ysexh/Qzsu9AqdW8wODBMplU9K8Wd5WITGgI/Vv0yBy6wvwy7872XuQAAAMAuCIDxaHy+dqHELStEhBMReaz6JYoQiPgjc/UmyIbwNrGNws5SyS2+jUIPEgAD9AOefO8Dhq51dKAnB4bKi3WLrAp/NYB6r2m5XFJ0Pe8maK3uQ/uD0aEp8nV4q8QlIbZQH2+S+6qeoeaB/eVbgzZdcZwLAAAA7IEAGH8uKBlXen+qpZdNdCW75NnaBXJKYBjtUhHxR59tQ0vukJ2RfLGNZc2fy2nBERR6kAAYoA8ZtOXK33j8vu2GrnV0mPpv+uPVr1jVhrY21iAzql/T8RSEv+gItSX0+YXXyfyGP0tbol1soaqrRiaUTWMdYt/r95Vn7xxykgsAAADsgQAYj1SIOLfgGutuycWTcW2dpvOzCEgQ8QhFnhwZE7pHijrLxCZSraCr5lDkQQJggL69/TvKE/B1GrrW0UHqv+eTKmZIbaxRbGFXh18mlj+sv3/2W+go3doSOniwJXRFV7XYQiBaIqNCkyXLz/4A+9yHXAAAAGAPBMB4pGLErJo3rWv9/H+tX8vZBWMpRiDiURV5bit/zKqiq1IQLZWrim8mBEYCYIA+4MQ1l/y9O9+71NB1jg5S/x0fWzpVQp2VYgO6L/y8daPkFN9C0ISONd0S+vqyabIjsk9sYXP7LrmieCL7A+xTtTtK1vYh/+YCAAAAOyAAxp8qRowKTZFyi069Kpvad8qlRTew6UHEboXAOi+8PRERm1jcuFwGB4cb+70iATCArbjzvCd7Ar5qQ9c5OkTdr+QU35q6TWsDHYmoLGhYJucUjGWvhRmhHnK4svgmWdm6XhKWzAVe0bLu4BrlMDz2nZ0HHOkCAAAAOyAAxh878Xp6cKQsb/lSbCIYLZGRobsoSCBij1q9vV7/gVUdD3RO4JTKpySLZx4SAAP0Ku593scNXePoEPXdQ2eNftn2ndhAfaxJnq6ZK6cFR9BlCTNKrS2cW3iNzG/4SKLJTjEdDarnNSyVU4PDWavYd+Z7l/zP+suPdwEAAID5EADj4WqYoPMl9ZS3LdTE6uX2isdpRYaIPS7Enl0wRj617ODLtsheLSBT4EECYIBewr0n99eegG+7oWscHaD7gNrB4+3GjyUpSTGdUGeFTK58knm/mLHqbVo9IP+n2vnSEm8T0+lIRmVG9WviNvT7REdY4/H73C4AAAAwHwJgPDwE0RbKezuCYguRRFSeqH6FggQiHvMJ/0uKrpfv2neJLSQkIS/ULTL2O0UCYADbOBAAX63tDQ1d4+gAdc8ys/o16Uiaf9g2L1oo15XeR4clzHgP1Rr0oLwVY7JqYw1yS/l0OgVhn+nO8053AQAAgPkQAOPhvlm/RGxBw4+FjcvkVNqRIWIvdUC4pnSqlHZVii1Ux+pkbOlUirNIAAxwjGTvHHKCJ+BbYuj6Rgeo3YpuLn80Fc6Yzrq2LeIruZ33C8TDDoxqsFrSWSGmkx8tkqEld7CGsa/cnL0r519dAAAAYDYEwJg2OxV83Cs1FhQk0qwPb021P80m/EXEXnwW3l05S5rjrWILK1q/1rl8tHpDAmCAY8Dj953kCfgqDV3faLn6fqGBqj9aLCaTkISsaftWLi+ayHgdxJ+4DayHL3d1+MV0DswZ1xnGHJbHvjDi3pPrdQEAAIDZEABjehNzRnC0fN76jdhCQTQkI0omcaIVEXvdkwND5ZW6xRJLxsUGwomI3FUxkzZvSAAMcAy487zTDF3baLm61zqnYKysNnyvpeHv0uZVcn7htRywRTyCWf4cGRGaZHwIrGv6jfoP5JTAMGO/S7TaBYM2X3mcCwAAAMyFABjTG5j7q56RaLJTbKA53iZTKp8k7PjbwlJaTvgi9sJ6OrtgrFWHYnZE9smFheNY/5ktATBAD8nelfMvnoBvo6FrGy1XD5a9XPeuxCUhppIOf88uGMMBW8SjbOk+vORO+Tq8VZKSFFNpTYRlWtUc1jX2hSF3vvd3LgAAADAXAmDUsODiognGn179YXHi1fr35GRDv8++/rPSjdsgf46c5B+i/506zXtqcLicUTA65ZkHPD04Uv+//rz+nP68/izBEGL3WjXq3CzjWzWmiSfj8nTNXNZ5ZksADNBD3HtyL/cEfG2Grm20WD2wOrlypjQZPFqiKxmTD5tWavjLzV/Ebq7viwonyMrW9WIyZV375erQ3YTA2Nsm3Xtzb3MBAACAuRAAo27yn62dLwmDT63+kDWtG7WFWsaEHPo59Ya2+sfgKBlSfIvcUj5dZtW8IQsaPpJPW9bKF23fyq5IvpoK8r9r/14+a/lKFjcuT/3ZTq58Urwlt2tArL8ON6cRjz4E1vVjdNH2h5R0lktu8a0UbzNXAmCAHnDC73/5C3ee93lD1zVabGrub+owWYmYSnsiIi/ULZIzC67m/QGxB2ZbEgJ/E94u5xdelzF1FOw3V2bvzvknFwAAAJgJAXBmq5sVDQZLu6rEBnTu77CSOzPi5Gr6pq+exL++7MFU27gN4W1S2VWjhZputZnqSEZlf6xONoZ3yHO1C2VUaLIMDg7TMNjYz49I28ae8U7jJ/p7Nvb7RAJgANNw7/P+hyfg22voukZLTY2TMHzub3uiQ+bULpDBweGEQogOD4EPzgNeIqewT8Detc6d5x3sAgAAADMhAM5stU3w+02fiQ20Jdrl7spZjr+9mn2ozfPlRRNlVs1c2dq+W1ribdJbJA9YE6uXT1u+lBvLHtaCT0YE6ojHUsDVrgNr2zaJDdTFGmV82QOs68yUABigB7jzvSM9AV+XoesaLVbD1VgyLiYSl7i8VPcu4S9ib4bARWaHwFpXmFL5lONrKti/uvO8/+sCAAAAMyEAzlz1pf+a0nulPt4kppM84IKGZVqgMPb77A31Rq7OY9ZiUSBakjql25c0x1v1tqCGzdwGRvyZgs7I0GQp6awQGzjQAt7xz0skAAboDU5cc8nx7nzvu4auabTULH+uTCx/xNh9VkKSsrR5lZxVcDXhL2If3ARe1bpBTMUfLZac4ls5LIq9p9+3adCWK3/lAgAAgG5BAIx96mnBEalboDawLbJXLim63rFzqbTwoq2Y7qqYKTsieangtz/RucE3lT9CAQjxZw7NPLr/BYkmO8V0WhNhubNiBoWdzJMAGKCbZH+f89+egK/M0DWNFqrv0xcWjpct7bvFQNLhr7anduzeCnEAPdTN60bZHtknpvKX5i+0HsT+H3vL1uzduee5AAAAoFsQAGOfnkq/pXx6qq2y6Wg70xvKHnJskKGFFz19/2r9+9KSaJOBojpWL1Mrn2YTiHiEgu7pwZHySctasYH14W3c7Mk8CYABuj//90ZPwJcwdE2jhQ4ODpNFjX+RHkD4i+gQtXYxInRX6qC1iXQko/LI/hd4DmDv6ffN/s19J/3CBQAAAEcNATD2aYjxeetGMR0tUrxYt8ixAYZuDC8sHCfLW740Yj6Yzga+tfwxZgIhHmHNDim+VfKjRWI6Wti5W2d8+VnPGSQBMEA3+MPqi4/35HuXGrqe0UL1HXpy5UxpSYTFRNa2bZLzC69z7MFaRNMO3Y8omSR7OwrEREq7qmRUaArPA+wtd7n35P67CwAAAI4aAmDss8LEvVWzU+GA6WwM75DzCq91ZACcDn9Nmw+kM4GGltzBRhDxCGtXn6HhRERMR28Bn8kt4EySABigG7h35/ze46f9M/ZeVx9t+7q7IyAmsj68Va4omsiNP8R+DoG1m5mGrSayuvUb9gr4/+ydaZRUZXrHy2SSmJz5kEzOyTnJnDPJp0xyjHbXVVwQHPfd7ip2RBYXlEVAiYrLuCAoatARBSI64gJyBHEDZREZaFbZ16arqvfu6n2t6lq6tvtPHgcUtKGrm27qubf/v3N+3/hQ/RbPrfu+z/L2lBGjwHW7gxBCCCFpwwQw7ZXu36sKR2Fn+CC0I6Of7654wpbdqJJAuvZ48lcjK1vXo59viNr1ozTTXuobiuUta6CdqBnD49VzWdDRd2QCmJAuYBxzPWh43abSeKYWs59viNrRz1LgObh0CqeCUJqh4pDJ/uch5xvaiJsJzKpdaMszF5oBPe55DkIIIYSkDRPAtFcqUGdUz0W7GYNmTJhY2LgMTqXrePadv+PUJn+FYCokd0RzI0jpGeI4p2QiimLl0M7BSIGMe2Rlf9+QCWBC0iT7YM7fGV73GqWxTC2m7LGm+mdD3qG1UR6vwpjyGSwGozTDzqydr/IZURSrQG7pJD4jaE940HmUY6AJIYSQdGECmPbZ7t/9kXzcUHy37RIWUv07sHAU1gTzoJ3VgU3sAqa0kyTwMzVvqC+oSZpJPFf7Jrt++oZMABOSJobHfaHhddcojWVqIWW/Ite67IvkQxuNiRY8XPWi7fZUlFrNE4Xt8xo+RMyMQxuft27AZb5htizAp+d8DPRtDkIIIYSkBRPAtMfv/pXuX9lwaEaqYif7Z9quAlUOXi73DcO7TSuRRAraqUk08C5gStOI6a8Cm6EddgH3GZkAJiRNnEdz7zO87pTSWKYWUhImbzYshQkTmoiY7ZhTt4gJHUoV7R2u8A3HJy1roY2o2Y5Hq1/hBDDaI2Og/22WcZ6DEEIIIZ3CBDDt4e7fuyzR/bus5SvbdZ7K+svf9HbjcsSVJ+BPHsM9m/cBUdppF/CIsodRFa+DZuR+LykAyvLkqF1LygQwIeeKC9bd8NdGgesTpXFMLaS8J48ufwy1iUZoIoUUFjd9KvsPJoApVWT28YkBm0O7oY2j0ULcWnI/slkwSs/OQ85jLo6BJoQQQtKACWDaY8qh/0NVL6ofVSr3ad5RMsGWXacv1L2FSCoKK7E9tB/9C0ewa5DSTgo8ZJxbSnln/5bQHlxZOJLxbG+ZACYkDbIP5fzW8LorlMYxtYjyeyrvyd+27YA2NrZ9h6uLRvM3n1KlBaSDS6fA114GZUjButp1o5Yx4jyae6ODEEIIIZ3CBDDtMS/zDcX64DZoRjrUZtbOt13Fqfw906peQEsyCKvRmgxibPkMdgFT2skBsByy7g4fgWYiqXZMr5rDeLa3TAATkgbOfNd4jn+mZ6vcrf9k9WvqCmzzo4XILZlky4JaSu2ixOck/0w0JJqhCfk84yoe536BnpXOY64XHIQQQgjpFCaAaY+NJptQ+SzaUmFoZktoLwYWjrJVpbqs/ajyR1AWq4JVWdS43HZJeUp74xBnmv8FhFIRaCYvtFvuHrPVc5YyAUxIV7hgw42/MApcS5XGMLWI8m58S/F9KGgvhibqEo14oPJZJm8otYDyPj6n7m3EzDg08U1wG/pzv0DPRo97Z9be23/lIIQQQsgZYQKY9oiX+oZiXXArNNOcDODeiqdsVanuPH6/z/bwflgZOdi6rmgcN4CUnjHeZdLCMKwK/AmaCaZCkGdtlsc+z1rKBDAhXez+/Y3hdXuUxjC1kDIqVRPSiTy79n9ttZ/qSOeP8n5jamllfy2FmSta10IT8ix5uuZ12z9LaK8mgFuyD+cMcBBCCCHkjDABTHukK210+aNoTrZCMx+3fI1LvIPVrmN37OcbjA+bv4AJE1YmarZjin8WE0aUpvG8HVk2HTWJBmhmdeBPuNQ3RO06UiaACelNDI9rqOF1x5XGMLWA2ccn/Ei3rSZWtKzF5b5htinalL9D1voiT454fH81RK42OkXZQ8q/vchzB7I8Obb5+2nfUKYJ3FB8D3aFD0ETh6Ie+VyMJ9p9Pe7HHIQQQgg5I0wA0x7ZOC9t/hKaqYjXYFDpg7aqMM3y5spdm+rHwabLytb1uMQ7SO16U6rpmbuwcZnqsg+52+vOsum2euZSJoAJSRejwDVPafxSiyjTlVYHNkET+yL5uLn4Psv/tst7lCRx5e8YUHgnBpdOwfSql/Ba/XuQguGNbTslUXaKawJ5WNL8JWbVLsT4it9DJhdd7HXjIiaDqUWUQmu5d7cu0QQtmDAxr+FDxhDtvh732gvzbj7fQQghhJDTwgQwPevqdFfJJEiCVSsmTMxvWGqrjYWse07JRHjaS2AXKuLVuL3kAd4FTGladwKOh6+9DJp5r+kztWtImQAmpLfIPpzzT4bHfUBp/FILKImaqf7ZaEuFoYXGZMvx6x1y1K5buolfGYd7d8UTWNS4HHsiRyQhJuNo095Xyvcie7BPWtdhYuVzuLJwpKXXhfYtX6xbBPn/rgV/vBZDSqdavrCEZiwBXJV9KOcCByGEEEJOCxPA9KwTkVK1qZlj7UW4sfheWyWAZTTZspbVsBMpmJhZO58HKJSmeYj5Yt1bSJgJaKU05mdRhz1lApiQM2B43AMNr7tVafxS5crv+8DCO7E9tA9aiJlxzK1/V+2apZtUl27fR6tfQV5oD1qTQfQEMolpS2gPJvlnyphoW+03qf08cR/wqsBGKEK66zkJjHbXpDM/9x4HIYQQQk4LE8D0rDYQ1xaNxdGoD1qJmwkZ1WWrilI5wHjQ/zyk+txufNu2Q+7ZUrv2lGp6/l5dNBr7I/nQigngpbq3bfX8pUwAE9IZznzX40pjl1pA+c18rnY+EmYSWlgTzEP/whGWTG7KZxal43dLaC+iZjt6g0CyDR82f4nrisbyvYeq9s+TxCagoL0YWmhOtmJs+QxkeRg7tFu+5zya+5cOQgghhHQIE8D0rBKRT1S/irgZh1bkzqaBhaMseWBxukOMa4rGYHf4MOxIU7IFI8oe5sEJpWneA/5k9WuQMW5a2Rs5iqts9AymTAATciay9t5+vuF1f600dqlyTxTXHowUQAvlsSrLjmeVCSSX+4ZB7vatPwf3npowId3FrtJJllwv2neU/5/SDa+poPyL1m9lypnaNaOK9biPZO2+7Z8dhBBCCOkQJoBptw8o+vuGY3PbLmhFxpU9Xj3XViOFZbMmHXUppGBX3mxYwpGxlKb5HJZ75/JCu6GVqBnDw1VzWNFvL5kAJuQ0OI+5/t3wuiuUxi5Vrrz/vlz3jpbuXykwk+tZLJnMlM8sRbMft3wN2ROeS3aED+D6onEsfqOqlZHli5s+hRaCqRBkylmWBZ83NOOGnPmuGx2EEEII6RAmgGm3u3/vqXgSMu5KKzvDB2zVeSaHQjcV3wsZ12Rn9kfybdW1TWlvP4sfqnoRkVQUWvk6sBn9vIPVriFlApiQnsJ5NHeU4XUnlMYuVay8599aPB7FsQpo4bPWb6SD1nLv5CeSv18FNiNTvNf0Gfr5+O5D9SrPnBuL78EBRRMHNrXtsuy4eZpxn3MQQgghpEOYAKbddmnzKmgllIpgin+WrSpIZSO0sGEZTJiwMzKK6oHKZ2z13VHau13AI7BZcRewjF0cVjbNkh1ElAlgQtLltx8OOM/wuhcojVuqXEnGvF7/AbRQFquCu3Sy5X67NSR/BSmSnuyfyf0MVa0UksqZSVsqBA2EU1FM87/AyUG0yzoLXBsu3HLLLx2EEEII+RlMANNuV6iXxCqhlQ1t23GFbzicStewW2tecj9KY370BT5s/oKVv5TaqAv4jYYlljtEpkwAE9IVsnbf9o+Gx/2d0rilitXW/Rsz45Yc/Sx7B5ki9FVgEzTwbdsOXO4brna9KBXl3l0ZlZ427AKmOq3KPpzzHw5CCCGE/AwmgGmXlUrmWbULkFR6D20oFcZk//O2qhw9fieYre/+PRlPe4mMpOLGj9L07wJW3QV8JOrDtUVjGNP2kAlgQjrAmZ97heFxNyuNW6pYSbRq6v5dH9yG/j5rJWDks8q46neaVqjZL7UkgxhbPsNyiXTat5T/n3eUTIDsv9OBXcBUqQnnMdcYByGEEEJ+BhPAtFvjRreG9kIrO8IHMKBwpKUOLTpbcxllJgmUvkLcTODRqpeR5clR+71Qyi7gLnUTyedjTNtDJoAJ6fj+34lKY5YqVlv3b02iAXeVP2qp0cWyV7rMNwxvNX6MdjMGTbzTuALZNtmTUvsqSeCna+ZpiZ8TXcC2meZGz5nzs3beep6DEEIIIafABDDtcpJBKpmDqRA0IkmGx6vn2qpiVP4W+Zvkb+tLrAnkyUgqtd8LpRq7gPNCe6AVuY+vn3ew2jWkTAAT0l0u3HLzLwyPe6nSmKWK/f7u34YPoIEUTMxr+MCSSZc5dYsQNduhjYL2YlxfNM42hcnUnv65g3441ge3QgHSBSx3E9vqTIeeE3dmH8r5ewchhBBCToEJYNrlzcG7TSuhlV3hQ7iqcJStNtkyzkzukOprVMXrkFsyiWPTKE1T6a59qvoPSJgJaERi2l06mTFtfZkAJuQnGAWuXxte9zGlMUuVKvsVSQ5qGb16MFKA64vvttQ+St4pZFxsSzIAjUTNGKb6Z3ECClWvxJJ0/9cmGqGB1YFNLAanXbXO8LidDkIIIYScAhPAtEuHFNcVjUN+tBAakaTHE9Wv2qpSVDZiw8qmoSHRjL6GCRMv1r1lq++T0t5+Rl9dNBr7I/nQiAngpbq3GdPWlwlgQn6C4XFdY3jdbUpjlipV3vNn1s5Hwkwi04RTEUyvmmOpIi35rENLp0LGZ2tmZet6XOwdpHYdKT3ZRY0fQwNS1DGu4nFLjaOnGTdleNy8B5gQQgj5CUwA0y51l/131UtqRxHnR4tsN2JLDjZerV8MEyb6IttC+3Clje5zpvRcPKefr52PlNJnxtbQXrlHnjFtbZkAJuQnGB73I0rjlSpVfgd/V3gX9keOQQPrgltl6pBlfp9PrN/mtt3QTkW8GneUTOBdwFS9Elc3F98HGV3eOSyeoAr1uBc4CCGEEHIKTADTtL3EOxiftq6HRkyY+J/6P1qqaj2dDdiAwjuxN3wEfZXWZJvcOc3KX0q7cJfgLcXj4Wsvg0Zak0GMKX+MMW1tmQAm5CScR3L/yvC6lyuNV6pUmYYhHbftZgwZRiYNyW+zpfZRsi99u3G52oK3k0khJZ3enIBCLaE8B56peUNF0X91oh5Dy6ZZ6tlEM+4Oo8D1Dw5CCCGE/AATwDTtpEJOyQRUxmugkfJYlXw+W20O5G8ZWTYdzclW9GUWNHzEinlKu/i8fqvxY2jlzYYltnpW90GZACbkJJzHXP9ieN35SuOVKlW6bTe17YIGFjetVLtOp9sjPeh/HoFkG6zChuB2XOYbpnZNKT25CP2qwlGQSVwaWNi4jPsG2hXrjAJXtoMQQgghP8AEME27Sv3pmteRRAoa+aD5c8uMLOvKmst9mX2do1EfrikaY7vvl9LevhOvNtEAjewOH5bpBoxp68oEMCGnJoCvMLzuFqXxShUqUzDuq3gKrQoSmFJE6yqdbJkEi7w7XFc0Dvsj+bASTclWKey1zDrTvq2cQ0z2z4TcDZ5pitrLZboRC8JpuiYNj2usgxBCCCE/wAQwTct+viH4OrAZGmlJBmVMsO021LLm64Pb0NeJmu2Y6p/NsWmUdun5MRift26ARkKpMB6ofIYxbV2ZACbkJJz5uZOUxipVqtxpubxlDTJNCibm1i+2VEGWfNY/1L+PlNKiZE5AoXZQ4kymFKwJ5iHTmDAxu3YhY4d2Qd4DTAghhJwME8A0rW6ynJKJ8MdroZF1wa24zDdU7fqdzT2epTE/CLCiZS0uVvpdUaqzcj8HkyqfQygVgUYWN31qqQNnygQwIR3xr7Odf+EscL2vNFap0n3VkNKpqEnUI9MUtBfjhuK7LfN7LGs3rGwaquJ1sCL7I/kyWtcy6037thJvY8pnQLrXM8134UMYyOlBNF0LXHn/temmXzoIIYQQ8j1MANO0Egm/Vzr+OWbG8UjVy/IZ1a5fd9d8YuWziKSiIEBZzI9bSzj6idKuVO5fWTgS20P70V042p0yAUxIp92/vzK87t1KY5UqTaq8Wv8eMk0Kplw1Y6muuku8g/BR8ypYFSnKu7/yaU5AoZZRJpJ92voNMozEjhS2MnZouvqdR3P/00EIIYSQ72ECmKY1SnRNIA8ayY8W4tqisbZLImQdPxwigJBECs/UzEOWhQ6pKNVwyPxC3VsqxySGU1E5BGVMW1MmgAk5jlHgyja87jqlsUoVFmddXTQaByLHkGmORgst1f0r7wt3VzyB5mQAVmZp8yq1a0xpR3E3VkcXsIzNl/H5ateKqjLuPJI7xEEIIYSQ72ECmHY6ijinZILa8c8LGpdZqnK9KxXuXwU2gfzIxradkLuInEq/M0o1Pr9vK3kAZUpHyS9o/MiWz+8+IBPAhPyYAB5teN1JpbFKlSnda1P8szI+4SdhJvFszRuWKsKSvdEXrRtgdYpiFbi5+D7LJN4p1dIFLOdRuaWTOBGMpqfHPdNBCCGEkO9hAph2elDxdM08JM0ktNGQaMbwsodtl0CQAwG5H+pw1AvyI43JFowom26775vS3lQq5aViXiO7w4cxgPd5WVEmgAk5jvOY62WlcUqVJlK+DGxEpjkWLbJU96+8+w8vewi1iUZYnbiZsOX1RdS+arkLOAUTc+oW8SyApuvnFxcP+hsHIYQQQhxMANNOqq0HY1VgIzSyNrgFl/qGqF27s9lkDS6dgvpEE8ipvNGwhJs+SrtYxDPJP1PlfeKtySBGlz9mqQ4kygQwISfI2nf7+YbXvUZpnFKF7/eDSh9EdbweZ4R3/3Y40WRR43LYhTWBPFvuYal91dIFvCd8RArlLVO8QjOox+3J2n3brx2EEEIIcTABTM/YiXpz8b0ojlVAG1I9/UT1q8jyWOfwoisJm4mVz6LdjIH8fNM3kB2DlHbpOT6wcBT2Ro5AI6/U/dGWz3GbywQwIf+P4XP/xvC6vUrjlCp8v3+1fjEyTUF7scW6f124pXg8imLlsAs1iQYpBrBUEp72bbOV3AUcSoUxvvJp7h1oOgYMj3uggxBCCCEOBxPA9HTKaCq5pypmxqENOQS4qfheyxxedPWA6PnaBUghBXIq4VSEmz5Ku3Fo82bDEmhkU9suudtb7dpRJoAJOcP45wGG192mNE6pumKsO7ErfAiZRPYWL1us+1f2o1L0K9cR2YlX6t7hfoZaSulaXxfcgkyzpPlLtWtEdek8knuPgxBCCCEOJoDpGQ8r3m/6DAqROy3VrltPHHS807QCpGM+al6t9rujVGsCeGTZdDQlW6ANGYXpKp1kqcNoygQwIcc7gMcbXndKaZxSZcWd91Q8ibZUGJmkNOaHdNNmW6iA9lLfUHwT3A67sS20D/0LR8CpdN0p7eg5Ntk/E6FUBJnE115mqSkGNKO+7iCEEEKIw8EEMD1d8vd3hXfhYKQA2pBNxwOVz9i2avpi7yB83roBpGOKYhW27f6mtLeULlvpttVGwkxgRvVcKXxRu3aUCWBCOsLwuOcpjVGqcF/1btNKZBgpMFW7RqcrYHOXPggZmWw3Ask2yEjdLBbAUYsoz7H+vhHYGtqLTCLT6R6tesW2Z0G053QWuNZd8M0Nf+sg5P/YO/MgKco0jVdMGDE7RmzEzO5G7IYTs7GxsRt7xIRQyTUy6Ho7nlRyC3KIiOd4AYqO94oCow7iiIonCngfoOKJijIgqNzQndVVfdL3WV1dXXc+028wzIxjNzfkm/k9v4jf/92Z9WXm9z3f976EEEIYANPeJ9wTq2ahvdAJbWxLOzgtNjGQAWC4x5OiY7GmayNI70gJuFvrHmZgROlBKAuMDzQ+CRcutPFy+3sYoPS6UQbAhPRx+vd4y7E/UDpGqbLQ5IzYFJRkyuElzfk2jKu80VcVN+Rb/876hYFti7OoZbmvTmNTKs+P39T/Djk3Dy9ZmfgUA52Raq8TVWPUKrV/FiKEEEIIA2Da+4R7TsPjUIjsoA9k+CvK/zWsbDy+Tm0H6ZsPO9diSHS02vtIqcYFm9EV16Ep3wpt7EzHcHpscmCf6wGUATAxnvDO4T+zHDumdIxSZWVTr919L9JuBl6yIrEag6L+CkwGOiMgf3dQ2ZEuw2mxSfz+ob5RfqtnxqZAvt29pDpXh/PLr+AGCrpvS+1E/y0XDQsRQgghhAEw/b6yQPBB5xfQRqrYjek1dwS25M+eUwKTIT26SN9IiDWq4jpfnWKglGWge6ez2IUp1bMD+1wPoAyAifFYjn1KjwmlY5Qqc2nbSnhJdzGNa3bf66tyw3uDpmimAkElXczgut338fuH+koJXR9rXgbv2FsR7CFWBKP7s9jjtBAhhBBCGADT70+4z45PRTxbDW1sTzs4NaDln/deezkJV5mtBdk3C5tfZABM6UGdQtJbBrrn7+ICqH9kAEyMxyqJTFM6PqnC8s+lHpd/Xp/agpPLxvtq/iRhtWwOSxZTCDKvd3yIAc4ItfeB0l6rClVeh8Z8C/YNy0BT7w3vjDwcIoQQQggDYPr9CfdVNXdBdosfNCz/fNg7ai8svxJ1uSaQfbM1XRrozQCUHp0y0NerLAP9fucXGBwdpfbaUQbAhPxND+AFSscn1dVSx/Pyz0UUcV/DIt9tspK/d17jUwg6Nbl6mfuxlC31lRK8el2evSonZaCnc+zQ/bkivCvywxAhhBBCGADT7wbAi1qWQxtdAS//vPfaT6q6GR2FTpB9k3VzuKn2AV+Vs6PUS8OKy0BXZGtwTvwybujwhwyAidH8z8rTfxguibyndHxSXSeAPS//XJnd7duA8c2OjxB0Cm4Rd9Y/wlK21FfK7/WG2jnIuFl4RZ5loOmBuSO8M/IvIUIIIYQwAKbfDQg+VxgQlKTj0h830AGBhJkTGQAfMNKnekh0tNr7SanGZ8xDTc/iEGB/d8oAmJAerFL7ny3H3qJ0fFJ15Z/j8JJX29/3XYlhuXanlE3A5u5dMIFPk19xPkN9pYxRqcQl7bm85LWOD9ReI6rGJitq9w8RQgghhAEw/UsJ4vPKp0PKUWnj1fZVaq8bA2BvaMg3Y0TFtewFTOkB2v/PVQaS0MbDTc/zRL8/ZABMjCa8M9LPcuxmpeOTKiphfFn1bZAKRl7RXczg6pq7fbe5qr8TkdKuxrTEaSm04+LKmzifob5SQuDHPa4aF81U4qz4pYE+IEAP23z/bReNCBFCCCGEATD9bq8qKeejCSnxM6t2fuBL/DAAPvi+ZrfXLwj874LSI7lYc3LZeJWnat5LfC49xdReO8oAmBDBitojLMfOKB2fVNH79omWl+AlW7pLcVpsku/CEZkPTamejUQhCVN4tPlFBsDUV8rvdULVTLQXEvCKtJuVtSvfbXKhx9zZIUIIIYQwAKZ/+ZB/tHkplCEnkn3bv4o9gI8uz7S+5ruFLUq9XpR+vvVNaKM0Ux74Mv8BkQEwMRqrNDJT6dikilrqDC0bh/WpzfCS3zcv82WoeGLpRZCNvwW3AFPYki7B/8Uu4TcQ9ZUaWoc90/o6xw3dp+GSyDMhQgghhDAApnscFB2JDzvXQhsfd/4Bgw3ojdTfiUjQbUzJsyPBqs41vuttRqnXlR5urL0fWTcHTSSLXZhcdQvLQOuXATAxlgHxkT+wHPtxpWOTKtpQKyV92wod8Iq2QkI2lfo2AP7/hkUwie5iGtfsvocnGamvlN/r/Y1PwoULr/g6tR3DysYzBKZ9W2p/Et4x/O9DhBBCCGEAbLry0XxmbArkFJY2Hm56zogJsdyD02OTUZmtBTkw3k18pvZ+UqpzYTqCc+OXo0rZc6YIF/c2PMaS7vplAEyMpWcB8UeWY3+sdGxSRRut7m541NNQ5MuubzA0OhZhpddof/Ohp1tfg2m80r5K7T2htK/NLqMrrkdTvhVe0VrowDj20Kb7Ntrz/fbTECGEEEIYAJtuf0f6z85S128pWUxhctVsI06F7QmAJyGerQY5MJ5qeZU7fikNSLUHLn76QgbAxFjCuyInWI5donRsUiVKP/u3Oj6Gl8xvfNq3m2fDPb7YtgKmIRuAzyu/PPAtj2hwDP+pDPRnHpaBduHivobHffu8o8fAUru1/7aLBocIIYQQwgDYdPfuVi+iCE04mQo5mWxEyCf/4y/LxmFd1yaQ/ZNz85hRO5cnBik9hA0/UllBG99272AZN/0yACbGYkVHnGg5dr3SsUmVfMtLP3uZv3hFS6EdYytv9O2JOAnQVyfXwzSk5/Gd9QuN2PRMg6MErw94XAZ6ZeJTtoSi+zJjRe3hIUIIIYQwAKY2lre/A22sTKw26oO+ZxetkYseh0IsW4Vz4pcxLKL0EDb8TK+5A6liNzRRl2uUPug8/aJbBsDEWMLbh59rOXZW6dikSsKQy2tuR5eH71cp/3xSdKzaa3QgAbD8DybyafIrnOTT0t3UTGWjyaiK6zwtA12SicvGG64J0L4tidwQIoQQQggDYNOVPlEbUluhiSJc3FW/0KgTnjKJWt72Dsj+ebzlJbX3kVLNygLJ2fGpKM/WQBNpN4Orau4y6pnvQxkAE2OxSiLXKh2XVNF3/ILmJfCSBU1LfF0O1eQAuKPQiUurb/Xt6W1qpkM8LgPdWezCpKpbOG5o30btBSFCCCGEMAA2WQkDzi+fjupcPTTRXkhgfOUMoz7mZcFmYfMLIPstDS6/WZ4UpPQQHRwdhQ87v4Q25jYuZvlD3TIAJsZiOfZ8peOSKnq3fpJcB69IFJKY7PMgxOQAWFjatkLtvaFUYxloFy7ub3yCG0jpvlzRb9OFx4UIIYQQwgDYVOWjfVr1b9BdTEMTTqYcpxtWzkfuxczaeci7eZC+e2TNaXjC16cbKNXwrPld0/PQxhsdH7L0oW4ZABMj+c/nhx0X3hV5Wem4pEo21J4bn4aK7G54xabunTjZ5730TQ+Ao5kKnBmb4ut7SM1SNpxMqJoJ2bzvFSsSq+XZofYaUc/dGN4V+UmIEEIIIQyATVVOW93XsAgudPFO4jPjPuTlXlxSNQvSO4z0ztqub3FqbCIXRig9zABY+gBL2WVNfJPajmE+X7wOuAyAiZFYUfvHlmN/qXRcUh3f8FK+19P++kva3vL9+9P0ADhRTMopblZDob5RnjmnlE2AbEDxilIDDw7QgzJuRe1/DxFCCCGEAbCpau0721MK1LhTnv0dKcd9BapzdSDfpz7fjCnVs31d2o5SLc+aC8qvQI2y0v91uSZcWH4ly7vrlQEwMRKrJHKC5dgxpeOSKlDKj85rXAwX3pB1c7h+9xzfl0E1PQCWDQRX1txl3ByY+lsJXp9vfRMeIX2AZRM9N07QvuwM74oMDBFCCCGEAbCJhns8KToWX3R9DU1IOepp1bf7fhHjUPxFdAzWpzaDfJeMm5X+PtzZS+kRckh0DNZ1bYImpPrB1OrbuICjVwbAxEjCJZETLcduVDouqZLgcmXiU3iFbB49N3657zdQyXVcnVwPU2EATP2o/F5vqJ0D2YjiBUW4uLP+EY4b2pfZ8Pbhw0OEEEIIYQBsohKmnR2fCulXpYnqXL2cTvP9Isahurz9XZDvTuqWtb8jmxUYAFN6BJ//z7W+CU0UUMQd9Y8YufnHJzIAJkZiRe0zLcdOKh2XVMH7VNqT7EhH4RUfdH6JwdFRaq/Rwbi0bSVMJVFIYlLVzax2RH3lnipm0yFrOF7xUvu7XCegfelaUfvXIUIIIYQwADZRmVxeXHkT2gsJaOIPXZsk7FN73Y6mJ5ZehHsaHoMLspfPkxtwWmySsRsCKD1az5rb6h6GhK6aeKb1dS7g6JUBMDESy7En9ugqHZdUwXxqbOWNaCm0wyt+2/hMIDZPyftfvgNMRXqZnsFeptSHShWzNcmN8AqpajS0bBzHDu3dUntuiBBCCCEMgE1UFgpm1M5Fzs1BE0va3jL2410WkSZX3QLZAU6ATd27ZEcxd8JTehSeNdIvq6PQCU18klyHIdHRaq+b4TIAJkZildo3Kx2TVMl8ambtPBTcArxgT/uEWwPRPkE2p93b8BhMZVHLcmPnwNTfyrziseZl8IrduQajK8jR/brUitrHhQghhBDCANg0pU/KQ03PQRNFFHF3/aOB2MV+qDvfT49NRkkmDtPZmY5hfOUMhr+UHqVnzVmxSxHLVkETO9NlOLlsPBdAdcoAmBiJFbUXKh2TVEnwIcGdV5RlKuV9Hoj3psz/bqy9Hzk3D9Moz9bgwvIrOe+hvlTWla7dfS8ybhZekC5mcPXue4xdQ6L79T0rav8oRAghhBAGwCb6cvt70ERXMSUnYI2e/A5wRmBFYjVMRnoIyenEfqXm/g4oPdoOiY7BZ8mvoInaXCMuKr+KO/h1ygCYGMeA+EiZy7ytdExSBQ50RuKjzrXwilWda+RvUHt9DjZMn/in6iQmUUQR8xqfMnr+S/2thj7AcxsXMwCmfbk1XBL5SYgQQgghDIBNc3B0FL7o+hqaqMnVy+TB6MV/CT3nNDwB19BOwI35VtxU+4DRvwFKj9VC69K2ldBEak8pSy7g6JQBMDGOn68++3irJLJG6ZikSir37ErH4BUPNT0bmHemXM9fxS+DhEgmsTG1Daez9y/1udLC5fPkBniEHGxQe22ox5baVf2+veA/QoQQQghhAGySMsE8MzYFTqYCmtiQ2oqhZeMQVnrdjlUoc3HlTWgtdMA09oS/c7kDntJjoPQLvL/xCWiiiCJuqfttYBazAyYDYGIc4ZLITy3H3ql0TFIF3+xjKm9AWyEBL5Cyp9cEqOypzE+HlV0MmQ+aQlO+FdOqb2fVI+p7ZfP24pZX4BVfpbbgpOhYtdeHemqzFbUHhQghhBDCANgkZcFiRMW1kMBNE293fKz2mh3rxY+vU9thEsliCnfUP8Lwl9Jj2Gtves0dkAVkTSxsfoHPAZ0yACbGYTn2f/VYrXRMUgXvUalak3Vz8IK6XBMuKL8iUFVzZB70Uvu7MIG0m5GqT2rvBaUH+zycVTsfeY96eFdkd+Pc+DSepKe9menxvBAhhBBCGACbpOwynlI1G93KFv4f4cL/nwP6J1pegilI+Cu9rwYFpIcZpX5QnjN2xTWozzVBE6+2vx+oxewAyQCYGIdVag+0HDupdExSBYHHg03PwivWdW3C0GiwKifJHPX+xuC3wimiiCVtb0nZXAZWNBDuqYhwPVry7fCCzmIXxlfO4FoS7d2SyNgQIYQQQhgAm6RMrm+pexB5twAtFNwiZtbOw4kBKWN2uPfnipo7If0wg07BLeDxluUY6IzkAgilx/iUzSllEyC9CzWxOrkeg6Oj1V43g2UATIzDKo2cazl2WumYpB47wBkB2bTkFcvaVgZuw1Q/Z88mZdkcGmRWda6RbzDOfWhglN/yqbGJns0rcm4es2rnsZw67ctZIUIIIYQwADZJ+TBe0PQ8NNFR6MTEqpvRj7s2IROo02KTsD0dRZBx4UIWzn5ZdjEXQCj1wCHRMfg8uQGa2NpdKgtIfCYwACbEc6yoPdly7ILSMUk99hfRMVif2gwvcOHinobfBy7skHf/GbEpcDIVCCqfJzfirNilgQvvKR0UHYX3O7+AR0g1ucD0RKdH3PtChBBCCGEAbJJSGmdp20pooiZXj3Pil3HR/68WQJ5tfQNB5rPkBpwZm8JSTZR6+Jx5sW0FFCE9DaWHFxdGGQAT4jmWY89UOh6pgvfn2fGpiGer4QVdxRSmVt8WuABYlKpA7yY+QxDZlnYwsuLXgbxvlMrvelHzMnjFGx0fSWUGtdeHeuoLIUIIIYQwADZJ6Tf0cec6aGJT906cXDaeAfBflUCbVn17YEuglWWqMKriOi6AUOqhUnJ/fuPT0ERboQNjKm/gxhAGwIR4juXYDygdj1TBZtrRldejOd8GL6jNNeLC8isDuVlKTvA90Pgkgsa2tCO/Gc59aGCV3/bsugchrb28YG3XtzgpOjZQfdHpEbLUfv3fHhz0gxAhhBBCGACboASsUnJ3Q2orNLE6uU5Kqam9bl7cp2Fl47ExtQ1BQ0LtGbVzGfBQqmCRdVbtfOTcHJQgvc+lBzoXSBkAE+IpJ8z6+Q/CuyKLlY5HquD9Ke+qrEfvz29S2wPbQkXmBxOqZkLaAwWFqmwtLqmaxfK0NNDK2B1fOcOzsRvLVEkbrUA+F+lhWhr5st/mC38cIoQQQggDYBPc219WSpYpQkpSMxDsZRI1v/EpBA251wOdkWqvO6WmKM+YyVW3QEpJakFODdxa9xBO5CIpA2BCPMSKjfg7y7HfUjoeqYKTbtKD14ULL3i745PAfkvLXPWUskuwuXsXgkB1rg5X1twVyNPalP7t2P1V/DKUZ2vgBY35FimxzjUl2psbreiIfwoRQgghhAGwCcoH8fDyq1Gfb4YmHmx6hie+erlXUiZZJjNBQXbmnl8+nRMzShW9D6SEpSbmNi5mAMwAmBBPsRz7+B5XKR2PVMH7c3HLK/CKhc0vBvo0qVzfJ1teht9JFJK4qXYu+nHeQw1RSjB/070DXpAqpnF5zR2BfjbSQzba47+GCCGEEMIA2ARlQi0lqNoLCWgh7xYwu+4hBsC9KLv7VyY+RRBw4eLhpucY/lKqaKf+WbFL4WTKoYklbW+pvWaGWuzxkhAhBmE59j/0uF3pmKQK3p9vdnwEL8i7edwa8HmT/G9Tq2+DtI3xK13FbtzXsAgDnBFqrzOlQVq7cOHi5rr53ERKe7O5x/8OEUIIIYQBsAnu7VklOyS1kHGzuLT61kAvZBzOAsgNu+dArpHfqczW4rz4dJZAo1SRQ6Pj8FVqCzTxSvsqtdfLUDt7PCNEiEFYpfY/Wo69S+mYpB6Hv0PLxmFt17fwAJnDybwp0KdK95SBnuDbMtBFFPF062sYFB3JfqTUKOW59FjzMnjFgqYl3GxOe7MlvH34/4YIIeSP7J1plFRVYsd7zuRMzsl8y+RL8jEfkpycE0mzzTgaN4iDoyPQLIKIgICKOIKguIABHWWiuOOuiFvcxlGJQhy3A1FAUFAUga6u6q7qfa9eauuuevVP3aPMJOlSWWzufe/9fuf8vvd51a/q3fu7714AIACHQbMi8tqmO1RUUa7QWUhqWnwJD+vlJ0B0RnS2bydAhpxXxip4ROd8u+9DucS2/t0aE5nq7PUKob0lz6wACBEj9pz3t6UIHHf0nkTLz+ZnRi/Wl9mobNCa7zDHNwR+3GQWjD7U+bz8yPv9O3V6zUXEXwydZq7pppb75MmTDZ7qepX7DsuZqtw/8ewKAAAAIACHQfMG8M2tD8glEgNNOreWN0O/bdvude0b5GeKKppt0DiTB9HBiexnul+XS+xK79NYArBL9hGAIWyMjEwebbYMdPSeRMthckJsgZoH22WDA9moxkXnBD5ymPHPhfHl6i70yE80DbZpZnwZO1thKDX/94sbb1bGy8kGW3q3qdLRa4NWzY6MTJ5YAQAAAATgMGgmLR7tfFEuYSYyzozODvxExvF8ZufGLlVsoF5+JV8sBP68MkQ/ar5fHnbsDZsvszX8JhCAAWxixjGjSrY7ek+i5TA5K3GNkoVe2WB7am9oFkmdHLlAW/t3yS948nRn+4bAv52N+G3fj1PrrrL2/bgjtVc/j1xABMb/70DJ6RUAAABAAA6DZkL98c6X5RK7059rbGSas9fMlc9tQ9cr8ismAK9svoc3gBEdc8TXW7W5RJxdIQjAAHYx45jxJdOO3pNo+Q23BfUr1e+lZQFzpIqz12Y4rvWqlnuVL+blB8yi5rNjl7CADUOreXY/J7ZA9YPNssEX2YjZop97EMu5rAIAAAAIwGHxP3vfl0u827+D8x6PYDXt9PgSme3m/MqjnS8RdBAdPKvruuZ1Oko4FiBcEoAhdJT+56eULDp6T6LlhVPXNN2uQUtRcmPX70MTNyq/3m47mkvID9zf8Sxv/2KoNffsGdHZ2pc5JBuY8HxObCFjCCzntRUAAABAAA6Do6qrZIKrS7yU3OLs9XLNZ7s3ya/sz9ZofHRuaCatEP2gmci+rOHflPaycoXeQr85P49JVAIwQDkIwGh94dSalvWyxW2tj4RuRx2ze5Xr9BT6dXFihUbw7IIh96eRadqW2i0bmDPDJ9ZewRgCh3po0ooKAAAAIACHwdHVVXq//yO5xPPJN529Xq5tgzYncZ2ShT75EbMN9C2tDzIxgujY7gKzE9c69b2S9XJmEpUzwwnAANYYeXDSRY7ej+jA7+Z9Hc/IFjc2362TQhSAzfWeEb9anfmkXCY6kNBZ0TksdMXQa+6Bzb1bZYGvF5EuJwDjECsPTLr/JxP++gcVAAAAQAAOsoe35Pk8Wy2XuLN9Q+hWsh+rZqvsTT3vyq98mY1qQmw+2zIhOjSxOiuxXN2FXrlChgBMAAawzMjI5JWO3o8Y4h15Ul5GlzbcFLrfRzP+ea3nHblMJBfX6dHZBGAMveYeMFvV2yBXHNCSxltD9x2JR2Bk8lOjaqf8sAIAAAAIwEHWPIyPi87RgWxULrG27ZFQrWQ/Hs3bs/Pqb/DtW8Bfn4/F5AiiQ78Lv4jNV8Ngi1zBnKu4tGktkzcEYABbmHHMakfvR3RAs3uRDczbbXPrrw/dbjrmeWBRwxqZAO4qnYWkZnB8BaLMPfBAx3OyQbY4oKsIwFjejSUJwAAAAATgYOtqAL619WEC8FFt4z1FLyTflF9pHGzVtPgSJkgQHfpdiA80yRU8eeZ8RSZvCMAA5SAAo1XHVE/R1v7dskFrvkO/qr08lDvp/CwyXe/0bZfLrGeRK6LMzm6rW+6XDTwVzRiC3eWwnE8SgAEAAAjAgdcMSMdH5+pQrlbWKL9NDw/pR7mqdnp8iVoG2+VXXkxuMdu5OXuNEcOiqwF4NQGYAAxQHgIwWt+OeEdqr2xgFlGeHbsklJHRPBNc4fhbwOZZalLdYha5Yqg1C/uXNq6VibE2uLt9Iy8XYDk3lfxRBQAAABCAg6wZjE6svULt+S65QtrL6PKG1Uz0H6Wjqqv0TPfr8iv9XkqLG2/hc0d0IACfVjNL+zKHZIvyAfh+vh8IwAC2MOOYxxy9H9GBN4C3WwrAtQMNZjFvKANwpU/eAn6s8yVnryHiiQ3AnmxwV/uTBGAs566SP64AAAAAAnCQNQF4St2v1ePQ+bFpL6tFBOBj+iwn1y2WWWnuV3amP9UZNbNDOYmF6NKE6smRC7Stf7dcwZOn37Q+xO8CARjABmYM84OSv3P0fkTLi6ZOr7lIn2erZYNd6X06tWZmaJ+d/fAWcFu+UxfGl/MWMIZWc5/OTVyvPi8lC5jzhxlDIAEYAACAABxO3Q3Aa3hIP8bP8972p+SpKD9SkKc72p4I5TlmiM4F4NTHconHu17md4EADGCDwwH4ZUfvR7QcgCfEFsi8iWsDs/X0KTUzQhuA/XIW8Bu978v8nZWOXkPE4Z6jmBG/Wp35pGzwas/bGl1d5ez1QQIwAABAYCAAu/kw7loA7vfSWlC/SiNYJX2MZzrP077sIfmV+ECjququZJU8IgH4//B092sEYAIwwBAIwGg/AM9XbKBeNjC755wS4jeAjWbMOL9+pboLvXKVtJfR0qa1GsE2tBhC/xiAC0nZ4LWedzS6eoqz1wcJwAAAAIGBAOzmw7hrAbgj363zaxcRAI/jM13ZfI+yxZz8yis9f9DYyFRnrzFikCUAIwEYgACM/gjA7/XvNG+WOnt9TuQ5zGb84DIfp7/QmdGLQx3rMZwSgNFRCcAAAAAE4ODrYgBuy3fp3NpL2Qb4OCaiTLx5q+8D+ZWUlzar5Ik9iARgArCbEoAhVBCA0dUA/FJyC4tmvx7TXhBfqqbBNrlKQZ7ubN/g7DVEHO7vycRAk4ZCAEZrflS5fyIBGAAAgAAcbAnAwdR8rnMS16k93yW/si97yJypxv8BIgGYAEwABvhGCMBoO2z8wmIAfjG5mQD8vz6LBzqeU1FFuUrzYLtmxJdx1BGGSnNvnl5zkWpycQ2BAIy2PDTpwIhPzvubCgAAACAAB1kCcHCtLPlw5wtOT4IcSfAZE2GwhkgAJgATgAHsQgDGbxpLTaxdJBP2ykAAPoGasaNZPHogF5PLvNm71TxnsRU0hsY/BeCEhkIARmvWj6yp+ocKAAAAIAAHWQJwcDUDrfHRefosc1B+pbfQr6sab2WVPCIBmABMAAawxj99cM6fjTw0+XVH70e0qHlGvTC+XCkvozIQgC2MbW9svlu54oBcJVsc0A3Nd/G5YWh0IwBXOXt90JqJkn9fAQAAAATgIEsADrbm813SeJtMSPUrbAWNSAAmABOAAWwyqqbqL0v/8zsdvR+RAOzs9bERmswzzJa+bXKZ6lydzq9dxGeHodB2AH67b7vGRqY6e32QAAwAABAYCMBuBkICcLA12x090/26/Ezp72fbJkQCMAGYAAxgAzOG+auSHzt6PyIB2NnrY2t8OzO+TE2DbXKZV3re0k8j01Tp6HVEDEoA/iC1x9xrzl4fJAADAAAEBgKwmwNkAnCwPXwe1ufZavmV3kK/eZOZ+INIAHb2uoVMAjCECgIwflcAThOAnQtOt7c9rnwxL1cx/zPXN9/FUTcYeDkDGB2VAAwAAEAADr4uBuD2fJd+VXs5kxnDsBV0n5eSXzFbQf8ytpD/C0QCMBKAAQ5DAEYn3jbt99IaCgHYZnD6l5pZeq9/p1zGbAU9qe4KPkMMtARgdFQCMAAAAAE4+LoYgE2knFd/A6uhv2fHRKbqaZ9vBf27JFulIRKA3bxuIZMADKGCAIzfttPOebWXqWGwRUMgAFt/O3tW4hrnt4Le3LtV5rmrkt2vMKASgNFRCcAAAAAE4ODrYgBOe1ktaljDRP8wTFCdE1uoA9mo/ErGy2l1y/1sD44YwgD8ZNcr/C4QgAGsMDJCAMZvDhsTYvMVG6hXGQjADnw+d7Q9oUGHt4IeKA7qN60PEYAxsP4pAMc1FAIwEoABAAACAwGYAHzkAXg1E/3DoLmm5qypbDEnv1I/2Gy22uP/A3G4A3D/brlCUUWtbXuE+54ADGCFf9w87s8rD07a7Oj9iCEOwK/2vOPstXFnK+gL9UHqE7lM82C7ZidW8JyDgfTwTgmNg60aAgEYCcAAAADBgQDsZgCeXLdYnYWkXMEE4MsJwMM2CfKzyHS92btVfubD1B6dFZ3DSnnEYZws3ZPZL1coyDNv//O7QAAGsIUZx7zs6P2IIQ7A5pn45zUzeCb+jvHuJfU3yox3XWZn+lONi87ls8TAae7BGfFl6ip3DxKA0W4A/rsKAAAAIAAHWTPA/NfYPEVydXKFrJfTlY23aMSh8529bn7WDMCmx5fKrMD1K0UVtbHrVY2pnsJ5wIjD8LswLjpH8YFGuYInE4DXE4AJwAA2MGOYHxCA0cUAvCP1qU6pmUk0/A5HVVdpQ9crKqooVzF/27PdmzQ2MpXxDQbKrwLw1dYWYbze8y4BGId6cNJnJ+345U8qAAAAgAAcZA9P9Lt2LuwtrQ/qJALwsH7u69o3KF8syK+kvYxuarmPCS/EYQvATXIFT57WEIAJwABlIABjuAPwXp3CG8BH9DmdHbtE+7MRuUzay2pVy72c64yB8o8BOJ+UDZ5PvuHstUGrfjQyMvkvKgAAAIAAHGRdDcClsx4JwJyH9Z00DbZpTuJ6ohDiMOwMkRhslisUigXd2Hw39zoBGGAIBGC0fW7+qTUztTfzpWzwWeagTqu5iAB8hBHqmqbblfIychmzS9Pc+us1ggiMAdE8v8+vX2nt3ru7fSNzS1jOXSV/XAEAAAAE4CBrJgvOil7s3Gro29se5yH9BEyCLGxYpc682+dhfRefZPZrQmwBK+URA3JO1zcdDTCXxR4EYIAyEIDRtmMiU7Q9tVc2aBhsMW+2EoCPMNaPiUzVC8nNcp09GTO+mc/4BgOhmde5ummtPBVlg7sIwEgABgAAqCAAh1gzEN7av0su8Vz3JmevV5A052E91Pm8PHnyM2/0vs/5Z4jfk+aNk9mJFeop9MkVMl5OFydWEIAJwABDIACjC2MpcxavBczbogTgo1zkdl7tZYrk4nKdTb3vMb7BQGji67Km31oLwHe2byAAIwEYAACAABxeR5V8t3+HXOLF5GZnr1eQ/OoN8Dn6KP2Z/Iw5y3h9x3POXmdEP2ki64L6VUp5ablCv5fWrMQ1bIdIAAYYAgEYbTu6ukpb+rbJBp2FpKbHl/Km6FFG4Jta7lO2mJPL5It5PdL5gkZXT3H2WiIe6T23ru0J2WCwmNeK5nUaQQBGAjAAAAABOKyaAPyHvg/lEm/1/TeD3RP4tt+Cev9vBd3npbSmZT2r5BG/h1X6ZqKkqKJcoX6wWeaNnX/m/iYAA9jBjGMecvR+RAd8tnuTbGCefy+pv4EFUke5APbkyAUyb9i6TtrL6ObWBwj86GvN/++DHf8hG+SKA1rSeCu7CGE5dxKAAQAACMCh0AyCn+p6VS6xO/25xkamOXvNguhXW0EX5Wfa8l26vGE1kySIxxmAV7bcI5eIDzTp3NpLWeBBAAawhRnHrHb0fsQQj6UyXk6LG2/m7bZjCFJVdVcqkquT67TmO3RV460sgkPfar4jX07+l2yQ8bJa1LCGAIzl/H3JH1UAAAAAATjomsHkY50vySW+yFbrtJpZTPazFfRRYyZypseXEIERj2NS9IGO5+QSh3K1Ghedy28CARigHARgtKqJr79te1S2WNVyL+dbHuORF8ub/l1pLyPXMQvhZieuJWKhb32r7wPZoLvQaxZ7MDeA5Xyy5A8rAAAAgAAcdM3D8J3tG+QSia/e9mKl8wn+P1gYgK2gDZ9mDprtYtkOD9FnbzKxK4RvJABD6CAA47ftnLG6Zb1scV/H08SNY3RMZKpeSG6WHziYi5lFrkRg9JVmXHFqzUyZZ3kbmLmNibVX8B2J5dxIAAYAACAAh0IzaXFd8zq5RHu+S1Pqfs2D+gk/D7pK5s2/QrEgv2NWGY+PzmURAeIxaM5hd4kPU3s0NjLV2esVQgnAEDpGHpx0o6P3IzrwBvDSxttkzpq0gTl/uNLRa+O6Zqx5TmyhPssclB/YntqrCbEFjJHRNx7eaezLbFQ2qM7VaXx0HrsIYTmfGhWtIgADAMD/sHemQVaVdxq/s3zIVKpmUpX5kHyamaqpqckkEfoCOnGPilEToW+DG4sICrK4IYsbiysGREURxbhiQE2UKIsLKrKrrMred+nl9n57u913777Lk34Ku0IM0BC6Oe855/lVPVWglnXvOec99/2/z38RMoCdLx5acK5QZ6ETppAuZDAmfK8ynC0I0C4IjsCG+HY4gQ/aN7GVuExgSToF/X/gWvCA0SA4N4wJKsZeMxdKBrBwHUUHht5g6HqUDGglfHPVA4jnk7CCT2Jb9Rt5GmLHIM5RjubaYQe64jSZwJJtxOeUnbki2WZYwd5UKS4OjZYBLB1LCz1CCCGEkAHsBjHoHR2eiWguBlPIFrKYUTtfBrBFQdrI8HTUdDbA7uSRxxut7+MXgesU9EnSSSaBcNYu2wyaxPLW1cZeM5dKBrBwHV6/b1iXCoauScnivTNnTDZlW2EFO5P7cW7wemOvjx1EA31J8wrkUYAd+Dz+lUxgyRbiM3pjeCZi+QSsYH38SwzyDzP2+kgWqtQ30yOEEEIIGcBuEDflbLccybbAFAooYH7kdzKALXwmHmp4DqzEtjvZQg6vt7wnE1iSTnLtDymfhIZsE0ziicZX2K3C2OvmQskAFq5DBrB0ouSpy8vGoaqzHlYQyoTxq7Jx2uee5j28KDQKmxI7YBdkAkt2EPfvU2vnWdYi/722z/RulI4jGcBCCCGEDGCX6MhclhtR0VEDk3i95U8ygC18JtgGdmXbOjiBLE3gVpnAknSyHQDYxtIUCihgdv0inCUDWAawEBbCZ75LcUPXpGTxvpkjR3anDsAKmrNRViDLCOyFPdA1lXeivKMadkHtoCXTxf3745EXYRVLm9/WOCjpeJriEUIIIYQMYDeIhxbnB0eAhxYmsbZ9IwYF1K7H6nk9+9MBOAFVAkvSyc0xnFb7W3QYNBM+mU9jUvVcJQTJABbCShjHDOhSo6FrUrJQRV3i/nJjfAesIJ3PYEL1bPSTCdgr8c89dQuRyKdgF1QJLJksxt1M7LeKeZGliiGkYyndpWKPEEIIIWQAu0Ws9mTwaBI7kvtwfvAGmXUWz4e+tXoOWnNtcAKqBJaknrP0eVBiEpxPP6Jymg42ZQALYSnegAxg6fhihdkfoh/CCvLI4+GGJRqV0Etm/tmB4XijdRXsBCuBryy7xdVGV9c+kd+f4p8V65khrifLzpmyhSxur3lEXYSk4xnAQz1CCCGEkAHsFjFAeiu6FiYR7qjF4LKxCt4M0HNNy0Hz1AlkC1mZwJJ0Ai1vXQ2TqO2M8FBT7dtkAAthKUUHi//D6/eVGbomJQPMp0WNr8MqXm15V4lSvWjmXxIaY6t5wITJ0zdU3u06E5jP/SD/MFxdPhFs4U0VV0xhhzP+O9ddD9MSKi4IjrCso1g0145R4el6N0rHUrxLl3iEEEIIIQPYLWLG+OKm5TAIVp2q6suQ5AAGbutiW+EUjqoE1vMlSUfpnMA1WB//EiaxL12Ki0OjlbAhA1gIS/GW+n7o9fsOG7omJQNGKMyqX4Q88rCCT2Pb+Btu7PWxm3g/r628CxUdNbAThzNlGB2e4Zr4ht+TZi+r72s6G9CaawfVkG3CV8m9WNK0AiPD07k2WAWqvaQF94fzyXk/LIDPBEdaKYlUOpaaig4V/8QjhBBCCBnAbhGD3Dn1zyKHPEyBlZp31jymlj2GBG++iikozZTDKfD5eqftY1wausk1hySnmwjARJGfl17dLf5dAbWDxHt8YXAUDqZDMAjOVOSYAmOvm0slA1i4Dq/f94Mu7TJ0TUoGJNPeXHU/0oUMrIC/3RcGR8rg6uX4Z1rtfLTlYrAT4c463FHzKJ8FRz8PvD9MFu+purQ5FwUTmWfWLQDXSD8ZwWf0vTiheg4yhQ5YwYF0ABfovSgdW5Eu/Y9HCCGEEDKA3SIawBOqZ4Obc5OYF3lRbZsMCrJ5mNDikHnAhHwY24TLZAL3eO/PC16PcVX34dGG58F1+VDDc+A74/KycRjgL9FhigPUnaVfn22CSaxsW6dnSwawEFbDOOZ7XXrf0DUpufw3NJJtxrCK27Wf7QMtaV6BnM1G4TRmW8H9+kB/iSP3UN2VvwfSQZwsTM74Ivk17qlbKCP4DJ4xzYssRQEFWMG62BZ1RpCOp31d+pFHCCGEEDKA3SIGUcMr7kBzNgqTWNG6WoGZYRWCCxtfAatnnQID0s2JXeChWT9Vm/+VutfexOq52JzYibZc/K+uWzyfgD9TgTejazGl5qFvD1OG6vDRpuLzT1OfB2QGwfZ9eqZkAAthOQNCJTSA/2TompQM2DNdFBwFtuC1go5CJ26reVh72T4ZhTMSH7RvhN1I5lN4sfltjvJx1D6q+558EtuGo5ARbOgZ05uta2AVr7asdNSzL/WqdnqDJf/uEUIIIYQMYLeIQQ8r+UKZMExiW2KPWn8a9pycG7geq9o/g9PYmy7FmPA9ChKP0kD/MDBruynbip5I5FPYmdqP+ZGX8OvyCejvlxFsN9G8Z2U3zX1T4Gd5oP5pHWjLABbCBDgH+HlD16RkyBz9TfEdsIpFjcu09+ojE4t7269Th2A3soUcPoptxlVl4x3RVavo2/jk+eY3kSvkQUivGcGGfm87qvvcYGtiN6yggALjWMUQ0jFVdLj4059tvOL7HiGEEELIAHaTeGixPbkXJhHqCNOYVlauYYcgV5Tdgj02PATpicqOWra55vd0/TPH+0zjLZ5P4lTIIw+u22ealskItpl4n15r+RNMgokFY6vudcShpcMkA1i4Eq/f97iha1IyRMtbV8MqVrWvN/a62F3ch9xUdR9qOyOwI7tTBzGu6n7u9Wwd4/Cz31v3JBif9BbpQgdoUk6qfpDnIaoI7uUCA8bXFsDRZryniiGk4+mPHiGEEELIAHabOMfzfcMqO9lydkTlNBlIhqmffyhuDM9ETWcDnEZLLorHGl7A2YFr0N+lwT/v78jwdIQ7604r6zqYkRFsJ7Hbwsb4DphEXWcjiism69mRASyECTCWudPQNSkZoLNKh+DxyIuwCnazuTg0SuZVnyXK0XxciPZcHHaEe6rZ9c/g7MBwW+6r+JlvqZoFfo++gPf1o9gm3Fo9h0awjMPTTprg/XoAiXwSFsAOVpqLLp1ISz1CCCGEkAHsNnFz/GzTGzCJXCGn9p+Gis8LDxFYoec0UvkMXm55l7PcXBc08nDr0tAYsP366dNtBFcebQS71lg3WTwsHlw2FuUd1TCJg+kQLgzqMFsGsBBGwFjmxi5lDV2XkgGGx8TquUjl07CCSLYFxeVKmuprPd24DJy5bEc4F/j3ratwWWisrQxOPtO+iikozZSjr6ERvLZ9A0aHZ7DdtK2uk0ni+Q1bMFvF/nQAF4dGK4aQjq2A70GPEEIIIWQAu03MWp9Z9wQ4K8gkXmp5R4aRoTOYBvmH4XfNfwSfGaeRQx7rYlsxtHySawJ/BsjMeF/RuprGba/PYeKM8UWNr9No5KGA1rVZB2us6jeuquXT+DZW4xt73VwsGcDClfTfO2Sw1+9LG7ouJQN+S4eWT0ZjtgVWQFPy7trHlTjbx3tldkz5Q/RDFGBPCijgq+Teb1tCFxtvkHFdMXbYcoZnyXId8z6PCk+nEazEir9D77V9Cqv4JLYVA/0lxl4byVoVHSy+2yOEEEIIGcBuE4Oa0QYaABvi23GODAAjVeQvxnnBG7CmfQOcyr60H2w3VmSDA5Le0PzIS0gXMugr8siDLQofaXgel4VuQj+bzyJzipgANKv+afD+mMSrLe/q+TBTMoCFK/H6fQP5/Bu6LiUD9sWsONuXLoVVvNzyjn43z0C3nF+GbgRjVDtTn23CwsZXcUFwpLHJrnyWLwyOBOdbWwSNYFZNM7mDn0dG8Cnct29Sh2EVLzS/pWRj6XgqFB0uHu4RQgghhAxgt4kb9SvKbkZVZx0MgnNEaRTpMMNQMQi+smw8dqcOwKnUZxtpWDLj37FBPw9+ptbOQzTXjjNBtpDFN6kjRvClNIJLZQRb/f5/rWUlTCKPAh5uWKJKJjMlA1i4Eq/f999dqjB0XUqGaE3757AIjvDgftXYa+MUMR74TfmtYFKjnWEXp09i23Bt5V3ob1hSJj8L5xWz21QBBVhNZUcNlja/Bd73fhpp0+P6uLbyTrTkorAAPtfsbKcYQjqe4l26xCOEEEIIGcBuE4Os84MjsCO5DybBimTO4OnnUOPNCWKQN6JyGhgYO5VMoYNtwJgkYWyW/Oncv5Hh6SjrqMKZhkbw16lDmFG7gNXkDNRlBFsgHhZvSeyCSXCG4oTq2Xr3mykZwMKVeIMlP/b6ffsNXZeSIXuqRY3LYBXhzjpcVT5B5tQZ7J7FZGW7U9lRC85rvSA4wijT7MnGV5HKZ2ASnEPMjkm/KrsZ/dXJ6Ljzf2fVL0LOojFRrbk2XF851bGJ29Jpq9Eb8A3wCCGEEEIGsFu1su0TmEQBBcytf9ZxppvTxADrjppH0ZJrg5PZnTqICdVzHNMSuruC4evUYVgJzb7NiZ2cXUcz8ogRbOg1c5r4HF9VNh48/DOJ2s4Iri6/VYfYZkoGsHAl/Xb/5nveUt8GQ9elZIjxcXvNI+A8XitgwuLk6gcVN53B+z2l5mE0ZJthdzoLndgY3w6a2gP8JZabZw/UP41oLgYTobF5KB3CQw3PsYW2EliPoTeja2EV/kw5LgmN0T2RjqeKokPF/+kRQgghhAxgN4qVVsxoNY3lrau1gbeJmD2eLnTAyTRmW5iRzix5Wx+wdc8w25jYAVNI5tP4MLYJ46tnc/a3ra+vXcT3Pq83TXiDYGU454fp3W+mZAALV+INlDCWedfQdSkZsrcaWj4JddlGWARb5qry7Qwn0rGTTZuhZuWpEsm24MXmP1hW4cq9P0315mwUpsOEi6+S34D3/xeB62QEH1kPjJEtTS5eF9vC9uHGXiPJcu3xHi7+gUcIIYQQMoDdKAYtk2seAjOADYLzZRlIuD6gMl28PzTtXml5F2zt62S6Z2ZdVznVltXA/LznBq7D29EPkEcBpsGM/w/aN2Jc1f38vDKC+/i9v6jxdZjG6vb1xl4zSQawcC9ev2+RoetSMmR/xZEWu1L7YRVfJPbg3MD1ttub2lkDuvRE4ytgMp0TYGxwIB0Eq3DPPzKi5Yx1JuLen2Np7EQyn8Kn8W00rtnJyNWzZ7tHC1lZvb24ablGyEgn0poBwZJ/8QghhBBCBrAbxQ378Io7wApHk2jKtvJzKZvdBuJhEzOg2UrcDXDW2mMNL/CwzzYmJe/RoMBwPNe03HijvjHbwg4ANNr52fUO6AMN9A/DmvYNMI2nGl/T/TZXMoCFayk6MHSaoetSMmifxb2LVdRnm1BcMVm/oWf4nnM/9WTja0gXMnAK/C7r419iYvVcDPIP69NniqZpScVt4IxduxLPJ/F+22cYFZ6Bgf4SV5qQjIcfa1gKi2D7fbbht01cLp15FR0qXvaT1Zf+s0cIIYQQMoDdKAavnGOzPx2ASXDOzn11T7o6m9ZOYvu7S0M3gXOk3AADzY9jW3B95VQejBhfccHP90Tjy7Zq1c3DTLY0HFI+iZ9fh5q99ixwrY6BP1MBg+g+vNE731zJABauxev3jTF0XUoGddZ4sGEx8sjDCnLIK26yMMHy9db3wNjVSbCak12DjiRk937nI+7riyumYFfqAJwAk9ffaH2fhrbrElgHBYbh49hmWEVNZwOuLp+I/obH45KFKvXN8wghhBBCBrCbxWzV99o+hVF0zwE29JpJxw7kGfRy/o9bCHfUsv0b55YanXU8s+4JNOfMn6v1XQoooLyjGkua38RVZeM1Z6uXsvRvqZqFRD4Fk2jINsNXMcVVB2Y2kwxg4Vq8ft/gLsUNXZuSIXvgGyrvRjTXDqt4J/oxBvhLjL1GThX3pecHR2BF6xrHmcCEnY8WNr6KX4Zu5B6S37dX1gsTh7cl9sBpVHfW4/nmN7vnKTvelOT3Y4zG58QqvkruZTcyY6+RZLny3oBvokcIIYQQMoDdLJoqCyIvwTR2pw5yBpFMYBuJz9K1lXchZLM5Tqdbrb4lsYut0njwxmDfqPtxa/UcRLLNsDMFAAfTQTza8AKrV2UEn96hm5Hzf3cm97Gtuu6ruZIBLFxLv91X/5+31Ndg6NqUDDEBLwqNwr60H1YRyFTgstBY/Y5aY4IxZnWsCZwt5LAjuR/Taxec9rxbXiuayava16OAApxIHnkczpThicjLGBwa6+i4hd/trprHkLGuyxQr8B17faVeUcZb6rvKI4QQQggZwG4Ws3lpXqXyaZhEczaK6yrvUkWYzcT7NaF6Nlgd6yZac+2sWmc7s6Mz5C0TZ1DdVHUvyhxkxvMAiq3i7qlbyKprfkcliJyi2Krw09g2GAbbDBp7zSQZwMLdeP2+H3cpYOjalAzSO20fwyqS+TQmVT9odEcaJ6voKBM460ATmCTySayLbcHYqvvY9veIsXnKo6dG4P32zxxr/n7XCP46dQiz65/BxaHRjm3RbuX8885Clp2uHHttpV5Rm/dwsdcjhBBCCBnAbhYzcX9dPgFsWWQSeRTwcMMSbehtKBpzU2vnga3w3EYwEwYrVZndfpZFGd804TkLaW+6FE4kXciAbeNur3kUZweu0TviFA7eriwbj4qOGphEQe96O0gGsHAt3mDJv3r9vs8NXZuSSXOA6xdbamy91rJSlXAGVAKvaf8cToZjZd5t+5iJpt0VwfzuPcYm5wSuwcst74DGqJvoKHRie3If7mDcEhjumLbQfNfQ2Lay80FtZwRDyyerYEA6kULegO+/PEIIIYSQAex2cW7KFwbO4VnZ9onmWdlYc+sXoy0Xh9vIFrLYntyLqbWPc22xGuOMmr+/Kb8VXyS+htNpz8XxYWwTbq56gLPMVfVyEofTPHximzaTiOUTGB2eqcMbsyUDWLiWn352+T96S33LDV2bkkEdcEZUTgM7wljFntRBXBAcKRPY4ufgirJbsDG+A06Hz/onsa2YUbsAg8vG8vsz+ZX7cV4HintPquua3Izft64CzVC3wv3ustb3OP/YEXte3md2/UrmU7CKzYmdTEIw9hpJBuhw8Zc/33Llv3mEEEIIIQPY7WImKjNyTSOQqWSQpIMMG6q7JRirIRjwuhEGxDQoR4dndB8K9fmhEzOx2eLXTbAS4e3ohxgRnsbnzhGHKn2Vqf9Ky7swjWCmEoPLNLfQcMkAFq7G6/fNM3RtSoZVw+23sBqOiXE3he9FP+2DrDaBua9hlaxj20EfTbrQgdJMGd6MrsX9dU9hZHg6hpZPwpAu8c+chXswHUTeBW2fT6brzWfxL3BJaIzt970mxBVLm99S3Cf1pJVdJvA/eYQQQgghA9jtYmYuW/ZyjopJcC7xxOo5ag1qU3WbwIublrs647sh24QXmt9iZS6fZQbMfXbwuKp9vSvmah2L+mwTXmx+G0PKJ/IwQAcCx5i7tjt1AKaxLraVs4mNvXaSDGAhvH7fhC4VDF2fkkF6K7oWVrKkaYX2P4aYwOdxJnB0DXIuMIGPnsnKyuBItoXiOCDXtXw+GRY2vmLrVtDWJ7x0nxPNVQco6cQq9T3lEUIIIYQMYOlIkMr5KTRQTgkdZEgnESCyNRMNULaedSs0ZQ9nyvBA/dOgEcfqjKJevMacq8XWagIIdVRhfuQl/KrsZr47bJ9h31tzuUeFZxjZkv3JxldVrWS+ZAALV1N0qHiw1+/LGLo+JXMSatkO19KE2m9SpTRmtPcxJAY634UmsOiZz+Nf2bp1Md91Vrd/ruioYaynd510QhUdHHqbRwghhBAygKXuAJXVYQdhGjuT+2mYaXNvY31rULreBCbpQgbbEntwe80jODtwzZGK4F64ts81LQf/3wIgPGhjuzkawZeGxvA6u/odwux4tuAzjUQ+hfHVs5S9b75kAAtX4w2W/NTr99Uauj4lg0bqsO1tbWcEVsGquMnVD6p7kiHqLxNYHIPSTDkutPm8bqsTj9e2b1AHIaknpbwB31UeIYQQQsgAlv6iZa3vwTSiuRhuqLxbVcA2l0zgv53T9mH7JmZP87r8XQYl//sB/hI80/QG0rqmxzGC89iZ3IeZdQvwi8B1rnyPFHWJ331zYidMo6yjCpeXjbP1AZhLJANYuJqi/UN/6PX79hq6PiWDdE7gWrC6z0reaH3f2OvjRnWbwC+3vINkPg0hAplKXBQcZcv9Lz8zZ1zzO1hFHnnMrV+sRBepp/bPkX57rv6ZRwghhBAygCWz5wCTBZGX1SLUASqiCax20H9FWy6GD9o3gkbwuYHruQ5pUp7UYdJAfwnm1D+LWD4B0XNFDGfNjgxPA5/DIkPXSF+1+L+m4k40ZVthGutiW5S9bw/JABauxhvwfc/r931k6PqUDPvN5WgDC6Exo9aoBsZAA/3D8FTjazKBha0NYMaq02vno6PQCauIZJsxvOIOVyb2Sqekw136kUcIIYQQMoCl784BboRpbEnsYgWbsddOUiVwbxjBrNB8tOF5DC2fBF6js0qHoF8pNRRcn/2ob//OtsZLm9+W+XuKVHfWY1b90zQdbXno8vce1DBLPo88DIMtutX+2R6SASxczY8n/+8/FB0qXmzo+pQMi6fYuagl1warYDLvzLonVB1nYAw0KDAMDzcsQWO2BcK92NkAZgzF9stWsjWx29YzlKUzpo+9gZLve4QQQgghA1j6i2iyfpHYA9NozkVxXeVUZXk6RKoEPnHL4prOBnwW/wKsErit5mFcW3kXriobj2EVt2N81Sw82/QGvkkdRg55iFMnnk/i8ciLxq6Pvjio+Si2GabB5IUbwzPV3cEekgEsXI+31HenoetTMmyPe0FwBHalDsBC2GGDyYTGXie3qujbLj7Tan8LzooW7uRQOmTLGcA8i2E8anHBAMcf6VxI6lmlvqUeIYQQQsgAlv52U7+kaQUMhG2gVSnmIMkE7pkCCmDr4pZcFOUdVWC7q0Q+Bf5zcVrw0M0VSSU8ZPRVTDHykHF/OoCLQ6Ntd/jlUskAFq6n6HDxEK/flzZ0jUqG/fayS4uFsAKZlciO3+fYVdz7jKu6H6WZcgj3sSG+3ZYVrHyfLGpaBiuJ5mIYFZ6hBFKpZwV80z1CCCGEkAEs/W2r0Fur55g4m4jtcVmh7KrZnU6X2kELK5kf+Z3j2yMyaWZB5CUUYB5vRdcae90kGcBCfJf+3wz5qdfvazB0jUpm/fbS3LN8TAf31/2VZGWs+JywmpLtbIW7WNW+njOhjX02jxe3XxwcjT2pQ7CSr5J7cV7wBiWQSj2psytx72qPEEIIIWQA/5m9M42OskrzePWcaef0h+meD90z5/TMmTPnTM+XsZtQJaCNC22rLSqQqhAwRDbZFKURoVWkQXEBkRZpFEXFxgWnRRBBW0TFRgQXEGQxkNRe2VNJKntSqUot/8lzQhRkMZWFet63/r9zfue4fEnevLfq3vu/z3PpmRP7a71T4YoEoI1QrAF5GVCxl2meWgks1a6EXCg2N+zEJa4ctWOjr1pPtvWXwzO66L6fcKXpA3gTyQCYZDyXeHN+ZnM5vlI6Rqmuua20d017UFIU8eEa71QGJYqVEPgG3wxsb/oIMjcimUHnutdwc2B5V+dVLEd7IoLzwfbPVIlVnf7KQgghhBAGwPRMJRDZ1rgLqcEJP+3bRtkwdy4eDT6LxngzCLkQ7Gz+RN47teOiP9q0yaEZOTyjDbnnerT/dlYmGUcGwCTjGfT5jT+0OR1vKR2jVGUb6NeRTjqSHVhY+QSv0FGuzNeGe/KwtvY1tCTaQMxNPBnHkqo/Gy4AHurOxXvNnyCdNHa1f+Z+EP1+i+zHBn1x488shBBCCGEATM/eBnpJ1RokkIQ2DrYV4ApPPk+ym1D5m4pLg08zBCYXhPeazB8AP1W7ERrZ3bIflxrw7rMMlgEwIV1rm+VKxyhVZpZL2kDfj5Y0t4H+pPVLCRd5hY5yZQ00xJWDP1athhySI+alM+Q3XIgpP+stJX9AKN6AdHKgq/0zP89oT9x6iTfnhxZCCCGEMACmZ5/gy31E1bEQtCF3ac0sW4IsAy2YaM/tXsz9oeJxlHZUghAGwL3fSBzhmYgj4UJoZEUG3L9sMhkAE9KJtSB7is3lSCodp5RtoM+2dpL7iFkFbACtJ9fhU0oX4rDS+RvpO/5oGUb6ZhjuQPtLdW/he2A3OKpHp2OFhRBCCCEMgOm5vcw9HrtbvoBGXqnfZrgFE029Cn1W2RL4o+UgZKB4z8QtoGWjd3bZUrQpvFe7Id6MSSX38CCPsWQATEgnNqdjuM3laFA6TqnCQ7Wra15Gunmj4T0McY1V+5zomeugkbwX2LTsaTmAoQZaf8jnmFzbUhytQDqpjdUjv3gBA2DaE+OdTrYQQgghhAEwPX94sKpmAzTii5biBt8M3h1pcuXvO6F4Po62F4GQgWB740em3RCVu9w3NeyARvZ3tW/jQR5jyQCYkE6yDo76uc3pcCodp1RhcCJz2bp4I9KJdHXKDcxlcGIg5W8lc6Una16CBF/EPDwf2mSofQx5F1dWv4gkkkgf3dfHjFP7nKgqG6yF9mEWQgghhDAApuef6MvdNFKppY04EnJHMduHZoDyN7YH7oAs+Ajpb9aFXjfl54hsKmX7Z6Osowoaebp2IzehjScDYEI6sRbaf2RzOnYoHadUbVel/Ug3L4TeUPuM6FntPignXZHYEtokRJJR/L78EcOsP+Qd/J1vGpwRP9JH9/7Pnw3z3GjaPdHpzy2EEEIIYQBMz38HkZw63t92FBrZ23oQv3bfDKvS50f7txr9Gu9UbG38ADG2QSO8h/Z7ldbKy6ufQwJJaKM1EcbM0sVs/2w8GQAT8m0I/Cel45QqnccuDT4NCTDSSWlHFRyBO3kAy4B2tYSeji2N70Ou9iDGJRAtx/W+6YbpgiOfF49Xr0/7mkKe2yj/bYaqnKZp1On4W9ahUf9kIYQQQggDYPr9E/41ta9AI43xZkwpuY8hQoYoi73h7pvxfOgNtCTaQEhfiSY7sKBiBbKc5voMkQ2lKz234EDbMWjkWLsTI7wTDbPxRRkAE/JdrEX2W+V+OaVjlSqcw97knwV/tAzp5rnQJn7/GlRZl1/qHo/7K5+EhGHEmLzb9LFhrp+Rz4rfeCfhSLgIaUbuMVf7nKhKV1gIIYQQYmEATL/XLMVtoIVX67erfXZ0YBahsmBeGlyLmlgdCOkLLYlW+XwzXSVMZ6AtrQLVHpRYX7eZm8/GlAEwISexFmRfanM5GpWOVapUWbekG1ckgOt90/g9bFDl7ybr83HFc/Fe8yeQw4zEOCSRxKPBZw1z+FTetT9WrU77e9aWCOP2sgcN89xo2k3aiuyTLIQQQgixMACmPVlkdrWBVlpJJqefb2IroIzSevIE/B3lD8EdCYCQ3lISrcCNvpmm+/yQQxLbGndBHd3tn8sWcwPHmDIAJuQk1uPZ/2FzOoqUjlWqNEiZXroITfEWpJMEktLOlR2UDK7Mo+QqpIeDz6A4WgFiDKpjIeQE5hji8Gl39e/BtgKkm0Ph47jSk8+DK7RnOh2hznnaUAshhBBCLAyAaQptoF+FRpLcxMhYs5xy+v0uyF3Q8h4QkiKyoSEHXEx1j/hgqQoJ3IVgrBYakQ2cqzy3cAPHmDIAJuQkF39w3UU2p2O70rFKlR5gHO7Ow77WQ0g3vmgpxvhnm+4AXKb5TTVwYC7ebdoDqZIkunm/eR+GuXPVvlOnr7V1VP/GkZCqae730FQ8lvXV6J9aCCGEEGJhAEx7HCjkFy9AXbwRGjkcPiGnUxkoZKCyELzGOwUb699GOBEBIamwuWGn2ne7L/cMrq19DVrpPEzEDRzjygCYkNPXOEuVjlWqVPn+eyi4FhJopJsXQm+ofU60N3cDj8OiyidxvN0DopOOZAwLK1chyzlG7bt06uGC63y34lj67/6VCnd2fKOpWWTfknVw1EUWQgghhFgsDIBpT73MPR4ft+yHRtqTEcyrWGaIxRQdmMBrqDsXjwSfRVWsBoT0lAernjbV54aMhRt8M+GNlEAhcpe8Ke9cziAZABNyCjanI8fmckSVjleq+Xs6WoJ0U9pRCUfgTn4nm8TuauCRvhl4pX4bQvEGEF14IsUY6ZtuiEPr8rmwsnq9ii5bcnf6JUqfE1VqkX2RhRBCCCEWgQEwTakF0LLgOrWtdne3fCH3IJmqlStNbdNjcKfTShdBWswS8n00JVoxtXShqe6ilc0aOQgRRwIa+bjlAD+njS0DYEJOIevw6IttTkel0vFKlSpz1r/UvQkNrK/brPY50d7PBSUsu7X0fnzY/Bk7JCliXeh1Q4S/8jNe75sOZ8SHdNMQb5LDo+weRFMxYnM6RlkIIYQQYhEYANOUFpM5gTmo6KiGRloSbZhRuthUYQ5NXanmlJPVWxp3oj3JDQ9ybpwRP37rnWKIjZiebtZIK/yj4SJoJIEkllU/x89oY8sAmJBTsLkdP7G5HPuUjleqVFlT5RXfjdpYPdJNMFaLCcXzGa6YUFkTXe7Jwz2VKyHXJcWScZD04Y+WYbT/dkNU3Fs7lbBaw8H/Xc2fSSc6tc+KqrTY5rT/j4UQQgghXTAApqk4xDUW7zTthla2Ne7CMHeu2udHL+w9WMuq16EqVgtCzsb2xo/kM03te9ybjb4FFSsQSUahETk8ZGerSaPLAJiQU/ivVUN+YHM6nlc6XqliZb2iZU21tfFDmTerfVa0b4cDZX54tXcyHq9eL63H1XbzMjPRZAceDj5jiDmw/Izji+ehvCOIdBNOtGNe+XIeHqWp+vfODi0/shBCCCHEIjAApikHDPMrVkAWMRqpjzdJS1dDLK7owG94iJNL7sUXbUe42UFOI44EHqhaY5r7f+Vdv9wzAftaD0Erbzf9HUNcOWqfIWUATEgv7wGeZnM5EkrHLFWqBBozy5ZAOhilm+ZEK2aXLWUVsIntuionGzf5Z2FN7asMgi8w7zbtkStQDNF1aJh7HN5sfB8a+LLta1zpyTfEc6N6tBban7QQQggh5BsYANOUF4/X+W5FUcQHrWysf1vt86PpObRwrXcqNtRthWxwESLUxOqQG5hrmsMispE8v+IxtW3PpSp5XsUy0wTuGSwDYEK+g63IPszmctQpHbNUqbKmGu7Jw97Wg1CAHCBj0JIByry3Kwi+DU+dDIITDIIHFLmaZYx/tiHWHLKekMMgGtbMsWQMS4NPG+K5UVXGrIX2CRZCCCGEfAMDYNqrDYvnQ5ugFWkzOjbwey4W6GmbHdLqVwKognY3CPm89bBsvKp9Z81W/Xs07MQIz0RuLBtfBsCEfIdB+2/6N5vT/rXSMUsVK4ei7q54TMXVDR3JDjwUXMv1U4b4bRA8CxIEe6IliPOO4P5G2ihLNypDVNfLHP1Kzy1qDqUcb3fjGu8Urh1oajodVYMPj77YQgghhJBvYABMe7VgzC9ZgLp4A7TSWe2p9vnR9G60jfTNkCpxVgNnOKtqXjLNJmfne626+ldYU/uKaZ53hssAmJDvMOizG/7RVmTfqHTMUsVKsPEb7yQcDhdCA86IHzf6ZmIwA5eM8dQgeFlwHY6EC9GejIL0z6H0O8sfNsx4kvfg0eA6xBQcBEgiidU1Lxvm2VFFFtn3DD4y+scWQgghhHwDA2DaKy91j8OHzZ9CK5Ud1cgJzGHgQM9RDZzDauAMpj7eiPziBab4fOiq/s1TXf1bHQuxK4N5ZABMyFmwFtrnKh2zVLny3SiVtxK6aODV+u0Y4h6r9nnRgXsPBznH4GrvZNxTsRIfNO9DQ7wZpHeUdVRJ+GuIyt/uv7+0qZaW4BrwRkpwg28GA2DamwB4tYUQQgghp8EAmPa64mxh5RPoSMagFdnAuMSVo/YZUh3VwH+pexN18UaQzGF3y35c5h6v9t00092/wjtNuzGUm8lmkQEwIWdh8NExl9ucjial45YqVg5y/dY7BUfCRdBAY7wFt5c9iCynMYIr2v/vowTBw9y5mF66CJsadqCyowZJ3hPcY461OzGl5D5DHXwc6s6F/K01kASk+tdQz4+qMW4tyM6zEEIIIeQ0GADTXi8Or/VOxfF2D7Qiod7U0oWGOXlL03PaWQ4JyEbXgbZjiCk+0ED6h3gyIZU2ptjYNMLdv+FEO+aWPyoHLtQ+R8oAmJC+Yiuy/9TmchxSOm6pcrOUVQHvbzsqral592aGK3M3WSdJF5e1ta+hKOJTffg73SSQlEOm0oXMUPNeWRPJXeStiTA04JHqX7aip73R6ai0Hs/+pYUQQgghp8EAmPYpPJN7HTWzrXGXnGhV+wypnoXvCO9EPF69HiUdlSDmxR8tM839dlkuqf5dobr691BbAa7y3MJNZPPIAJiQc693nlc6bqlyu6uAjyqpApbDcqtqXuJ3N4WYdfKe4Ot807A0uBaftx5GWyIM8i0tiTZsqNuKq72TDHX4XNZDv/NNU3MPOVj9S/sWAO8d9PmN/2whhBBCyOkwAKZ9CYDHBuZA2kJppb6rCpiLCNqjzbfBneYEfo/NDTvRnGgFMR8b69/GJUrfwVTf12u8U3AofBxaSSCJR4LPmqLamjIAJqQHVcDTbC5HUunYpcrVdhdwZawGk0ru5RqKnhYWSmXrFZ4JuLP8Iexo/gQ1sTpkOs6IH/dVPoEhrrGGOzQhP7Nch6SlxbeX1b+0D1pP2P9kIYQQQsgZMACmfVLaQsl9MZr5oHkffu2+2XALMpq+amC59+qO8oewt/UgIskoiDkIxmqRV3y3KTYzpbrg4eAzkI1irfil2to/i5s45pIBMCHnXu8M6bRW6dilytVWBSzsbN6L4e48rqHoaVpPBsFD3WORX7wAUvkqIWhc8Zx0IJAq6C2N72OMf7ahqn5PPXQiQX5jvBk9g9W/VLURm9ORbSGEEELImTAApn0Ny2aULlZdLSl3UM6rWG7IhRlNn10n3POxqPJJFLS7EUdmbWqYkXWh19W+b6lWYNzgm4HCiBea2VD3ptpnSBkAE9LfDD4y+l+k/aDSsUsNoAQfS6rWIJrsgAbk53iw6ike5KLn3QuwnmwjLAcT97YeUr0v0J9Vvwsrn8Cl7nGGDCwVtn6WO6ZlfcPPG9pbi60nsn9hIYQQQsgZMACmfT4BPNyTB6mU1MzBcAF+453EE+y0VyfcZYG8ovoFeCIlIMZENjiu891qis8A6bwgYbZmgrEQxgXuMuSmGGUATEhvsRbaVysdu9QAyhzlcs8EVeuq4+1uXOudaor5Ex3YQHGQcwyk69btZQ/ijYadKOmoNF1VcHWsDi/WbcFN/ttkjmvYcSHV2y/VvaWl9bN0NJIW+Fw30N5bZN/+v+9fd5GFEEIIIWfAAJj2y8nfBRUrVLfK7UjGuKigfb7zarT/NqwL/RXF0XIQ4yD3k80qe8AUXQDkM+zm4rtRFdN797qwrXGXbC6pfY6UATAhA4HN6XDYXI6o0vFLDaDMN+eVL4d0MNLA1+0uHqKlKR+elX/O9s+GrL8/bf0K0mbYyDTEm/BO0265F1t+R0PvKcjezfyKFWhJtEELh8Mn8FvvZH7O0F5rPZG90EIIIYSQs8IAmPbLQu8qzy34KnwCmvFGSzDGfzvbCtE+hW+i3PUkQXAgWo4kiGakfeHj1etNs6Ew1J2Ltxp3QTNN8RZMK11kisCdMgAmJBWsBdn/bXM6/ErHLzWA1k6linJH0x5o4K8N75pmDkUv/LpJqoKlW9jU0oWQtZNcq9OaCMMo1J8MfqeX/hHD3LnIchp7bit/E0dgDlyRALTQnohIMYGhQ3WadptsRfYRFkIIIYScFQbAtN8WE48Gn1Xf5ukvvJOSDkAQ7I4Uq3/3MxFpJ/ZC3Wa5n8sUm5cSqM4pf0T93Woft+yXzWtTPHPKAJiQVPjl36//oc3p2Kp0/FKDKN/300sXQaoO04nMo+6pXCkVnWqfFdVvd1WwhKdXeydjdtlSvFy/DcfbPSrD4AQSKO8IYnPDzu7g1xRjoLvF/LtNe6CJXc2fcd1A++pha0H2v1oIIYQQclYYANN+W1Bc450KOdWrGWkFO6XkPp4wpf0aBI/0TYfcEXys3am6FXomkUQS0ob4Ck++Kar+5TN2hHcivmg7As1Iy8q55Y8avkKCMgAmpA9toO9SOn6pgZT7/l+rfwfpJBirRU5gDtdNtF/ns1IVLHNzafl7R9lSbKjbioNtBQjFGyDha7qQAxcH2o5B1nT2wB3y85oi+D3VVTUbIFdjaaEh3iwhO9cNtE9aC+3r/v3ui//BQgghhJCzwgCY9msYtrrmZWhnV8vnGO7O4ylT2r93BLuyIRsZ91U+gd0t+9GkvErTzEj4u73pI7mzzhThb/fn659qXlRfaf5xy4GuU/xKnyNlAEzIQDP46zGX2ZyOkNIxTA2iBE8zyxantUJyX+shfqfTCxAGZ0MObOYXL8Cy6ucgBzgL272QQDY+gIGwBKHVsRAk9F1b+xrkkPgVngky9kx36EF+H6m8ros3QhP/V/83DHGNVfvcqCGMdZpvIYQQQsg5YQBM+zUEG+W/Df5oGTQjd4I+FFxruoUd1bORcZl7PGTTbkvDTlTH6kCECza+pWJGwl/TjHH5PcYV34WSjgpoRqrf51c8ZrpqCcoAmJBUsJ6w/8TmcuxVOoapQZTv0oWVq9J68Gtd6HXTzKWobrvaRMudwaMh/y6toieX3IslVWuwsf5tyPUiRRGfdPOSQxEpVbEmkITMUSVQ9kXL8HnrYchaQcZXbmCu3FEs40005QFxGcPZgTtwXFmntuJoBeyBO/kZQ/tqwHrC/gsLIYQQQs4JA2Da7yHw07UboR1PpFhaO3HBQQdEa6cSBA9x5WB88TzIBpoz4kc8mQAZOORu3GdDfzXNnb/d75L8PlLRrJ2vwidkw840z54yACakD22glysdw9RAyh2k6SKciOC2sgfYmpWm9d7g7nbRQ925kOumJDCcVbYE91eugnQee6r2VUiYu6Npz2n+reljvFi3BfL/lwXX4e6Kx5BXPB/X+6ZDqtoHdx3alQ5Opp63yu92pScfHzZ/Ck3I/eIrq1809bOnF0in4+2sL0ddZCGEEELIOWEATPs9AL7JP0t9FbCwqWEHWw7RATfL2XVPsGw4LK9+DgfDBZB7Ukn/UhWrxeKqP8udeabaTJB3Rza52pS/M1KJIVUaWTxUY3YZABPSA2xF9uttLke70nFMlSvzGOlkks6KPVnLjfTNMNWcihpbeRdlXtwdDP/KORqi/Pch7rGnKWt8WYPJ/x8kStgrazKTB77fPUQqz+G50CZ1V8h80XYUV3kmZszfgg6YSesJ+1wLIYQQQs4LA2CasVXAUi04t3wZT7bTCzYuZMNihHci5lUsxwfNnyIUbwDpOxKq31p6v2wimOqeOtmkutE3E9LyTjus/s0YGQAT0gOyvhr9c5vTUaB0HFPlyvf/1NKFaIq3IF1IFeVQHpSl1LDKnFwOx7Yk2qAJ2YOZU/4wD43S/jBkczqGWgghhBByXhgA04GpAjbAXcDdwdG13qkMLegFvyd4mHscJpXci5fq3kJZRxUSSIKkRlsijNcb3pXqalPeOyun9l+t3w7tRJJR2WBiS/3MkAEwIT3gPx8Y/ANroX2d0nFMlSvfp6tqNiBdyJz0keAzPCRLqUGVsTuzbDGkQ5IyZO3GLmy0v9xt/XrMjy2EEEIIOS8MgGlGVwH/P3tnAiRleebxzsbaVG3tnWzVbm1tbVKpPWo3wnR735uoiVFhpkHkUtToCl6ggmg8kBijgkbAI7rigddSSlDxjoQrRkAE5ZyZ7p77Pnum5+jpmenu//KsTiXZ3awg0/293/TvV/WrwhPmg7fne9//+zxPVllri+Tsc8Sxa/CgFlpaIGzzrB5sW6XdyTINZFOCQ2pNaKGjtXkbk8Gj3Yqf23C3ejN9cp3NvR/q5Ng0LtIUhgTAAIc+B3h6KBIecnQto8PaJcENvdvkFV3phKbX3Dgm368Qx7q2bsPV18payLtGxWCtJlTN4bMFR8fy8K0BAAAA+FwIgDFnAbC1Li31QevS9uG4Lqm9hTZE6Jkj86xs3tuNjffpnZ5fKZ7uFvxvrI3ZusQGTa6+zp7bmGr5POLIzOh9A1G5TjIzYEH1mKzARgJggCMhuL/4G6FIOOboWkZH/bST0pWqG2qSV9iFxDOYz4noO20PcXblZfp13y65xkAmpUXNKwh/cbTsCh4oOSUAAAAAnwsBMOa0gu3HLT9TOpuW62zs3a7TYjM46EBH2kNfoFm1N+upzp8rmqrRUHZYhU5WWe0ZKNdNTUvt+Yzpw4Pjohfo+fg6+YH/rv6NUv1bQBIAAxwi39r0vS+HysPPOrqW0VHtQtX1jfd4+e5n7yB8X0f0mbZmT43N0BuJjXIRu8B7YvRCPltwtKp/d4zbdu5XAwAAAPC5EABjTjchZ1Zcqr0DEblOMpPSdQ0/pgoYnToAHKkEva15mTb1bi/YquCmoTY91rHabrTbcxnTBwf2e35L0wPqy/TLdbrTPZpTfyefm4UlATDAYRAqK5kRioSHHV3P6GgF8JOda+QVFjwvaFzC/F9EH2l7o5OiU7Wyc42GHbx8bx0NJlVfN6Yv8GJ+DZaWLAkAAADAIUEAjDkPM+5oXqFUdlAu05Pp08W1C9mUoHMWfVYVbDemL669SXYouH8g5vyaGg0s8H6p621NqZmnoD2LMRz8/mZm1zWyqm8/8Fpig1UrO/s8kQAYwGuCB6wNdLjC0fWMjlbwfdS/V17RONSqiVVXjfl3LsSx4sg4nGVtqzSYHZJr2J717pbHxvQFXsy7vcF9xWcHAAAA4JAgAMacH2ScEpuu9/t2ymX2D0T17YpZbEzQWe3P5khV8FkVl+qGxntkrbTsRnVaGY0l4umEXuv+pS6tu0XHRiYXRBXKyM39txJb5Afahjt1Se3NXJopPAmAAQ6DcdvPO4o20Hg4F8EuqJ6r9uG4vOL9vl06MTrV2WeEiL/rMQe1sVuJTJ++ALR+Rv9ZHt4xfteErwUAAADgkCAAxrzMAr6q/k71OLopMVZ3veXs80P8fbOCLRydUDVHd7U8Kptj3TLcoYxPw+CssrKqk593v6vL6m7RcdHJFng7+3uQC5e2Pqmh7JD8wKrOV5x9jkgADHDo0AYa3Rr/sbj5YWWUlVc81P4cox0QfaLtCRe3POzsOUvlYJ0mVV/LhVGk/TMAAMBYhwAYT4hO0ZuJTXKRjDI2Y7XgwiYcG9qG2sJgW2NWNXJv639ofc9W1Q01y+a4uU4yMyCrwF/R/pzsgOCYyKSCW4v2e/jv9XfIKn78QNVgvbWH5DCnMCUABjjsNtAltIHGQ67kW9P9rryiP5PU7PpFBdF5BdHv2nv41fWL1TrcIRfpzwzo9ubl7BdwtO0L7qf9MwAAwOFAAIx526DMqJ2v1uFOOYZtmriZir43eNDxn4XBx0cvkFUG28WGtd2/0L6BqOxmeFZZuYDNgoqlavRy1zua13C3/q3iYlt/BVlxYl/3uVVXau9ARH4go4weaHua2YCFKwEwwGHyrS3nfJk20HgolXxnVlyislSlvCKaqtHZFZfRqhXRcW3/MKf+TtUONclVVne9aR2dnH2G6Fu3HWz//NUAAAAAHDIEwJi3Q43TYjP1SbJUrrGtf7dOiU3jsAPHlCOVwfZjm29t83SXtq6UVeJHUtXqTvdoOJtWPkhnM+pMd2vfQEQvdb2tGxvv1fcqL7dfm/0aC3bt2dd9cnSaXu1eL7/wYf8efbvi4oL9PUMCYIAvQqg8PJM20Ph5I3Nstn5vpl9e8VZis46NENgguqwfwl878zmn8goujGIuvC0AAAAAhwUBMOZtozKlZp7aHKwAfrxjNdW/OKa1sM7aKo8rn6BjI5NkFSZ2yHhr04OyWa7re7dq/0BMVg3fl0lq+AhaRw9mh2Thcs1goywstCpfm2c3s3aBzohdNBL6ciDw2e/LktaVvmjVPdLK7YbGewuuRTcSAAMcKcH9xV8PRcJRR9c1OhIAL29bJa/ISrqr5VG+xyM6rB/C347hLmslX5CdnTDnxoOlJScGAAAA4LAgAMa8aIcJdzSvUEYZucRgdlDXNtzFrCssKH8TCFsQWyyr9rAq4eLqq2WHChYM/7TtaT3R8bLWdW/QusQGvZ3Yol3JA9qdLJO5M7lf9vfsn73S/Z4eaX9RS1uf1E2NS3VR7QJ9v/IKnRKbLvu57OcZX8CVvr/vAOeq+sW+mftr2J+FE6MXKujoM0UCYABX+csJf/elUFnJo46ua3TA46NTtL7nA3lFVzphl/W4FIvoqEWREufDX7vUen/bU+z5MFduLNoz8U8CAAAAcFgQAGNePCYySWu735NrVA82WFDFJgULXlsDdug3Uil89EHt5ratXasaPi4yWSdFp+rk2DTTfmzBsf0z+3cs5LX/ZiTstf8X6+r/CX9t7rjN+fMLTUNtmlZzAwfDSAAM8MWrgItDkXDK0bWNHgc751fN9jTY+Th5QKfHZvLuhujo3sH18FeSXQy2PSKfI5gTg6Ul8wIAAADgJgTAha1tAL5TcYnKUlU6TJh1hejWWh6Rjf0RHPJ+p2KWNvV+KL+QVVYr2p+l8hcJgAGOgPE7z//rUHl4l6NrGz3ulDS34W7ZGA2veDH+Ou92iA7uveyi7e3Ny9Uw1CKX2TcQ0XlVV3JZFHNl08Hq33EBAAAAcBMC4MLWqggvq7tFPZk+uURW0k9aHmfWFSLm7RDHbsU/H1+njLLyCx/177PQmoNhJAAGOEJC5eF7HF3b6PH7wdOda+UVw9lhLWhcwp4I0SFH3rttNredo7iMjbSZU7+IsVqYS18K7i/5wwAAAAC4CQFwYWsbgQfbnpFrdKd7dHHtQm6pImLeWuEvaV0pm4/lFxLpXuakIwEwwCgR3Fd8UigSjju6vtEDgwc9JTZdO/r3yivqh1pkLaiLuOiF6NSl0WVtq2Tv4i4zkE3pntbHuSiKuTQTKg9fEgAAAAB3IQAubE+ITtH6ng/kGruTZTojdhGbFUTMS+vn+Y1LFE8n5CdejL+h42iTjwTAAKPCuK3n/nGorORdR9c3ejTbc0r1XLUNd8orbCzF8dEpzj4jxELSPhNOjc3Qys6XZW3hXSarrF6Iv64TohdypoK5szxcXvTJhL8PAAAAgLsQABeuFnrYLBi7We4aq7veZKOCiHk5yJlVu1D1js/u+p+Up6qsIoguCUgADDC6baCvdnR9o0edkhY3P6yMMvKKFe3P8b0e0ZE9w5kVl+j1xAYN+6Bj0Oa+HTYmhu4BmGuXBQAAAMBtCIALV5sldWPjvRpy7PbqcDatmxqXMusKEXN+sFtSfbX2JMvlJ1LZQf2w6UE+I5EAGGCUKdoz8R9DkXCVo2sc8+yxkclal9ggr+jL9OvyutsY9YDoseMjtme4RlaR7wciqWpNrr6OyyOYaxOhspIzAwAAAOA2BMCFq1XYPtO5Vq7RMtyhSdXXsmFBxJx2QPhe5Q+02ScHOb/NG4lNOjk2jS4JSAAMMMqM33n+H4Qi4SccXeOY532SVftZxw2viKaqdVbFpXy/R/S48tcuYuwdiMgP2FnKlfV3cJaCubesZOPRH5z7ZwEAAABwGwLgwtQOEk6PzdSu5AG5xvt9O3VSdKqCjj47RPS3Fv6eFpuhd3vel9+oHmzQBdVzOdRBAmCAHBEqK5kQioT7HV3nmMcuIVfU3ab+TFJe8Wr3eh0TmeTsM0Icy9p5iXUBuKXpp2rwyaiYvkxStzcv59II5sfy8LwAAAAAuA8BcGFq4cGFNderM90t13isYzXhBiLm7DDnlNh0PRt/VelsWn7CWj//qOURPh+RABggh4zbft7XQuUlWx1d55jHvdKytlXyiqyyuqvlUdo/I3q0/k+NTdfjHavVk+mTHxjMDumR9hcstOYiPebDuqI9E/8lAAAAAO5DAFyY2uzIxS0PK6OMXCKZGdDs+kUcdiBiTsLf4yKT9WTnGg1nh+U3DlYCWXcEbvUjATBAjgmVhxc6us4xDwYPemL0Qk/HRHQMd2lqzfVc+kL0IPydUDVHryc2atgnl0UzyuilrrfZJ2A+faZo98SjAgAAAOA+BMCFqbUTszDBNaoG63VO5eVsXBAxB23cJmlp65OyiyZ+I5Kq1vlVszkIRgJggDxQ9MmEo626xdG1jnkYFXFe1WxP275+nDygU2Mz2BMh5smRtTan/k7tG4jKT7zT8yudEbuIzwvMl/3B/cXnBQAAAMAfEAAXnrYxOLviMlmg4BpvJTbruOhkZ58dIvrP3w5/bTaW37D5gwub7td4wl8kAAbIC0dvO/eoUHl4laNrHfPQKenGxntlLVW94unOtYQ5iHms+rURMQ+0PSWrvvcT2/p36zwuiWJ+3RosK/mLAAAAAPgDAuDC09orX1F3myxUcI17Wh+3Qxdnnx0i+ku/h7+SbF4xF2OQABggzxTtK55gVS6OrnfM8bvDM51r5RVD2SHNb1zCnggxT2cj1mXHWj7bpQ8/UZqqUEn11YzPwnyaCZaWzAsAAACAfyAALjytimxZ2yq5Rlc6oZm1C7i9ioijGP5OloW//T4Nf3f079V3K3+gIqqAkAAYIK+M33n+n4Yi4U2OrnfM4bvDabGZ2pXcL6+oH2q2GaR870fMcat3G4s1r+FuHRiokN+Ipmo0q3YhZyeYbyuD+4v/IQAAAAD+gQC48DwhOkWberfLNXYny3Q6s2sQcfTCX19X/rYPx3V53W3c6kcCYACPCJWXzAtFwllH1zzmqBXs1Jrr1Znullds7v3Q9mvOPiNEv2vr3C5YPtm5RvF0Qn6jcrBOs2pvZjwM5t1gackjX19+/JcDAAAA4B8IgAtLu+lqN8rtZrlrPBd/jfAXEUer7bOvK3+tBd19rU/wmYgEwAAeUrRn4jdCkXC5o2seczT/d3HLw8ooI4+wTk1jJtgJRsK8y6AzjlTVz65fpF3JA8oqK7/Rke7S3Ia7aRGPXhgPlpacGgAAAAB/QQBcWNpGYX7jfc7NtxnKDuumxqVUuiHiKIW/K31b+Wu8ldisk6JTOTRFAmAAD/mbuf/8pVAkfL+jax5zoLWEfbV7vbyiN9Ovy+tu9fWeyN5dbM9pIfaJ0Qv17YpZChEEowOzfq3q94mOl2RddvxIRzquhU33s5bQG8vD68bvmvBHAQAAAPAXBMCF5wvxdXKNxqFWTay6illXiFjw4W9pqkLFVVcx0wsJgAEcILi/+MRQJNzu6LrHUX6POKviUpWnquQVZalKC0x9FfB8GvgWy0Lf46MX6OzKy3RF3e16oO1pbejdZmN+7Mf2ddm/46uvDf2vvU/bxY5rGn6kncl9vqz6/azy18JfzkvQKweD+4qnBgAAAMB/EAAXjrbZPjU2Qx8nS+Uav+7bZTfEnX12iOi29vl2zKfhr2/bPo/M/b26YfGYaf2IBMAAfmfch+d9JRQJr3Z03ePoVghacOnpJbK13b+wy2zOPqORdy4L1SzMtXev71TM0kW1N8lGb7zds0XRVI16Mn2/E7Sls2l91L9PNzTeax1OfF3hjP5w5M/puVVX6vn4OsXT3fIrhL/ogNuDpSV/FQAAAAD/QQBcONoGaGbtAnWne+QaD7U/R7UbIn7hA56TY9P0UPvzvq78tdb8S1pXcriDBMAAjhEqK5kQioT7HF37OEra5asH256RV2SU0R3Nyy1YdTbwtb8+I3aRptZcr0XND+mV7ve0byCieDpxSJWV9p62LrHB/nvaQmNOL3OcHJ2mRc0rdGCgQn6Gts/oiPMCAAAA4E8IgAtH27Tf1fKoc22P+jMDmlO/iJvgiPiFLrZY+Lsq/qqGs8PyM2u737NOCBzwIAEwgGOM23run4fKSjY7uvZxlDwhOkWbej+UV3Smuy0YtXcbZwLfkUt24eprtKBxif6z6w19nDxgHUusqveIxv/YBeAzKy6xPSDvPjhq+wKroL+y/g691/OBBrIp+Rkqf9EJy8PRot0TvxkAAAAAf0IAXDgeF52s1xMb5RrRVLXNimLjj4iHfcjz3cofaE3XOxryefj7Uf9e+1o44EECYABHCZaWXBaKhIcdXf94hNr33wlVc1Q/1Cyv2NG/16oWPZzjO1H2bmWX0c6vmq25DXfrqc412tr/iSywtU4lo4kFyJ8kS3Vr04MWMnMZGI9o/QYPahcVno2/KqtI9zsd6S4qf9GVAPiBbz5x0pcCAAAA4E8IgAtD2zicVXGpYqkaucZbic06NjLZ2WeHiG6Gv9+vvEIberfJ79QMNmp6zXza4CMBMIDDBPcX/20oEv7E0fWPo9ApaX7jfbKQ0yue7lxre7Y8Br6fVvkeH71Adgltdv0i/azjRVkVdO1Qk5KZlPLBQCaljb3bZT//8dEpBMF42NXqdpl8edsq1Q42aixQPdhgn0eEv+iCTaGykmAAAAAA/AsBcGFom/s59XcqmRmQS2Qla0ttvz5nnx0iuhf+XlhzvT5K7pPfSWR6Nb9xCeEvEgAD+IBQJLzA0fWPo+Dz8XXyilR20CpubU+Uu8D3s7bO1iLXWi/Pql2oJa0r9U7PFtkl4d5Mv7ykK52QzQe+vO5WWeeq8bwb4edcYLB51Hc2P6T9AzGlldFYIJqq0azam7kIga5U/z73rS3nHBUAAAAA/0IAXBhauPBQ+/NyDdvoz6ydzwYfEQ/5s+ya+h/JDkf8zlB2SMvbn9UxkUnOPm/0lQTAADmmaO/EfwpFwlWOfgbgEYRJp8ZmyNoRe0XDUIu1XbZWtqM+x9f+2oKy6TU36ictj+m1xC9lgVl3ukcZZeUaNgv5hfg6TamZZ792Lsnh/xn8Wuvw7f17ZJcnxgqlAxUW/vJnHl0xXrS3mL0FAACA3yEALgxtltOW3h1yjY+TB3R6bCbtjRDxcw98rFX87c3L1TzcrrHAS11v22czn39IAAzgI4KlJT9x9DMAj+By2czaBepK98gr1vd+YK2YRyXwtR+fEpuuydXX6bbmZVrd9aZsz2UzRbPKyi/Y3OFV8VdGguBPvzZH/wxhfmZUW/D7wzEY/Brb+3erpPpqwl90qfp3zb+u/+5XAgAAAOBvCIDHvnaTfGLVHDUNtco1Xoi/zkYe/4u9Mw+SsrzzeGeT3Wyqkmxt9qrazdZW8sfmDxOY7oCoaLyNitDTIHLILXigKMqhgiKKoqJB8QTFW/ECvLk0iiByyeEMzPQ1V/fM9EzP3TN9H9+db0Fv8OAUmLff9/up+tRAKiFD0/3O8zzf5/f7SXnYg9kzvMPxZNNriGS7YAbWd27Fef6xKFL4KxUAC1FQ2EudvTgTz6DPAXmMo3LmNTzZo+HoI+EXj7ojUtH+UIxfeaGMFcS31N2PF1pWgAFZfTqMVC6NQodBMPeMEwKz0M87lH9nXZ6ziEX7LjawZbkpK35JFll80vklP79q+yyNZLTbwTYhhBBCFD4KgM0vN8kz6hYY7gCA38+Mugc1/1dKeVB5EHJRxQQsb1+LtAkOMQnbLhZXXa8b/lIBsBAFSNGuQT9xeFyLDfockMdgX88QvN/xKXoKXm4bH7iNAfARtb/l3ulU71D8ueIqXF97N55uXgZeLKtJ1SNusnDsQFr3zwi+NngX+vuGKwg2sfws8N+We4D7G5egJO42XfBL0rkMuMc5xz9a+wJpNFcVlTh/aRNCCCFE4aMA2Bq+0voejEZ9KoxBlddpsyOl/I72/bf+R9ZMw7ZoCcxCIFXPChbNPZcKgIUoYBzlxf0cHleDQZ8F8ihby17gHwdfogY9hSdRya4g/F4OGvhyDMb5/nGYGJiNR5tewtrIRlQkA4hm47AandkoPuvcglvrH+Zrwr2k9pMmkO/3/Ht9WPVUPN38OsoSfmRyGZiRWDYO/h3P8A1XRyBpNKMOt6p/hRBCCNOgANjcciPFGbuc+2Q0Pu/axnZlhn3tpJQ9O+/39vq/oCZVB7PQkmnH9PoFCn+lAmAhCpxeWwaoCtgkMmC9JjinR4PUFe1r8UfP4G/M8eX3xqrAkdXTcF/j02Dl6964Hx2ZTgiAsCK0NO7BwvAL4Lzjvt7LVRVcgO57zztxpm8kJtfOBT8PDekmmJmmdCvmNjzOud96v0rj6XZ90WvrgF/ZhBBCCGEOFACbW26orqyZjrZMB4zGoqaXdVtbSvmdZxYPPBc3v2Gaeb8knkvg7oYnDPu6S1OoAFiIk4jD7WIVcNigzwN5FOuOx5teQU+RyWUxO/QIerkHor9vBC6vmoI7Q4vwVtsq7I6VoznThixyEAeHrw/nBK9sX4cptfNwjm/UvlDR41S4ZlDz1b5/9LgwsPJazG9cgi+ju8DqbrPDiv/JtXfzNdD7UxrRtH1v8SSbEEIIIcyDAmBzy9u0DzQ+A6PBzd1Vgdno7VYALKX82yHs0Kqb8GnnFmSRhVlI5JJs8aZb/lIBsBAmors65h8cbtebBn0eyCOU3YjWd25DT8E90VPNy/B8y3JsjX6NUCqMdC4NcWywknt7tBS8aMw2wqd7hzFo1KVjw4S+TvDruf4xuKH2HrzR9hGqk3WmWvcfik1dO1mtrjMQaVzdrs29t1/27zYhhBBCmAcFwOaWbVQ/7PgMRsObqOa8LYUhUkoU7W/5PL3uQXCenZnIIYcXW1fiVO9QPe+kAmAhTIa91HkxP3sGfSbII7h4NqjyOtSnwugpGHylFPged3IAwukW8FLh3NDjcFZex4t4CoN7KPTla84K93GB2/Bs81vYFStHVzYGq8DLoG+1reb5h0bBSCOr6l8hhBDCjCgANq/ccP25YgIqk0EYjZXtH3PWlWFfOynlyTt8Pd8/Di+0rDDdXLsscnin/WOc7R+l8FcqABbChPx+/cU/c7hdyw36TJCHlmEgL58pgDU56VwGgVQIH3WsB9trOysn82Ie//3VJvoEtnfm1zN9I8BxVI+EXwSrX9syEVgNzvtdEF6Kft4rdPlAGlu3a0t39e+/2YQQQghhLhQAm1fetr02eBdi2TiMBCvi7ml4Uq2PpLSwPBSirATYHN1tyvl2H3R8Boa/RTpYlAqAhTAtqgIuXO3dvtr6PoR1YHvtQKoeayIbwTFJw6tvxlm+kSjaF1pqzXaMa3oGm3z9eMH7fP9YXB28E6z0ZTvu5nQbciZc5x8J7kQlrte8X1kYqvpXCCGEMCsKgM0rN7CcO2k0mjNtGFZ9s27ASmlRefnjT74r8VD4OYTSTTAjnON3aeUkPeekAmAhTE6vTZf+VHupwpNhzFm+K7EzthfCmjCUZDi5Jbobi5tfB2fSXlxxVb5VtNpFH0Hgy/OGM7zD4aq6AbPqF2J5+1rsjfvB2dZWJpPLgJcMiquuV8tnWRi6XZtV/SuEEEKYFAXA5vU07xX4omsHDAYPWtgOSrdgpbSY/MzT0TUz8FnnFrAlnxlh+Duw8lodGkoFwEJYBIfb1c/hcTUY9NkgDzKC4srqaWjNdEAIwq5Z/mQN1ka+AFsWs4r1koqJYCDM90svBp4WbBltZ3X0/r+/nYGvbzgYbE6rewBLW97Gl107UZdqRFqt1EFaM+14vOkVVpZrLyALRVX/CiGEEGZGAbA55WaDGzMjVtc937LCMhvnv7UTc7IlljaB0rKy6peVNg+Hn0N9Kgyzsj/8VYt7qQBYCAvR68tLf+LwuJYY9Nkgv3/+L0fSWLY1rTg8rGLNB8JPNr2GG2vnwVV1PdjFpo9nMN9D+zVHKHxgZS9l6NvPOxRs6Tyy+hbcXv8XvNz6LnjBnIFvIpeE+CalcS8m197N19MU7wlpGdf23nbZv9iEEEIIYU4UAJtTbtpm1j8Eth8yEqlcireF+f0Z9rX7oRvn/EFAX+/lYBuxycG54KHBG20fYUJgloJgaSn3Vf26MMrkVb9ka7RE4a9UACyERXGUF5+mKuDCsY9nCD7qWA8hjpR4NoFQKoxdsTK80/4xFoZfANtGc7TRhRXjGZbyvcVKWcr1YL5imBon5M0HvQd8n/w8sJXzgMqrwTU7zxEWN7+BtZGNcCcq2CpbFb6HIJZN4K321Rz/YtpzDmlaow63a7BNCCGEEOZFAbB5Xdb6AYxGMBXa1xrVJDdi9wW+TlAGu+f7x2FS4A6wynF1ZAN8iWpEs3HkaUq3gq2yuLnubcEWYtJa8nNxgX8cnmh61bSzfvN4ElUYUjVFhz5SAbAQFqXXlgGsAl5s0OeD/Nb6/UL/eHgTVRDih8wQjucS4P7OnajEhq7tWNb2IRY0PovpdQ9ibM2tuKzyGq6F2QXnm1W23R4YFPP3tIhh8TGY/zNpPtil/M/zITT3qqxevqhiAoqrJuOa4BzMDj2CRU0v4932T8AuNpXJINozESRzKYgjoypZizmhRRy/pUveshBdZS9x/sImhBBCCPOiANh8coN3tm8USuIeGI31nVt5O9qwr93RzEDi78/xj8bompmY1/AUVravw564D5FsFw5FDkB5ogJ3hR4HDwN6a6MoTSYPP1gBP6V2HrZFS5BFFmaG7QHHBW7ToY9UACyExbGXOoscHle1QZ8R8oALagy/otkYhDgRJHNJtGUi4NiTsrgfDFff7/gUr7W+D16MnN+4GDfW3guulcfUzMTw6psxovoWXFoxiSHtUToKbE3N/z3/nKsCs8E/95a6+8Eq5aeal+Ht9jVgxfv2aCn8iRo0ppvRme0ydWeeE00ql8a6zk24onqqLnbLQrVL1b9CCCGEBVAAbD4ZQlxZMx1tmQ4YjUfCLxZU4Jm/Uc3Al7/u7xuBYdVTcWdoEZa1fYDdsXK+zscUcPFmNW+KTwrewbZbCo9kwZtvK8dKWLY878h2wuzsiO3l81afX6kAWAhhI/ay4vkGfUbI/XKtwlBMiJ6Ce0cGiNwPci8ZTregqduqZBB7475u/UcsA+baVAMrkfnnMNjln0014/oEwdd7fuMS9PcN1+gXWbiWFy/7w4ZLfmYTQgghhLlRAGw+2fZpfsNiGA3esp8YuMPwm6T8TCR+Pd07DGyRNa3uQTzfshybo7u4uT6uM5CaM214tfV9OCsn80BKt4dlwZm/KHGefyweaHwG1claWIHuag62tFfbZ6kAWAjx/xSVDPpfh8dVbtDnhOz2NO8wfNG1A0IIcTQkckmsi2wCK62LVPUrC9s2e4lT+wYhhBDCCigANp99PUPAFk9GgzMyL6wYb7iNEkNXBjiU7akZ6NxQOw9PN7+Ozzq38obvSZmDVJEM4MHGZ3GBfzy/F20oZUHICx28KME2c1/F9oCXI6zA1mgJnxWGv9AiLaUCYCGMAfdXN3ebM+izwtIytOHlzlA6DCGEOFL8yQDuCj3GfY/W/9IMLj7lk4v+3iaEEEII86MA2FwyNLy44ipUJoMwGiva16KPZ7AhXiNu2ii/H4bSk4J34uHw81gb+QI1yTrEsgn0BJlcBgzRZtQtwBk+tpTSzWJpTHmAytblnDP2Ycd6dFlojt7+yt+CamcvLaECYCEMQtHXg37tKC/eYdBnhaXlJcuZ9Q8ho9mnQogjoCsbxZttqzG4aopm/Upz6HUFHW6X3SaEEEIIa6AA2FwyMLyh9h7EcwkYiQyyuDP0KA9deibw3T/Hl78/1z8GYwO34b7GxXi34xO4E5XozEZhJBhAM4y+LjiXbeoUNEnDmJ91O7T6JrzS+h5aMu2wCjnksLHrKwyqvE43/6UCYCHEIbGXOsc7PK6UQZ8XlnZZ6wcQQohDkUUOO2J7cHPd/ejjHYIi7celWSwvnve718/6O5sQQgghrIECYHPJjQlbFxsNhkRXVE/l93fS5pEy8OWvz/aNwrDqm3FnaBGWtX2Ir+NutGciyCILo9OR7QKrK6+smc5qZQXBssfMz7li5evSluWoT1mrdSLDX14YOd8/VgdA0qgqABbCQPTeOuCfHW7XaoM+LyypnfsC/yiUxD0QQoiDEUyFsKjpZa77eYHdsM80KY/BvUW7Bv7WJoQQQgjroADYPNq7ZdvgLdGvYTS2RUv4vZ3QcIqbM37t7xsOtmhie7cXW98BWyo3pVuRLuBWb43pZrze9iFG1kxj210FwbJHgt/Hml6BP1kDq8Fnx4r2dTjHP1rhrzSyCoCFMBgOt2uAw+NqN+gzw3LyZzjX0m2ZDgghxLfpyHTi7fY1GFp1I4o8xWr3LM1mptvJNiGEEEJYCwXA5pGHGoOrbkBDuhlG4/mWFcdzA8UNGQPfbp3o5x0KhlNTaueB1c+bunYilG5CKpeG2WhMtyAfBP/RM5ivgTam8iQFvwGwCtZqJHMpLGl+A7zAUqTPmjS2CoCFMBinrL3wp47y4ucN+sywnFw3z29cDCGEOJBELokNXdsxOTgXfb2Xa9SLNKX2suL1f/j84n+1CSGEEMJaKAA2j9yozKpfiIzBKl25obqx9t4f1D7JfkDge6p3KC6umIhrgnfhkfCL+DiyCTXJOsSzCViFfEXwhMAsnO4dpiBYHtfgl5cLOOP3yebXWPFryeCXtGY68Jfw87xkos+XLAQVAAthQOylg+wOj6vGoM8NS9nXMwQcrSJO3KW5+lQjmtNtEKIQSOfS2BUrw5zQY+jvG6F2z9K8el0RR1mx0yaEEEII66EA2DwyoHij7SMYjdpUAwZUXsPquaMMfPe1dWYYdZ5/LMYFbgNv7X/U8TkqkkF0ZaOwOm2ZCNZENuKG2nk4yzdSQbD8QRcseOOds7rZOr0u1Qgrw04Ks0OPwK72b7JwVAAshAH53Wtn/cjhds0z6HPDMvJnOS+QViaDEMdvRAbD3h2xvXihZQWm1T0AZ+VkjK6ZgVWRzxHJdkEII5JDDr5EDRY0LsW5/jHaQ0vz6y5eZi8Z9I82IYQQQlgPBcDmkBsWbl72xH0wGKzQZdXuYb9/Vh72cnPz5QJnbY6onoa5DY/jrbbVKIv70Z6JIGvRSsTD0ZWNga2vOff4Av84hu2aVSqPsJW6E7zxfk1wDt7t+ARsn251/Mkavh46CJKFpgJgIQxK768u+x+H27XboM8OS8j1ztXBOYhl4xDHRhZZcH4y95u8dHxH6FGwYwwvoeb3cfzKMK2f9wpcF5yLtZEvFAQLQ8Hgl13ELqmYyPer1vvS/Lpdtb13XHaaTQghhBDWRAGwOeztcWJMzUx0ZDphMLjB+s4cHXu3+QMCfu3vG44hVVPAAPOl1newM1aGlkw72M5aHF277dK4F4uaXgZv4PfxDEFvtza28vvn+15UMQE8vFvfuU2Hc/vZHivFsOqpukAhC1EFwEIYGPte5wSHx5U06PPD9PLn+lPNyyCOjs5sF3gxjq2z7214Cqzu5UVdriN7uQei90ECNPv+mcunKQgWBoHdjV5sWYmBlddyf6y1vrSObtc9vyj61Y9sQgghhLAmCoDNITffDzQ+gxyMBTf64wO37w96i8Gv/F5P914BZ9V1uKn2PixpfhNfdO1AQ7oJqVwa4vi0tQqmQljevhZXB+/EmWwP7dFG18rm2zyf6r0cw6tvxmNNL6MsXqHP3AFVLWsiGzCg8mr01udEFqYKgIUwMKd8fNEvHeXF7xn0+WFq7d2e7h2GjV1fQRyaWDaB6mQd1kY24uHwc5gYmI0LK8bzUikrfI+2VS7/uwqCRQ+Rb/VcjSXNb7Bane9J7YeltXS7dtlLBv3GJoQQQgjrogDYHPb1DAFnwRqNsoQfZ/tHgbNF2Wbp2uBdeDT8EjZ0bQcDynguCXFiYevsL6M7Ma/hKRRXsSp4sKqCLWJ+lja/co729LoH8UHHp2hMNyOndurIE83G8WzL2zjbN0qHQrKQVQAshMGxlwz6k8PtChv0GWJa+bN9cNUNaNCYi++QzKVQn2oEL+M+0fQqJgfn4tLKSejrPabAN+9hK4K5b+X8YCFO1MVOBr+PhtnqeRKKdBFaWtNEt2NtQgghhLA2Dq8C4EKXm3KGq1XJWhiNr2J7sCC8FKsin6MyGURXNgrRM7CddiAVwsr2dZhaNx/n+8fm23ArDDaZRfx37fYM33CMrbkVvPVeEvcgnktAfJNwugX3NDzJyhZ9DmShqwBYCIPzX9NO+bG9rHiBQZ8hppVr3Rn1C5DWaBmkc2k0pVuxPVqK51qW45a6++GsmsxgloEv5TrypHSkGVUzHW+2rQIDaCGO1zikXbEyzG9czOBXHbCktXW7Vvb+6rJf2oQQQghhbewlg37scLueN+yiRR5WVvhdX3sPuOExGjxkyKrS0HCw4nFP3AsGg1cFZu2vfCxWGFzA5sN8HqixxRlbwq/v3Iq2TAfE91OeqGClC9/zet9LMxhxeF3n2YQQhqZo18DfOMqLSwz6HDGl/Bm/rO0DWBFWQnItuDtWjldb38es+oW4vOpGjofh2jEf+PI16pFg/o+ewRhSNQWcz8x1WSaXhRDHMnbq885tmFm/AOf5x/B9reBXWlu3q95e6jzdJoQQQghB7HuL7zHswkUeUfCzuPl1CHEsdGQ6sSO2F4sZBgdmKwwuEO0HVPoy9GX1xpzQY2C1fSgdRhY6QDvUYehfOzezHaTm/Urz6HY1F+0e1McmhDA89j3OqxweV9ywzxMTybXsuf4x2BP3wQrkkAPDMHeiEiva14FdTlhpy5E8fC16uQfmA19D7WXpRRUTcF/D02A76k51jRKHIYscalMNeKttNa4JzgE7H/XS/lVKmrOXFc+12Ww/sgkhhBBCEIfHNcOgCxd5BIca/X0jsDm6G0IcjzB4Z2wvluwPg8/3j+P77G/VAQb9HFjFfNs8/luc7h2GK6qn4v7GJeActWCqARm1NjwsbEPPlodn+a5UZYA0mwFHefF/24QQhqf3tgE/d7hdbxr0WWIq+bN+TM1MMBQ1K7FsHNXJWqyJbMCDjc9iQmAWzvOPza/hC+ZSZ/4C6hneYeCc4Lfb14Dr25y6SYlvvd9Z0b4w/AIvwPK9UzDvcSlPiuXF27pbP//aJoQQQgihALjw5aEGQyDOchLieLfSYrXEK63vge20BlRejX7eoZobfJID33yVL3/PCpZxgdvwWNPL2NC1HQ3pZlX6HgXVyTrMCi1EH6/m/UpTGuhWAbAQBYK91NnX4XYFDfo8MY29PU6OxTBViMixP8FUCOxm8njTq2BYynmnfb1DCirwPdyFR/6aAR9D7c3RXWjPdEJYE+53eBng/Y5PcVPtfTjXP1rzfaX8Pr2uToe7eLBNCCGEEEIBsDnk5nh26BGFQOKEksylUJWsxcedm/Bw+DlMCNyOC/zjOLeL78FunQV90GS0wJevab66n3PR+Bl/s20VdsfcOvw6xhZxbCc4ovoW9FYluzSvCoCFKDDse52zHR5X1qDPFFPY13s51kY2opBJ5dIIp1vAEPTZ5rcwtW4+BlVei1O9Qxn4mnreaX5OMdfEEwN34NXW98D21gzBhfnh/OpNXTsxv3ExnJWT0cczRG2epTx09e/SXlsG/MwmhBBCCKEA2Dwub18DIU4WrKBgq2h3ogJ873G22OiameDcLm7KGV7SIo9C4SOrcHAiX+XAwy3OpZ1Z/xBeaFmBLdGvwXm+PPgTx0ZXNoYXWlayelrzfqXZVQAsRIFRtHvgfzjcrk8M+kwpeLnOurhiIniJsZDI5LJozbRjV6wM7MRze/1CXgjk+A+uG00d+B5+DEoxLqwYjxl1C8AZx5XJIHhRVZgHzn/+OubG4uY3MKpmBvr7hlvyPS/lUet2+bvXFafYhBBCCCG+JwCeadhFjDzkRpihxt64D0L0FJw7256JoDxRgQ86PgPbtE2pnQdWJpzpG5Fvv2fpUNh+QNhL+TqwnTYPsMbU3Io5ocfAAz7O8g6lm3SQdZzwJ2vAMJ3VP0UWfN9Jy6kAWIgCxF7qvMjhdrUa9LlS0HLNdUPtPYavFs1friyNe/F22xrcHXoCI6un4U++K8H1Yy/3QMuuoQ+2B2YgyE5El1RMBMPglQqDC5rObBcY+i5teRuTgnfgbN8ojR2S8uhM2vc6r7UJIYQQQhwkAJ5s0EWMPExLrPGB28FZrUIYiVg2Ac4m+zK6E6+3fYh7G57G1cE7werWM30jcar38nxLt3wgys19wbfmzbdwzgfe+cOp07xXgBXSrJSeHVqIxc2vg+0IfYkasLVZRi3cjyvpXAZrIhtZLcN/g4J/X0l5hPq7/U+bEKKg+O0T/X7iKCt+yKDPlYKWazKuuYxINBuHN1GNDzvWc0Yx93Sca8q1pCnm+J7sFtH89cUHhMFcY8eycQhjkkMOrZkObI+W4tmWtzApoNBXyh/om7//60U/twkhhBBCHCQAdnYbN+hCRh7iVvtD4ecghNFhwMlDmLpUI9jOblXkc/BAbk5oEa4KzIaz8jpWwzIoPbDN23cD4rw9VMFLi/KVvN+audbHMxhn+0fh0spJGFY9FdPqHsBDjUvB2b2cP8tDPlZKp9XO+YTCGXkLwktZfa6Wz9Jqbuj2n2xCiIKj19YBv3a4XZsN+mwpSLlmY+tYzs01AqxCDqRC+CTyJRY1vYxrgnNwYcUEXhRU4HucLDqgMpgXL1n9/VzLcjBkbMm0I6sLlz0KR9rUphrw187NYMeoUTXTOf5Goa+UP9yAvaz4NJsQQgghhAJgc8kqynWRTRCiUGGlJivY2fa4LOHHZ51bsbL9YzzT/Cbmhh7HzXXzwYqIodU34Tz/GJzjH40zvMM4A42HOzwsOKHmWzXz/+8s30iw5fqlFZMwumYGJtfeDVYZLGp6CWzfvDqyAV/F9qA6WQceMsVzCYj/Y+/cYpss4zDeRK9MNNFrL030RuwavdAEgxFjIhtdFRIMGEEgHB2RgCdARTCGgYKHoSgoS0RQ0BHGQZAwOYUz7BC2dYfuVLpuLW23tTu162MftyZbFFhkh+9rn1/yXJHSrev35n3f5/9//mMHL/V4yTuvcTUvAHWJJKWjTiR0v0UIYUqsJVMzbU5H0KDri+nEPZyjbglaon6MBzS7WPh4OnwZ3Ncuc3+CLNdCnt+Shq/GU4yBGcxiQJqMjNT+2JuH/aHjYFEmzx/sQhWje87zx4Jg8W9+YD9WenIx1bWIz4CKHiRp5BS1VWSvsAghhBBCyABOLfGwRCOqoccDIVIRGnq8PAvFOuCN+lDdXY/yrhqcCl8CjeJfg4fBOVEUq8g/9H6Z0Ff4KCF237Kq/E6amRANQ87g5ev4+rXer5Hn34UdN/fix5u/4Wj7GfD9aO7ywihp8LKjORZXJ4ER8EUD/JuxSICXSYZdtyVpDAzgByxCCFOSUWa/1+Z05Bl0fTGduB9Y1bx5zLo+mXZDs4vdpvmBArzj2QS7azHTbWhC9qfGKJlkvM7NQ0azTK6ZjTca30Nuy3YcbjuJqu46pvSoQ3gEih6YxFPcWYE9wUNY0/wFmIrEWdZWPQOSNFoqTKSIPGgRQgghhJABnFpiBG2Oez0YJyZEutOHOKOVE4pRfC5Y2T8shfs6h7yWEuYgBnb9FmNe02qui+qkkdJdRbYqGcBCmBnrtaxHbE5HsUHXGNNpd/DgKM8wDaG0y4m9oSNgIeGM+uWMnR7oPs2S2WVQDTaEn3S+gsm1c8B0n3XereDolouRUnh6W9HZpzSf2529eI5y9TThr/BFsGj2bU8uptfnYGL1TH7OfAZY/KAuX0kaPTVZy+xPW4QQQggh7kRGRfZEm9PRbtBNjXSLWDN2KAohRDrCrt+t/p/x3D9dv7pglaTEXu7QhPNT7rMIIUxNwgSeZnM6QkZda8wgGk7cH5R1VWEk6eiLoKK7FoVtRfi0ZRuYJPNs9Sy+30CkrcwuM2qwIWwdiIy2uxZhqXsdPmv9AftCf+BCpJQpQPwOpF2xaE+8F0xkqulpxOnwFewKFoJx2nMbV+HF2rkcl8PPTs+AJI2tohnlin4WQgghxDCxVWY/ZnM6fAbd2Ej/cUhldTk734QQIp3gpduZ8BXM7+/61SWTJCVV6fjeIoQwPY/unXRPRnn2JsOuNSYQTbxZDSvRFuvA3dAV7wY7HI91nMUWXz7mN63B8zWvM0ZYZlcKi39TfocGz6l9pnoGXnLNx+zGd8Fo423+X3CwrQiM/OZ3hIWJTCCKmTBGOg4gFo8h3BdBc9QHRmJzdvW+0FHwe7/CswGv1i+n2cv5vfw8NMdaksZ/31844eKUhyxCCCGEEMOMgJYBbCLxQDqtLgc8aAohRLrQ2OvhvGfOEtOsX0n6t76zCCFSgicuZz5sq3ScM+haY3jRmN3YuuN/dTo29XpxKnwJ3/r34E33OtD0eqpqWtLwkuGbpkqawslO4WR8NI3hF2rnYEb9W1jiXovVzVuQ598FmqfH2s/iamc52DXeEvXDHw0i0teFznj3mM0b5lxevh9H3vD9vVEfrndV43ykBIfbT+KnwAFs9u3Eyhu5YHHly3VLManmNXB2NX/vxyuzZPZKktFUmd1gLZmq6GchhBBCyABOVfEAxsNlLM3ip4QQ6Qkvyw60ncD0+mWwapaYJN1C6gAWIpWwltkzbU5HwKDrjaFFw/ZI+6lhpYrQEOPM152BAqy4sQFTXAsYadtv9Mn0koZlDDNC2o4JQ8xSO9gpzqJFdo1nuRaC5upi91rkuNeDEcosUtjYsgP5gQIUhP7E76FjoPa3Hce5yDVc7byOK7cR/72o4wJfM0Tf+Hcjt2U7+P+/7/kcLGRY0PQBHHVLkOlawHh0pokNNrWTP3tyn629tiT9zd6dAElV3Xscvxqp58tWyUueqadJpd5LNCaGme4rMWjAJWoEZKb7Ai4IKkZxgQAqQuIeRdSnUYkxGKMRMIa4PFCj0YhxIRJAdpitu2dfmJXZ957u/r0+MsMWFZCZ4Xb391P1raI0QYbpvnVm/nPOcW/d3hzftRYAAMBBDoC/Ga/QpQsc2ifzxeSypjcFAMksqpjMzokbt9+/85uxQe76JfqEHrYAJI3/+e3wo7y5/nl20Im69Jnj2oHc6MKpKu6u0L5iiqkh0qQtHXl6rvF13V61QOOLZ8js4vT0HmvrYa1B/ft67Bu07rmD2Oys7cv8e/P1/V6Zde/w0EX7zRzJvO//N33377/vUJoBL1GC583zP3fSWz/5vAUAAHCQA+Cvxlvn1kUO7f1F5DkFUxToKhIAJKuKcLUerXtGZxdM4chFogPrBgtAUklfP/YYO+iscOkzx7UnJU2vuFvm6FujOdqq3K5CvdL8tubX/E6TSm/SyPxJuwa+6ZwsQi5t56DW+bh43RKlXjnxdcFQCwAA4GDZoQ8HwOtdusihPUoP+nRF2c1qi7YLAJJNY6RFy5pWyBz37A36OXqR6MCbZQFIOp4s36l2wCl36XPHdZl1w61Vj2hFyyo9VPu0Liv9uX5ccLn5d707IRn4EhFRghVwWjxbMy+xAAAAPuU3Fr5iB5y1rl3s0F4D4F/XPSMASCbdsbBWtq0zd5SZu/s47pno4JtpAUhK3lz/DDvodLn02eO6hocuNEfjmoEvp4gQEVHC5831P3LC0tOHWAAAAJ/GiS//+Cg7z/+yWxc7tDtzH9DfW1cL7hWOhdUTiwjA/kUVlbmL746qRzUif6L5Rq1rn79ELi7izfM7FoCkNHTVmM/ZQWeJS58/RERENHCtTFtz/nEWAADAId4D/IJLFzu0x5FmGUXXqixcJbhHJBZRXU+DPmjfqsUNy3XT9v/VbVULtLZ9q8z9YwD+VUwxhbpK9HDtIu75JTr0wvHOsQAkrfQNY0+wA06WS59BRERE1N8FnMr0DWPPsgAAAPphAPy8axc9JJMZkMyqmC9zVCoOn6iiaoq0aktnnp5vfF23Vy3QRSU36Ef5F8t8jtJ6Oz1/ku6pflw5nQWKKCoAO20P1+ip+hc1unCqec9wzy9R/wyAz7UAJDVvts+xA069S59DRERE1H+Fvdm+ORYAAEA/DYAfdumih3ozu+MW1y8XBldMUmu0XbldBXq56S3Nr/mdLi2do9PzJ5vPyc77xYI+8+t/+XyZ4da5hVfovponlNOZzyAYKa0iXK2n65dpfPHMnacacM8vUX/VEO8UC0BS+8/J3zrSm+u/2w46MZc+i4iIiKh/+mPa2vO/aAEAAPTTAPgOly56qHeYaO7HXN+eJQy8jminCrvL9LeW9/VQ7SJdVXarziq4TCcHxyktkHFQx9V6GAQjxfUNficUz5SXwS/RQFQW7zsWgKQ39P3Rx9gB5zWXPouIiIjo0Fuf9sH5J1gAAAD9OAC+06ULH+odmFxYcr3MXbPof12xbpWGK/Ve6zot3PEn/azibp1XeKWGBcf3Hum8n4HvQQyCzymcovtrfs/R0Eh6FeEaLapfrvHFM2QGv+kMfokGbgAcck60AKQEz7ZMrx1wQi59HhEREdGnLeDUerJ8oywAAID+ZOf5p7p2AUQyg8M7qx5VlIFhv+iJRVTVU6c17Vu0qH6ZZm+/X2OLrtEpoQt67/EdmHtJ990RbAbBmztyZQbQQDKIKqaC7lL9of7/NIGjnokGq2xvtu9rFoCU4c3zT7SDTrNLn0lERER08IXtgDPnG7elHWkBAAD08w7g8dwn5d6GBcdpedMK4dOJKqr6SJM2deToz42v6daqh+UUT9dp+RebXYlm4DvoQ6q+QfAZBZN1c+VD+mfbJpm7hoFE1BOLKNRVrIdrF2l04VVmxzyDX6LBa50d8H/OApAyjn9mxBDP1sz5dtCJuPS5RERERAdayJE3z//sSW/95AsWAADAAAyA/XwDwZ2ZQcrZBZcr2FUsHJiYYmqMtMjct/tS01u6p/pxXVI6WyPzLzF/n30DX/NrV3x+zSD4R/kTNa38l3qzZZXMsBpIBO3RDq1r36a7qh+TOTY9Pehj8Es0+K2OxwAYSDHpGzO+bOf5l7n0uUREREQHlhn+bvBs833bAgAAGKAB8KnxGty6GErlzEDlp2U3szt0P9qiHcrvKtUbLSv1YO0fdFnpXJ1ZcKlODjpKC2QoPfDhwNe1n+e+QbA5hvrS0rkyd6eWdG/n2G+40o5Io1a0rNL12+drRP5Emdeux8XvL6Ik77l4QywAKSftg/NPsoPOVpc+m4iIiGj/VaZvHHu2BQAAMIAD4GHxal26GErpzG66BbVLhL11RLtkBqTvtn6gx+qe1TXld+icginmuGyzw9cMpFw98P24vPH6htXmXmJzT/D6jiyZATdwOEViERV0l+np+mWaXDpHp4QmJOz7jCjJWmLnjzvKApCSvFm+0XaAr+OIiIgSsHbP1szpFgAAwEDybM44wQ44ZS5dEKVs3ninhi7SyrZ1SnXdsbAqwzVa3bZJT9a/oGkVd2lM0dU7h1AJPPDd3/DffFyn50+S+XiXNb2p8nA1u4IxqJojrVrVtlF3Vz+m0YVT+3aru/Z9Q5RqeXP9CywAKeub8zxH2gFnth1yutz6nCIiIqKP7Nfxe3+PtgAAAAaSnef/ih108ly6IErZPL27QCvC1Uo1ZrdhXU+DNnbkaGnjq5pb+aAyi64zA3EzfDK7fFPmrtG+e4tPDo6Tv3iaflX7B61vz+JYcAyYcCysgu5SPdvwF11Zdot536XUe44owfq5BSClxb95/Flvtu8Jlz6jiIiIaJ+8Ob4V339v1LEWAADAIBwB/eV4m9y6MErVzKBz9vb7ZYYxyS6qmBoizcruzNeyphW6s+o3uqBkpkbmX7JrAOoJuvse38HbFezTyPxJurr8dj3b8Iryu0rUnQKvEQysmGKq6dmhv7W8r1sqH9aowivN+y0pd9cTJVmzLAApz7Ml8zg76Kxw6XOKiIiIdpfjzfWnWwAAAIPBDjlH20HnLy5dGKVsZuiyuP4lJauWaJtCXSV6vWWl7q35nSaX3qQzCibLfOxpgQylM/D9uPYazI0qvEpzKx/Qa83vqTJcq0iMI6Jx4BojLVrTvlmP1C7WhSWz9IPQhJ0/cMF7jygR6oo3zgKAuLR159t2nj/Xpc8rIiIiCjh16evHOhYAAMBgGfr+qCHePP9S1y6QUjAz2DN3v27qyFWy6Ih2qri7Qu+0rpUZNv207BadUzBF5mjjtCS9x3ewdgWbvz8zuDNHRN9V/ZhWtKzaOQzmvmB8BHN8+NaOPJn7tC8v/blOC1288y5tjngmSrQ64o2xAGD31T6OHXTqXPrMIiIiSuU64s04fsmIIywAAIDBZAecB1y6QErJzFDv4pIbZI5FTlRdsW5tD9fon22btHDHUl1bfqdGF041g0pzjDED3wEfBk+XGQa/+eEwuEbmXmWkroZIk7Z05Omp+hc1tew2nZE/WZ4g70OiBK+B4+MA7Om4OScdmb4pY7YdcDpd+twiIiJKxWLeLN+CE5edebQFAAAw2Oygc4tLF0kpmRnKmOFdVDElinCsR7U99drQkaVF9ct1w/Z7lVl0nU4NXSTz8aTF87DD8LANg829yq80v62i7nJ1xrqE5BZVVOZO39Xtm7Wgdokmld4kc3d0OkNfomSqMt7xFgDs4buvnm2u91lgh5yoS59dREREqVXIWebZlnmMBQAAcDjYQefyeBHXLpZSrGHB8Xql6W25WURRmV2FWZ1BLW14VTdXPqTxxTM0In/iruGjh3t8XTUMNsdtn1d4pWZUzNOShpe0uSNPZpd5lKOik0JntEuF3WX6S/M7uqd6oSYUz9h9vHOA9yJRErbZDjlfswBgH2lrz/+KN9u33KXPLiIiopTJm+Nfl7ZmzHcsAACAw8Wb5fPbQafbrQumVMoMac4tvEKhrmK5SUwxtUTaZP5cLzW9pV9W/0aTSmebo2TNn5mBb4Lk2fm56r1nerLMztB51Qv1WvN7Mp/btmi7kBi6Y2FV9dRpde8x69Mr7jIDfjPo5/1IlArl+d+LD3m+aAHARxi6avS37aCzxrXPMCIiomQv5BR4s30jLQAAgMPJDjjD7KDT4tpFUwpldutdXX672qOdOtw6op0q7q7Q31tX64GaJ3VF2c06u+DyvgETR8kmeOZzZz6HfbuDzy6YIvPae7Tuj3q7dY3M57492qFYAh1Fnsz6Br6bOnK0tPE1zd3+oHxF03Tanses834kSqVeiB/1eoQFAB/Dm+0bbgf8hS59hhERESVvAX+jZ1vmhRYAAMDhZoecb9lBp8i1C6cUyuzaW1C3RIdDV6xbFeFqvdO6VmYIeG35nRpdeJW5R5aBbwrUNxA2nRKaoNGFU3Vl2S16oOYpvdb8rnI687Wjp1E9sR5h4Jnd2KXdlVrVtlFP1y/T7O33yymerpH5l7DrnohMD1oAsB/p68eOs4NOtUufY0RERMlYZ/rmjFn/df33PmMBAAAcbukbM46xA/7NLl04pVQ/DF2gla3rNBjCsR7V9tTrg/at+v2O5zWrYr4yiq41f4a+ga8ZMLn274oG/ocR+naWDguO05kFl+rikhtl7ns2dwib16m5c7Y50qowQ+FDOl7d7Lav7qnT5o5cvdz0d/2q9mmZ3dhjCqdq+Ic7fLlXm4j2zpvjm20BwH7892M/PMIOOtPskNPq1ucZERFR0hRyIvHu82zLPNoCAABwATMAHmIHnTdcu4BKkczxrZlF18rswh0IkVhU9ZEmbezI1jMNL+sXlb/SuOIZ+lH+RJnBUhoDX9rvDuHdrxOzS9jcOTu5dI7MUPiJHc/pjZZ/KKszJHNUcUe0S1FFhd3M7unGSLOKustlfvDiuca/6r6aJzSt/C75iq7TyPxJfTuxGfgS0ScVsQPOOAsADsD3/nbOEE9W5nw76PS49JlGRESUDMXig9+l31856ksWAACAWwwrn2B+Mvy3Ll1ApUxm6DNn+wP9tpsyppjM7sy8rkK92PiG7qx6VBNLbpQ5QtbDEbLUD3n2GAqnx/tBcLxOz5+k8cUzdE357ZpXvVBP1b8oMxg2P3hQFq5SQ6TZ7HhN2ruFzfu3Jdqmmp4dyuss1D/a1ssMeh+pXSxzjPPk0ptkBuenhi6SN+goLZChdN6LRHRw1ccbbgHAATrh+TO+4NmW+bhLn2lERESJX8D560nvnHesBQAA4DZ2nv961y6iUqg/NbyqQ9Ee7ZQ5ltfc2Wp2Fk4p/YV+XHCZGSxxjy8N2k7hvh3lfa+5k4PjZH7wwAw+LymZrZ9VzNMvq36jhXVLZYaj77au1Yb2bJnXrtkB3xptl3kt98QiisQ73KKKyvw5zD3Z7dEOmbuQS7orlN0Z0pq2zTLHNptjse+v+b3mVj6oq8puVWbRdTqr4DIND12o9L3/PszgnPchER1KBd5s3zcsADgI3hzf1+yQ86JLn2tERESJW8j5hzfPf6IFAADgRnbAybSDTqdrF1NJnhkGmQHZlo48HQwzkCrtrtSKllVaULvE3Btqhmxm4MbAl1w4GPbvGoYONTtfe48cNzuHzY5Y89o1g1OzS/anZTfrtqoFMoPiBXVLtLh+uUzmhxvM/cPvtX6gVW0bFewqNoPjj828P+p6GlTcXfGJ/7tNHTnm94y3Tu+0rpX5YQzz33tyxwu6p3qhzJ9jZsU9urR0ji4omaUxhVebe5HNUdjm/db7QxYZ7OglosHoXTvP/3kLAA6SJyvz6948/7sufbYRERElXN48f8CzOWOYBQAA4FaeLRnftQNOlVsXVMmeGRaZu1SbIi37OV42rOqeHXq/bYPMnatmIDW26Br9IDRh9+5Chk6UgHnjeXp3D5vXsSltVxm7GhYcL7Or9ofxzNDYDGHNTtuP7lKNKrxSF5Vcr3MLrzD/7GMbkT/R/J69v/cFvYPqjN4yd5X+YT4GvER02PLm+hce9YXPHGEBwKcwdOUorzfbt86tzzgiIqKEKc9fnLZ6zE8sAAAAN7ODzpfi/dO1i6okzwyU7ql+XPuKKCqze3Fd+zYtrn9J5nhZp3j6nsfKmkGUaz8uooHIuyv/fuvbdWx+vf8ceV36MRMR9RazA87PLAA4BJ5NGcPtkBNy6XOOiIjI/YWcOjvgTLQAAAASgR1wnnTtwirJMzt4X29eKaMx0qKtHQE93/iG7qh6VGb34mmhi+Vh4EtERJTqtXqzfGdaAHDoX/udZ4ecQpc+64iIiNybGf4Gncu/9fhwTuUBAACJwQ46M127uErizM7DM/In6/Edf9Z9NU/ostK5Oj1/svnnvUfOctQsERERfVgg3tctAOgH3myfYwecHS593hEREbmvgNPlzfLNtgAAABKJnec/y+wsce0iK4k7OTjO1HfHKANfIiIi+qheTd849t8sAOgHx97wvc+krx87zQ74G136zCMiInJPAafTsylj3gl/HPlZCwAAIJF4c/zH2kEn17ULLSIiIqIUzpvrv9cCgH507Mzv7hwC5zEEJiIi+oTCni0Z849fMuLfLQAAgETjzfINsYPO8y5daBERERGlct3eXP94CwD62X+MOe5Iz5bMG+2g0+XS5x8REdHhLBbvqfQNY79oAQAAJCo74Nzk0sUWERERUeoWcMrjA5rvWAAwMD8M/O92yLk3Xrdrn4NERESDX8wOOYu8Wb6vWsD/s3evP3JWdQDHn1Kg3ASiooUikKLQ0t2ZOQ8YUIPQYqF7mZnnvNDoC2NM4RVqopgomABR1BhiBGNMjBoNIU3AC2BjMIKVa+9dureZZ1YDpkl5QVGgXmiDbVxMRIMgrW3ZMzOfb/L5F3757Z55zpEkqZvzDjAAQILaxQPVraMnZpJ0hJqdMQ6BAeDVh78TzbdlkiRJ3V7eLhZ5BxgAIDFl9P6vpCNedVv9BIfAAODwV5Ik9ViVDcNH52W8O9HlCwCgH72Yt4uhTJLelEPgUYfAAPQz1z5LkqTeLEwXn050AQMA6Ee/y9vFOZkkzeYQGACOqDvDpC9/JUlSD5aX8aK8E3cluoQBAPSXdnFXZf3wsZkkvZLroAHgcAtTzXWDjw/74aUkSerNauONU/Myrk91GQMA6CP7w3RxbSZJc1B16+jxDoEB6AP78jKuGXho1XsySZKkXi5vF19LdCEDAOgnz4TJZjWTpNfMl8AAcDje/HXtsyRJ6ovydjGcd+LfEl3MAAD6xYNhqnlSJklzWG3MITAAPelfh79vzyRJkvqhMN1cmHfieKLLGQBAfyjjFzNJSqDatrrroAHoJb78lSRJ/Vlexm8nuqABAPSD3WG6uDyTpAPKl8AA4PBXkiTpja+BHnUNNADAHCnjptpY3T+lJCXTK4fAnXjLrD8nOz8B4PXMxH0OfyVJUl8XplwDDQAwZ9rFVzJJSrCl965YUN06+qm8jM8lO0MB4NXK+GJtvHFr7YnGWzNJkqR+zjXQAABz4tm8XVycSVKinfmFwfnVraPXOgQGoCuUcU/tifot591x6fGZJElSvxdaxUjeiS8mu7wBAPSm39TGGydlkpRw77qhMr82Vl+dd+KORGcpALxsd+2J+pfPX/NBh7+SJEkv9/K7c3kZNyW6vAEA9KL9ebv4XCZJXVLejkP5THwy0ZkKQD+bibvydnHNeWsuXZBJkiTp34VWcVOySxwAQO/ZWRtvDGSS1EWFyeZVYbo5lehcBaAflXHnrE+cdWN1XiZJkqT/OgC+KO/EZ5Nd5gAAekkZ14SJxjGZJHVZg4+sujBMNzcnO18B6BuhVfy+snFkKJMkSdJrV1k/fFxexntSXegAAHrInjBdxEySurTBx4YqeRl/mc8kO2cB6HVl3FrZOLwykyRJ0v8ubxcfyztxb7KLHQBALyjjljBdnJZJUhcXppqLZq3Jy/j3ZOctAL1qXZguLsgkSZL0xlXH6gvzMm5NdLEDAOgN7eKGTJJ6oCX3LD+1tr1xe96Je5KduQD0kv1honH34KNDZ2eSJEk68PIyXp/oggcA0At2hOliWSZJPdLSe1ecGFrF5/OZ+EKicxeAXjAT9+bt4rZlv165MJMkSdLBFSabS/Iy/iHZZQ8AoIuFdvG98++6fH4mST1Udcvo0dVt9atDq9iZ6vwFoIu14/O1sfqXatvqJ2SSJEk6+BZ/55KjQqu4PdmFDwCgW5VxV5hoXpJJUo9W3To6nHfieLJzGIButKO6rX7NousrfkQpSZJ0KNUmmiHvRL/cBgA4vO4OE80FmST1cGG6uDC0it8mOocB6CKhVWwP08WVmSRJkg696ubRo/My/ijV5Q8AoAu9kLfjqkyS+qCBdVctDq3iznwmvpToTAYgZTOz2sWvBh8bCpkkSZIOX3m7uDzvxD8luwgCAHSXn9a2N47PJKlPqo03TglTza/nZdyd6FwGIEVlfClMNX8YJpuLMkmSJB3eamP1BXkZ70h2GQQA6B6+/pXUly3+7iXHhonmak8MAXCAng+TzZuX3LvilEySJElHpupY/eK8jE8nuhACAHSLn/j6V1I/V9kwsiq0ivF8Jtk5DcDcX/n8VGXz6MeXrr1ifiZJkqQj1xnXDcwLreL2ZJdDAIDUlfG52kRzZSZJfV51W/2CMNX8RV7G/cnObADmRJhqrq9tb7w/kyRJ0ptTbaJRyztxR6oLIgBAykKr+P6Sny0/JpMkZRfc/6F3hsnmt/KOd4EB+KeXwnRx58C6q87NJEmS9OaWl/HGRJdEAICUPVWbaIRMkvRKAw+vOrY6Vr86Lws/NAbob3+sjtVvGnx0yHu/kiRJc1Fl88jZoV1sT3RZBABIU7v4aiZJer2/My8Lk831yc5wAI6Y0C46Yar5kXNufa/3fiVJkuay0CpW5524N9XFEQAgKe1iorJ5ZHEmSXrdBh8fendoFT/OS39rAvSJfaFdrJ3dky/MJEmSNPeFqebJeRnXJro8AgCkZG+YLj6ZSZLesKVrr3hLbaJ5Xd6JTyc60wE4HMr419pk87ZlD1z5jkySJEnpFKaal+Wd+EyyiyQAQAJCq7hv4KFVJ2eSpAPqjM8um1fdMroqL+PGVGc7AIegLJ6cnfOrl9634rhMkiRJaVXZMjI/L4tvJrtMAgDMvZ1hqvmBTJJ00FU2jpwbppp35DNxT6IzHoCDMRP3henm/ZUNw+/LJEmSlG617fWz8jJuSnaxBACYQ6Fd3Dz/9AXzMknS/3kIPHxSbbxxXWgXroQG6G7P1yYa36hsGT0tkyRJUvqF6eLDeSf+JdHlEgBgbpTFw5VNIwszSdIhdfpnlhw1uGF4eWgVj+SduD/ZuQ/AawrtYrI20fjokp8vPyaTJElSd7TswSsXhFbxg1SXTACAObCrNt5YmUmSDluzh8Bn1iYat+VlsTvR2Q/Af5qJe2uTzbtm5/dAJkn6B3t3/xxXVQZw/KRtKhQoCgXa0BEaW9pms/eec4ECRWkpTZrs7r33XGTA+hPMiCI4neFNBUGcKTqOYJVREBRxBgVBGJEZaEIjkNCmSRqSbHZz994FBRRwBKEFLCAJ6WgB6yAvLSXZnt39fma+f8PzbJ49GwAoP/agu8CJdd7YhZOIiIiodO1QoX91/S9O4qefAWCCLbxz2XRrS/qLTqwLhs4AIiLaWRw8I3PeRVZvaqYAAABA+VKhf7pTDLYZu3gSERERlSAV6S57MHOEAABMGqsvnVR5/y4nDkZNnQdERFVZHIyrEf8hqy+9QgAAAKD8NXa11KqCXmfsAkpEREQ0+T2jQn+ZAABMusX3nTbTHnTXqIJ+0tCZQERUbb0g8/7ahg1NfBkSAACgkiQ3p+Y4se40dAklIiIimszecGJ9oQAAlJTVm16qCrrdKQZjhs4HIqJKb4eKdI895HqL7z9tqgAAAEDlkVlv+c7XL4YupERERESTkor07xq7Wg4SAICSa+xsmaXy/uVOHDxr6pwgIqrQtqoRf53VnTpKAAAAoLKp0L/AKQavG7qYEhEREU308Tcns26DAADsM4efVV9jD7rLVEG38RqYiKg0r37lkOsvvO2UWgEAAIDKl+xqOcCJgxsNXVCJiIiIJrLnVEFnBADACMlNrYdJXgMTEU1ecfDiW69+e3j1CwAAUHXs/kydKugHjV1WiYiIiD5+b6gR/xIBADDKnPMX1dgD7ilvvQaOeQ1MRDRR7Xr1+9tlvPoFAACoVir0lzjFIDJ1aSUiIiL6mF0vs96BAgBgpER70yx7IHOhKugnDJ0jRERlkYr0cyrvf9/qTfPqFwAAAELIrKedOPiHqQssERER0d6kQv+B5KbW2QIAYDxrc+p4NeL/2ikGr5o6V4iIDG1MjfgdVl+66bDPHz1FAAAAADvNv+mkKU4cXOQ8xgdtIiIiqpiyKvQtAQAoG4kNTQfIrHeOCv28obOFiMioVKiflMPeJcmullkCAAAA+H9WT2q6Cv0fOMVg3NSlloiIiGhPUgX9tD3orhIAgLKU7Go5Rub9a51i8IKps4aIaB+3Xeb925KbU8cKAAAAYDfftj5E5rxfGbrYEhEREe1J2+SQe5YAAJS1Bbd+dpocclvViN/uFINRQ2cOEVGpG1eh3yOz7urEA00HCAAAAGBPyKxX5xSD9YYuuUREREQf1stOHHzN7s/wv88AoEI0PrTqUJnz1qiCLhg6e4iISpIq6Gdlzlub7G6dKwAAAICPSo34Rztx8KCpCy8RERHR+zSmQv/yxIamqQIAUHGszanFasS/3on0i4bOISKiySkOtqvQv93akj7xyIsb2HUBAACw96wt6eNUqHPGLr9ERERE/y0OxmTW+3HD+pUHCQBAxTrm9s/VWj2pZpnz7neKwevGziUioolpTEW6xx50Vy++d8UMAQAAAEwEqye1VIU6b+gSTERERPS/4+/9p3H8BYAq0fjwqk/aA5lzVagHnWKww9gZRUS0l6lIP2YPut9IbmqdIwAAAACOwERERFRFvfPyl+MvAFQjqy89T+b976hIP2XonCIi+qiH3+dV3r/O7s80CgAAAGAyWb3pk1WBIzAREREZ1Zgc9q5raONnnwGgmtXOqq1JdrceJ7Puz5042GrozCIi2l3bVUHfY/WmV8y/Zek0AQAAAHAEJiIioiqL4y8A4F0W3rV8uj3oNqkR/24nDl4zdH4REb27OBhVI/4j9pB7RuKhVTMFAAAAUFq7jsBDxi7NREREVPnF7xx/2zn+AgDeq6Ft5UyrL/0FmfM7nDh4w9h5RkTV3riKdL/Vn/lKoqP5CAEAAADsS/aAm3CKQbuhyzMRERFVdttlzrumoW0lryMAALs7BB8qs955KtK9TjEYNXSuEVH1Ne5EOi9z/mVWX/ooAQAAAJhChXqeUwzu+087DF2miYiIqNJ6LHjZiYM1De1NnxAAAOyhZHfrHDnsXaBCHRo744ioKlIF/ReZ9dZavel6AQAAAJgo2Z2aLXPeL51i8KapizURERFVRirST8ucd7bVl54mAADYC42dLfPtAffbKvQjvsxMRKU+/NpD7g+TG1tl3aWJKQIAAAAwWaKj+RBV0N91isF2U5dsIiIiKvPiILL7M1oAADAxh+AF7xyCYw7BRFSKw2/jxlZ5+JcWcPgFAABA+bAH3Oly2DvPifTfTV24iYiIqDxTke5SoT5OAAAwaYdgzSGYiCb88CuH3HU7X/zOubiBwy8AAADK07QZ02tk1nOdSOdNXb6JiIiorBpTob4jubGV/48GAJhUya6WBfagexWHYCKayMPv3K8nOfwCAACgMiS7U7YKdTsfmomIiGivi4NtMuuttfrSBwsAAHYp0SG4oIedYjBq7JwkItMaVwX9xK4Xv19dxOEXAAAAlcd+1D1C5ryfOnHwqqGLOREREZlapB9XoV49/+aTpwkAAPaB5KbUXJnzzleR7nViDsFE9IGNO5EeUXn/Mqs7tfjTV8mpAgAAAKhki+9dsZ8c9r6sCvopQ5d0IiIiMqs3nThos/szSwQAAAawulN19pbM2TLnb+ALzkS0qzgYVSN+j8z5F1u96c8IAAAAoNrIIfd4VdBt/CQ0ERERfWCR3qby/tXJ7tThAgAAwzS0NX3K7s+crkJ9hxMHLxo7T4locouDf6pQt9uPZs5NdDTPFgAAAEA1Sz7SOlsOe99zIv2CsUs8ERER7ZsiPSQH3TPnrVvCTz4DAIyW6Gje3+pJL5dD3g2qoJ/mi85EVVKkn5fD3m1Wbzrd2NlysAAAAADwtnnXHj/V7s+0qFD3GrvQExERUSl7RYX6RqsvvUAAAFBG6n9y4jSrJ2WpvH+FCv1B/k8wUUW2Q4X+4zLv/8jekjlx4Z3L9xMAAAAA3p/dn6mXOf86Femthi74REREVIpXv8Pe6ob1K/lDGgCgrDU+vGquHPLOUaG+z4n0S8bOXiLas6LgNRXqTpn1Lk0+0rLwyG82ThEAAAAAdm/+zUtr7f5MSo34G51iMG7s0k9EREQTW/z2q197S4ZXvwCAitKwfuWBVl+6RQ57N6pQ/5nPukTllSrov8lh7zd2f+aMxIamQwQAAACAvZPc1Fonc/63nDh4xtQPAERERDQhvalC3WP3Z85M/LGZV78AgIo198rk1GR36yJ7wF2j8n6XE+nths5mIioG/1KhHpA5f21yc2rJ/FuW1goAAAAAH1/99SdMsQfck2TOv4MPxkRERJWXivRf5ZB7pbU5VScAAKgiiQebZ1k9qZQc9m5SBf0nJ+ZVMJEhr32flTn/bpn1Vjd2rporAAAAAEyORb9fPsMecM9Uod7Eh2IiIqIKKA5ekjnvVrs/c2zNjJoaAQBAlaq/4YSpjV0tx8hBd40a8dc7cbDV2PlNVKnFwSsq7/fIrHdFcmOrXHTPqfsLAAAAAKXR2NlSZz+auUgVdGzshwYiIiL6sF5VBd0ms55e9IdT+blnAADe/b+CZ9oD7qly2LtGhXrYiYPXDZ3nRJXQqAp1Uea8n9mDbjrR0XyYAAAA+Dd7dx5jVXUAYPxBWbRSBTcQEEWWYebNvfecKxYFGhGc5b27nVdJo7ZaraaVmKi1atpEW4vWtklta8XYTWps0Sa0Uhd01FFkGGZ5s7xt3nt3qqKRKLi0rgjCMO2942jcqqUWvTPz/ZIvb/4lJPed88495wD47Ohpq0IWvJVmOfVYRCcRRERE9O781B7Z47Ub3c5ZwQtdh8QAAMBHqn6kbrreZi0XOfc2s6yeCBerIvs9TzR06jfLaqvs8e4UWfe8YFw6a8Y1YnQMAAAAQHQYaatK5NxVsqS2RXRiQURENLJ7e+G3y14R/JA9JQYAAPZJxdolY/XW5ByRcc6Veffu8H5SrkYi2rdkWT0vC26j6HYu09ssvWr9Mk6iAQAAAKJszi2LxuityRNF3v2Z6au/R3WyQURENKLyU2++s/C7oe6oGAAA+MQq71r6eX1zQhhd9kUsBhN9TL56WRbcDaLb+Z7ekjwxPGI9BgAAAGBoOWjuIaOMDmuezLsrZY9XMP1UX2QnIURERMO1snpt4I7fjHMWC78AAOw/lXcPLgZ3shhM9HayrF6QeXdT0I+MTntpcK/vpBgAAACA4UF7tH6GyDgrZNFrNMvq1ahOTIiIiIZJ/aavnhZ59096u5XUNtZPjAEAgAGf2mJw83t2Bm/lzmAaIfXL0sDxzg+JLntgp2+84VTGogAAAMBwFm+omWikrYTIub+WRbXF7E3tieiEhYiIaOjlqzdkSbWIjHOlkbaMynWnjI8BAIDP1OAx0drAncE93hqzrHzTVzsjO54g2td8tdssqy2yx1snMs5FekvyJI53BgAAAEagY1bKz+ktyQqRcb4l8+79sqReiOxEhoiIKMr5qT1mWT0hss4tRto6TWuqPyIGAAAiKXg5a5zWVH+skbaWi7z7C1nw2syy+ke4azKyYw2iD8tXr8qSysu8e7PRYZ+tbaqfG2+oOTAGAAAAAINHY00w2q1FIuf+QBa9jaav/hnZCQ4REVEU8lN7w3sFZd69S3Q75+ttyTlzb1s8JgYAAIaU+AM1h+mtycUi61wicu6dsqSeMP0Uu4Mpevmp3bKknpZF70GRdX6ot1u1ekty2ozvG6NjAAAAAPBRqh+unWh02l8S+XAxWDWZZfUcb0ITERGFvbXTN1z0Nbrsi/XNCREeKRkDAADDwry1S8ZrzYnZRoe9XGTd62XefVSW1HazN9UX0bEJDe/2hrvTZUmlRc69Kdzlq7cmK+MP1nwhBgAAAAD/K60pMUlvTZ5gdDnfkT3eWln0wjehd0V0YkRERPT/z1evyKJXEFnnDyLjnKO3WnMr71p2QAwAAAx7VffXHKy3JI8XWedckXdvlkWvxSyr7eH1D5Edu9DQzU/tNX31oix6XbLgrRZZZ4XeZi3UmhNHTLtCZ5cvAAAAgP1xT9LS8drG+vBN6K+IvPtT2eM1yZJ6LjyCKLKTJyIion3NT+2UZfWULHrrRca50mi3arWmxNTjVp30uRgAABixpnxz3qh4Y+1hRto+XnQ73xhYEC6plqBwQfjNyI5tKLq9daTzi0GdIu+GLxuuMDrshdUb6ifP/t0ixp4AAAAAPn3VD9dN0poT0ui0zxFZd5UseM1mWT0dxA5hIiIaOpXV67LoPSYLXoPIudeJbufLWnOiIt5Yx9HOAADgPzry63NHa02JQ4OE0WmfLjLO9bLHazDL6rGg1yI79qHPrrJ6w/TVk7LHeyT8HSX8PUXblJivNSUmz/zlAhZ8AQAAAETL1EuqR8cbaibq7VaV3mqlRMa5Wha8v8qS6jbL6gWzNxVMciI6ASMiopGRP9AOWfSeCWoVGeePIut+V2+1ktqmxMzgWOeDYgAAAJ9A1b2nTjDarVl6a7JOZJ3LRca5VRa95qCtpp96nXnxCMkf+NwVHhcuiyotMs7tIuteqbdZjpG2KuINNQdPvSjOkc4AAAAAhp7gh/RxwS7hKeHxWEanvVxvty6VBe8GkXfXBbWaviqbZbVVltSOweOy+iI7eSMioqFQ38AxekW1wyyrZ4N6Rc5tE3n3L0E/19utbxudttKaElXVjXWHH3PdfHZZAACA/WrqxdWj4411h2ob6+cZHbYTdJkMj/rNuy2DJ2jtMHtTeyM6tqL/rn6zrHYGPSsLXlrm3duNTvsqo8M+I0gG484jZt28cEwMAAAAAIar4M6k0RW3nzw+/kDtwXqbday+OalpTYlTRMZZLnLuBUaXs9LosFcFf6+RJXWfLHobZN4Nj+V83PTVs2Zv6kXTT71kllVfUL/pq/6ITgCJiOiT5AeVVX/Q3uDvV8Pnf9DzssfbIvLu48Fn++D3xB1Gh32T0Wn/WOTcFUaXc2b4vaI1J4XemjwuPJ1i7pqTx0+qmzEqBgAAEAHhYmD8wdqJWnMirrdbtSLrXmh02TfJonePLHgFWVLbwlNL2C0csfwwtXNwTNori979RpfzW5FxLjU67KTWnDCqH6k7fM7qxWNjAAAAAIAPqvjzkrHxhpoJQRODxeLp8YdqjzY6bRG02OiwT9Fbk1/TW5LnGmnrfNnjXR30kzCRddaIjHNf0HqRc8O7lzqDckHZoLwsettkj/fSOxW9l00/FU7gdn1Y4QSPiIg+pt7Umx94fpbVjvA5+55K6snweTxYTha8TeHzerB1suBdP/g8D+/hvVBvSZ4TZrRbiYHnf5ezQNtYf2z8gZrpQYeH3xOVf1s6LgYAADAMVN136kHB/HeK3maJINfotC8WefdGkXXXm2WVlkX1jCwN3C28m8Xh/Xp08x6zrF6XRW978Nkd/rYg8u5vRLdzmd5qnWZ02Qu0psTRwf/XhFhsNC8ZAgAAAMD+NvOGL46ZfevicbNXLxpbee+yA7TNiclac2Ja0NSg6dUb67Wg+UHHh2mbEgsGdh9nnTOCTn9/Rod9uZ62rg26hoiIPtC1Rod9hcg6Z77v+XmG0Wnb4XP2Xc3XmuorwufxYNOCHRITZ92ycGz43J71+4XhTgl+QAMAAHiXCYuOHFWxdsk4rTlxZDCeiuttVniC1tlGh3WVLHg3yqK3TuTcbllUj5t+arssqV2mz/VKH5mf6pMltdv01fPB5xaRc7Oyx7tXFrzVRoe9UnQ75xlpqzb8/UBrThxVec+yAyZfUMF9vQAAAAAAAAAAAAD2n8O+OnNU5d1LDwx2oh6qtyRn6e3WCdrmhCO6nbNkwbtCZJxfBd1hllSjLKk22eM9FbTN9NXLZm/qNdMPdxKrfw353cR+mAo/+wb/Xa/If7N3765RRFEcgMWACAsKviohwkazxH27hQjKrg/2vU7+AQVRrO0Em9RCWrWwVRQEU1hYJZg1sKxmTRZ0Q1JaCPbGQgvvSJBoqY2Q74MfM3cYzr1n2lNM6DPkY+i7XxxFC/mVztPcoP2gMOzcDvfXMkv1y+F7nc72GpNTLy8eDEPexPFHZ/2nFwAAAAAAAPh/HZ3J7U4vVPeFHErPV5Phmsq9bVXyg3Y9129eyfaat8L6ThiW3gu5Xxh2nuRX2otxwrpfXJteL65FGyHrxVH0qfA++vJbPkSb4Z1vYfD6/Z8yir7+UXsz1P68tXfI9EZ4trx1tm5+tfMiPm+c3KA9E/eR7Tev/+xruXUp/ao2dXK+OhH6PRKyP/nwzNguAAAAAAAAgJ1g/O6psTgnHp/bk5qrJFLPK4lMt3Yg22sms73GREgys1QvZLr1Skj5V17XL+Tfta/mVzs3/zrDzo3cm1Yjs1grb6tdCbVL8d7b9j8cnys1dz4x+ay8d3y2NHZstmSwCwAAAAAAAAAAAAAAAAAAAAAAAAAAAAAAAAAAAAAAAAAAAAAAP9iDAwEAAAAAIP/XRlBVVVVVVVVVVVVVVVVVVVVVVVVVVVVVVVVVVVVVVVVVVVVVVVVVVVVVVVVVVVVVVVVVVVVVVVVVVVVVVVVVVVVVVVVVVVVVVVVVVVVVVVVVVVVVVVVVVVVVVVVVVVVVVVVVVVVVVVVVVVVVVVVVVVVVVVVVVVVVVVVVVVVVVVVVVVVVVVVVVVVVVVVVVVVVVVVVVVVVVVVVVVVVVVVVVVVVVVVVVVVVVVVVVVVVVVVVVVVVVVVVVVVVVVVVVVVVVVVVVVVVVVVVVVVVVVVVVVVVVVVVVVVVVVVVVVVVVVVVVVVVVVVVVVVVVVVVVVVVVVVVVVVVVVVVVVVVVVVVVVVVVVVVVVVVVVVVVVVVVVVVVVVVVVVVVVVVVVVVVVVVVVVVVWEPDgQAAAAAgPxfG0FVVVVVVVVVVVVVVVVVVVVVVVVVVVVVVVVVVVVVVVVVVVVVVVVVVVVVVVVVVVVVVVVVVVVVVVVVVVVVVVVVVVVVVVVVVVVVVVVVVVVVVVVVVVVVVVVVVVVVVVVVVVVVVVVVVVVVVVVVVVVVVVVVVVVVVVVVVVVVVVVVVVVVVVVVVVVVVVVVVVVVVVVVVVVVVVVVVVVVVVVVVVVVVVVVVVVVVVVVVVVVVVVVVVVVVVVVVVVVVVVVVVVVVVVVVVVVVVVVVVVVVVVVVVVVVVVVVVVVVVVVVVVVVVVVVVVVVVVVVVVVVVVVVVVVVVVVVVVVVVVVVVVVVVVVVVVVVVVVVVVVVVVVVVVVVVVVVVVVVVVVVVVVVVVVVVVVVVVVVVVVVVVVVYU9OBAAAAAAAPJ/bQRVVVVVVVVVVVVVVVVVVVVVVVVVVVVVVVVVVVVVVVVVVVVVVVVVVVVVVVVVVVVVVVVVVVVVVVVVVVVVVVVVVVVVVVVVVVVVVVVVVVVVVVVVVVVVVVVVVVVVVVVVVVVVVVVVVVVVVVVVVVVVVVVVVVVVVVVVVVVVVVVVVVVVVVVVVVVVVVVVVVVVVVVVVVVVVVVVVVVVVVVVVVVVVVVVVVVVVVVVVVVVVVVVVVVVVVVVVVVVVVVVVVVVVVVVVVVVVVVVVVVVVVVVVVVVVVVVVVVVVVVVVVVVVVVVVVVVVVVVVVVVVVVVVVVVVVVVVVVVVVVVVVVVVVVVVVVVVVVVVVVVVVVVVVVVVVVVVVVVVVVVVVVVVVVVVVVVVVVVVVVVVVVVVZX24JAAAAAAQND/154wAgAAAAAAAAAAAAAAAAAAAAAAAAAAAAAAAAAAAAAAAAAAAAAAAAAAAAAAAAAAAAAAAAAAAAAAAAAAAAAAAAAAAAAAAAAAAAAAAAAAAAAAAAAAAAAAAAAAAAAAAAAAAAAAAAAAAAAAAAAAAAAAAAAAAAAAAAAAAAAAAAAAAAAAAAAAAAAAAAAAAAAAAAAAAAAAAAAAAAAAAAAAAAAAAAAAAAAAAAAAAMAgsWUAEGOZ9+0AAAAASUVORK5CYII=;clipPath=inset(14.14% 54% 13.45% 11.33%);" parent="uFBekcITJ7WLvXIk4Seb-20" vertex="1">
          <mxGeometry x="26.93" y="59" width="39.61" height="40" as="geometry" />
        </mxCell>
        <mxCell id="uFBekcITJ7WLvXIk4Seb-19" value="&lt;div style=&quot;font-size: 10px;&quot; align=&quot;center&quot;&gt;&lt;font color=&quot;#4d4d4d&quot; style=&quot;font-size: 10px;&quot;&gt;WhatsApp API&lt;br&gt;&lt;/font&gt;&lt;/div&gt;" style="text;html=1;align=left;verticalAlign=middle;whiteSpace=wrap;rounded=0;" parent="uFBekcITJ7WLvXIk4Seb-20" vertex="1">
          <mxGeometry x="16.54" y="99" width="60.39" height="30" as="geometry" />
        </mxCell>
        <mxCell id="hQ67yEuSmeyZ496hQBUE-1" value="" style="group" parent="uFBekcITJ7WLvXIk4Seb-20" vertex="1" connectable="0">
          <mxGeometry x="16.93" y="31" width="62.07" height="20" as="geometry" />
        </mxCell>
        <mxCell id="uFBekcITJ7WLvXIk4Seb-13" value="" style="shape=image;verticalLabelPosition=bottom;labelBackgroundColor=default;verticalAlign=top;aspect=fixed;imageAspect=0;image=data:image/png,iVBORw0KGgoAAAANSUhEUgAAASwAAAErCAMAAABTpk7/AAAC+lBMVEVHcEzIIinMJCvPJSvPJivPJizQJi3PJyzOJizPJizPJizPJy3PJyzRJy7PJy3PJy3OJizPJyzOJizPJizPJi3OJizOJS3OJizOJCvPKCzNJC3PKCvRJy3OJizPJizOJizQJi3SJy7cKTDgKjDaKS/XKS/WKC/TKC7RJy3QJy3VKC7ZKS/eKjDUKC7PJizPJizPJizPJy3OJizOJizQJi3PJSzOJSvNJSzKKCnOJizPJizQJyzRJi3cKjDXKC/YKS/OJizQJizPJyzPJi3PJizQJi3RJiy+Dg61Hh7NJSzRJy3OJizTJy3QJi3QJizPJizPJi3SJizJJibOJivPJy3PJSzSJi3PJizSJy3WKC7SKC7bKTDSJy3QJy3SJy3IKTXPJSnTJy3RJy3RJi3OJizSKC3PJi3QJS3PJyzSJy3dKjDTJy3OJivSJyzOJC/bKS/RJizRJy3PJi2+IRTKIS3SJy3UJy3PJi3UKC3PJizRJi3RJy3TJy3PJizRJy3PJizNKCjQJyzVJy7UJy3NJi3LKSnPJizOJivPJizRJy3RJy3RJi3TKC3PJSzTJy3PJi3SJy3NJSzaHh7SJy3OJizPJyzYKC/QJizdKTDRJy3TJy3PJizVJy3aKTDOJyzUJy3OJy3UJy3QJyzUJy3MIyzPJi3WJy7QJizPJizPJS3QJy3SJy3UJy3TJy3JJy7PJizOJyzOJyzMJizUKC3UKC7SJy3OJizOJy3OJizOJyzOJizOJizPJizQJizQJi3OJizPJi3OICrPJyvRKC3PJizOJi3PJi3QJy3PJizOJyzRJi3PJyzUJy7OJy3RJy3eKjHPJizPJi3QJi3SJyzSJyzQISbSJy3PJizQJyzQJy3XKC7SJy3UJy3XKC7RJizRJy3QJi3RJy3TKC3PJi3PJizTJy3ZKC/TJy3MJSzVJy3QJy7dKS/PJi3RKC3OJi3QJivPJyzOJizEIS7OJizTJy7UKi7NJi3OJizbKi/RJi3OJyvUJy7hKjHUJy0wMn5LAAAA/nRSTlMABBsuPlFdfpOrttXq///32MKcgmhVRDMhCg4oRYOlydv/////////////////++zf0K6NakcwFRhcj7TS////89q8l2Y8HQEGIFOIsue6lmIqDCNbjMXx//////bWmgMSgOry0o9PH1jZ/+OybSr/9bhzAhSmuW+V5eytiJ73sQtaus8ZF3Qs3u2UhOQ65qPgJwbUSaL/ef/9x2v6/1PW/+93vzZO+a/GV2S96f0QoCZCOPH99Ipu793NkH92kr7KCHE3S4bh/WC2+Yuqe53/wUG/Ye8NwiSZqf399f/6zzXw98R82//MTfz//4HKm1biuQfo6xTb+f+zbtz/jOZf2aUAABq4SURBVHgB5NeDlhxBFIDhtfeu7cr0lHrtHVRsu3tt24xt23YeMUfBQZx0V818j/AXb4AEAoOCQ0LDwiMio6KjY2Lhi9i46PiEyMSk5JTUtPSMAD+XmZUdlpOblx8TV4CWIYfmxJjANyjGTONI1wuLiktKy8orKquq/bFTTXBtnctd7PQ4ONcYLqDwIwQzr+AOJJavWLlq9Zq16/ym0/oNGzdtLgGNI1FI4LdQrCGHl23Zum37jp2+X2rX7j179+1HHsOkFP4MJaxeL2xobEpOa/bdUC3ZrQltTBc4lsLfItip17d3dHZ1+2Kp7p7cXtwnGIF/hhYKpPUPDA75Vqm1FZFbxLAg8M9R57BjZHQsa9xHSk3UTsaIPkbhf8GIx01N71K/1HjqzKzWV0jhv6K4fnhuPiVT6VTpg3mxfQYBC9DCeq1xIU3ZTRWyuAVxEyxDBFo6sFHF/9fBQ4cBMbAYRuzI2FHFUh07XmrUm2ADwutnF04olGpD0kkkCNiEGvqp08GqfKrOnEVeCnZiqCH3nBKpziMn2A57li5UyT7+Hb/YZ4AUsKf99CWJU11efaXPC9Io1OfO1Mja6moCFxRkYqD85MsypjpxzaynIJvrPKFSvj/ojbmbJkiIDt9aTJfsBN5GDCSF+/rvBMqTqnrmbj0FeWn3RqWZsO8/6MMPQWYEPXq8XoZUQU2Yg/RY/ZOn9rd61ttnggKop/14s82PYOdzDopg9S922dnq6cu+QlAGvXnxlX2tXp9CoBSB92TYNDQncgMUg9GbIVvGm719JiiHerbYcBTvv0WgJHE33OpW4e/EQ1DSw8LhyWorU73/UF8IyiL67Y/Wtep+oxNQGEWf2rvvwCbObFHgR4ADxugACc0OATwZeZqGZowpTx6qDWFJb9JAzAPfNQwbtMFmeYQA3vcAL8WQQrB2wUT0Fuo1vcpr2ib0Fqeb9L28sLtJbq/pJtia840kWyL6/Z8AR9+0853vnIk7oJ7s7GJIGNuUv38U6sWSRTxGjlQDRow/q3wy1IO+uxSMBLuapXgNjud5zfE1nuc5Q1ccskeKRLRkZTdE3J5ytx/DyuPWFJ7Xxb379rfu37PZgWYH90yduufQ4cMHEvsfOTqwRVfeyytKmiBhWAn84gBE1sFyGcNG8siaYXQdmde/X0XC0Emzi+AWgcztf6wcciyxx/GWZU4lrKvM7pwS2Wg95lX9GBaSKBvciRYb5rdpN7wAzM0ZevK5U9P+xDuz7BKGh6g/kwmR81qZgGGh6op6/PXTGZk2YJFSMvlMkqRxYSojlM6ei1y00nlPWAo3eP2JzcfOzwFLtravmDVS4x0ihoFxoTCKYyWpOr9o+sVJEJIOK7YNVLlwVD47V0cmWullIccqlecvTb8jH8LgcuVT0xxcyI9IyXkhE8LvsbLUkDfT8UrFVQibwovrW3IhFwyc7R+AcKtQhBALPr2L3mhig/AqPvaKI8QKQ4mrSobwWvamiiGw81re5OEQAWP6XniLE0JLQmyDsGq7LpT39lRdXj2+CCKl3ZSZPgGtsyuPQRjtePsd67ESveIvEgogkkqmvOsS0DLBUQFhU7xIQ6sk3nF/BkTczk4zQ7h3yep4CJNG7+lolaZsaJsL9eH9qrfKRLTG7xjXBMLC1t+JFslGlyHJUF8yriia1WgpE7dDODxgNS8qctX1W9Np2zTB8g45t2EMhG6P1eM3Wtb63lDPZqe/bbVSzNkpB0LV7pqMVni450/mQP1r8oEuWzzHUgoh2j5R8aMFmvpGNjSIwIe7OAktUNdVQkgCg1xogWh8dB80mDWrfSqy83888hEIxQiXhOzSlKp8aEDDFoxS0ALf5gBYt6JcQHbelb2ggWUMdIlWCrh2g2VXF2rIzO77ZCc0uEav8yoye7I8ASyyNTeQmep6uRCiQG7puwoyU6ZlgzUfsj9V/NryVRAlKidyyMyYZQMrSq6pyIpb+ClEjeLH2W9cIt8LLAh01v3MN8hPiiGKpCS6PMjIvbI3sNvNScy39uazIarYXmO/zfvO2YDVTuaL0OPbVgTRpvQzN7L5s/cQMAoc1ZGNoB3Igeiz6ZoD2bjnPQRsPmTNy6j8QYhKCeNYq1//4VQOsJg0TkYmgtIUotSn1Rrrrt1JYJBzyvAzxuogRK3KlUuRiXZ8NtD1/dge/bGiW7JSQybGYCDL3KcxX4NRrbLa4UcGwsyhQHWPC1mkuq5DlBv/lswULX1QLtA8dElmK6B7owCi3SZVRQaSchJoOhnIQDKqbBD9PmTbd1FapQDF+d97kIGrdQrEggOciHSS9zRQHPEiA35CNsSE3F8ZyOCdRdlgLuGzJ5Eua+UaiBGZ+5nSKEY6mBq2n0c6dXlfiBnFry5FOnlvBzDzqGJHMkk/BlRXM5Y9MOvo6KSk0ecSd19skgmWFb3ftuniQXmjk0b3aD6jNKGxDYgSlqtI55oPJgJMC8t3KhcoCtofPDIyy8Ur2tcUhTekCT03DQcL5tw3472Wulf57n/F6/wT//9wx4eBpKlPRDKhZWOzhcVS0Kp0zweClE2bu3r1mwv9PQ5dGftyxxxg0/u1jxy6clONsqTyuvpJaT4Q5J7yIZ3xOQSVzLKw1GtLwNzWp1/6uNY6M0k23vrNWmDQfsavXQ6p1sw5N7bfC2Au/zhDNYI87yoEc0ORkErijoG5ti95616sdk59vTEQzTm8q+7SUUl2jj10GUx9ulxAMqMfBJF7hEcy7oMXwUyfM3Lw8HuMlcQWMQkDDRmDSXM9vhNMpTNkNd1js6FuHRnesdyXzNdExkfmvR/S+OnZYCr3ufIy82czoW6gaL8XybiDULdZHMNbQwWYafO2l1Ry88oa0xU6yymgOTc/OBlMDB2lIlXaX7ZCXRq3FJDK9dcCMHHakeZHCv3V8xDU8Cv3SkiRejbRNFrHOImefNgEdennRCq5ujeYGMGpSKQ8uwOC6PCKj35waXoAgkvO4/1IxB/9W11r/QuZ/iS8DibmugWGYuEvS6BOhVd8SCY5E4dBcB0FDxLZU9tB7ZbxEhIpeSkQ3MblMjLQu+RDHYZNvxcZiK50MDHDhVS+KqjV3zqXIdGT8loIrvjLpX5k4bzfBrW7xykhC+GdvhBc9tg0JFLndYDanC8XkcjoCcEFWruQjWTUcWFXLleRjcN0S3kyvf6bK4XafO5FInWX2d/moCEhI/VaCdSisBXvR0bGX3MhqEAPnn7DSYZbzZ7mRiJfutlFWC0jM+6IDW51zEBmonYHBLciy06unOwItzqpI5H7i0YQ3GID2dm138Ittl+SkZ0yOgWCyv2rF4m4O+FWg8qQSD8NwbV/W0ULlLwA/FSzs2iFUQHBtVtuJy+Nr+Cn7h6gIo3WfYzpXprf2jHqR29ZWNUyWqH9Y5FZNYcewhbiKk5CGn0uBHf1CRUt0f+aAze7y4mWiFm/NVtab3mQxrUefiL3Ax5pHL/bCsGVGmiN0LUx3CS5lQOt4WaZFgq5kEbd2whu1vifPNT3oaYQnG2DgtZI/Gm4SbtUD1qj7s2G4HZQl5aYNQRu9iH1NU1uYfa3KP4nAS3SW9ugpn4GEtD+hbc45yVfhzlQUwH59JdxAEy0cUhokfDEI1DDi63/Ga0ytoGJtm47kqg/WR93jxOQRP11YzCxzUCrJEfCzU8KAa1S9heZpmo06t/qBtQ0hJpw8K4HE3/bwKNVknIP1JCRJaFVQvVVMDGVRxq9E9SUqFN7Xy0BE9nTZLRM7wk1VGgSWiVl7QATs0e6kWTpvjHwo8zj7yCJ0iMAJorffRIt4zvnwo/68WiZ5BgCZj7XkURcXjPwS2QJSfRSMNMxTULLtKSUmuvdi5ZJ2mkwM/Qt0cIuzwIfkggDroKZ8aEES57WAX50hEPr+MFgJkBNdyqt4UcbNHrSz0zbkIL1xSPwo0EhBetOMHVIl4jlR8Phe1f3ykhhd49nD5bFlRV6sD4HU48Qswdi2vgaV45I/N3HgKkbMbSyoLmOJGfT4Xu7nUhCamG2IpRgZe2bAz96hkPLJFLv5Kd1iXjTyoVvFRxRkEJ8czyYK3GLaJnSYxj8aBsfytNwMpijZpPUvbPhW191U5EibVohmNv+hICW6UeghruUUF5KNwLBM8R14lkL38o4kYoUfCIQFLZyoFXSzXflOzQJrRJT2wPBHh+S/HDiZlWZhBTcSSDIae4K4UYzFWp4P1UM4bnaCAjaE2thnInwrU5OpFAv3Q0UI3QJLRK3lEANhfvS0CrX/blAYDvKI4WWdxm+lnxUQ4qyDblA8angQYsc+8ZATYkGWiRxI4CkH+2y8vzp25UyfK+AFEo6kMz5QkaLjMVwk6mKiNY8eeI8kPzSIdHSLb+Er52XRSSQlq4FmpedaI3o3gg36TBARWscrQJA0oG2VCStKXxtGS3FpnYbDjQrZBEtcU8bAzf7lYHWOHcDjY14rkuvgq/N54mvQDagSW6loSXOWy70Gw47WiGM6g1E6S6JVgP4IgDA/RxtC+wwUO3xSkhAyO8H9itohasnUPVV7UjgPp4NAClJGhJI8iag2mptaRkzajse82dkJ6xrAlQv0HZMhXfXAMD2FjISeLo2BnMmBZcmhfUv1NbmxYvsjE5Alpz0DhJIZWsBYCht19fd/WGWdlIuZCUZB6EWGeUeZJU1bzvQVelIoU8FgI0cUvB/LQC6JuytYPX9D0Nt7jwrIRtRnwwMrp9FCv7wN6lVevqL7kPdjkzkXSVQq8I8HdkYp2zA4LdppNui8i/kNweJWwYsbL9yIgtP2b9CHUp2sbX74H+XDSx20r6ltR4AMEtBAo+0Fpj0ec9AOtHZDOr0IMv8DL+2qwkwyaR9nmUdvwywX6OlCouBzdUJBkOhf6dA0MksKlI5RrUFRrSaB7lbNry4L4t2PuphYPT+RxzSiEbQWAHc5ZaRRnl7BbBar9COTPeGMdPSkMCxH5jd/R5tdKuqn/kbBLdnnYYU+pcJwOwAT8ssn6em7JXpwK7PL1wqmlKWH8wBM21f5STCne+lEmBXwdGyuJXUM4Z8M7DAdtc6s89Ej/PfEoBg0mZDNh0uMmUOWHDDQIp/Hw/nPSIScKvAkiaP+zQp2EweYUY2kAROXwp6mlX1/duDYEk7jx0JfHMhg7bNZ1wEawJTJ5TVtaPl8aZdqQSy3p3+ZKhYuzSjOr0RWPP+AAEJuHtg/L1IIOkJYFXhoZeUslt/Eo/GnbiwcRiwWLN4JXfrgDdJ5fWJhyeBVS/QUgnK53Dj35HAc+I8WLd1xfSFDqcmC57vqG7eeWLgf5QAs0mr9u8y9CxV8IiSKIkeQXW4uHkX2mSDdXP2OZDA0RMqnKRg/VMJhCR743+cm7arK36ja3X39R92LAJLCv64Z3Fet3+yZ2malia1HLv/qSHFEJLLtIyeIxEWcLTq9xcgVAWXGy+p/Ea7R5IhJC/OLklos6zXsiFr12TaIFR/o6Vj1c5wF0crBdoOt68LOhIIreB6PFhwjhasJOJl6GhVCLev1tRgddJoW/0Pw+3rr9Rg9XTQSq4vw+1rBk8MVmI8WHCGZ1hZ8ZUVv2eR/TX8T8P405DlPSv+nhV/g6e/wdfvt2HGyWW9ei3buCNGvw3rOeugav/DE6tZh3rOZ4mSKEr2EPJZxXXks/LrI58Va5nS6roypfPrIVMaYzl4X505eF/14cjn4G+f3R1nxHd3yPuGhyG+b3ib7UiPjuCOtHctS61DvNYhXkVDr6KJifqsya4oqc+KV/7RK//iNaX0mlK2auV4tXK8Dp5eBx8/YUE/YRE/uxPIy6Kf3YmfCqOfCoufNySfN2Q8yRo/yRo/I02hV7Gevo+fvo/3daD3dSB3DOE7xzuGMPSiifeiiXc5onAmsvfPivfPindmo3Rmi76ef/x7UdvzL/q6Sb7zu9nR2k0yGvuUXo3yPqXxDriEDrjx3sqr6L2Vo7Jr9/Do7Nodjf3glbyHo7QfPH3SQHzSwM9+hkUjhhkWP/vpKBUu+nSUqJy7syL65+7QJzrFJzrRZ4XFZ4XFp9BR406fbxifbxifnEm4CuMzWZlmstKn/can/cbnSBNxd8YnlDNMKI/07PvTt/nsezhfLiKGKQkYaO1iLvy7DrWqXK4iG8c8s99yMn0fmCuF2vytcxkSPSmvNbsQv1zqRxbO+21Qu3ucErIQ3ukLwWWPTUMidV6HkIsblbwUCG7jchkZ6F3yoQ7Dpt+LDERXOpiY4UIqXxXUrg+9/EXiroOJuW4BqfzKlyVQp8IrPiSTnInDILiO9MoVUciAOvRzIpVc3RtMjChTkUh5dgcEkf+Sjx6r6QHT1Az9kfF1vV8dvj57SOUyr4svdaT5kUJ/9TwENfzKvRJSpJ5NTAYTxziJnozcBHWaxSGVpFeAmTZve0lnwl5ZAyb6zHIKaM7NDzaN1dBRKlKl/WUr1KnjZ08ylK03BjMZHxkeNJHGT88GU7nPlZeZ/34re4GZov1eJOMOQt1yj/BIxn3wIpjpc0YOXgnjMVbOzQWKhIEm537TXI/vBFPpDK/L7rHZEMQNRUIqiTsG5tq+5K17j8bOqa83BqI5h3f5hLrPNDjHHroMpj5dLiCZ0Q+CSd7Ps3ygLAFzW59+6WPdU+u/z3jrN5XAoP2MX7tqTfCLPDe23yNgLv+44kcqed5VCOpRTUIypXs+EKRs2tzVq9+86e1x6MrYlzvmAJver33k0BVB+kkLDPWT0nwgyD3lQzrDrLQkwLK00HcqFygK2h88MjLLxSuK9j8UhTekCVWbhoMFc+6b8V5L3csr2tcUXufn/eFwx4eBpKlPRDKhZWMAs6VlRzJJPwZUVzOWPTCr80tJSS+dqxpxsckcsKzo/bZNXx6Ul5SU1KP5jNKE4gIgSmD6Jnc1AzPDmJaWWn4HxIzisUuRTt7bgRD+z55EuqyVayBGZO7X/UhnpAPBES8y4CdkQ0zIZTs09c6ibCA4/3sPMnC1ToFYcIATkU7yngaSTi62FGeVDaLfh4oHGSitiEugeJzKdtj9jQKIdptUla326SQQHXMhi1TXdYhy49+S/chAH5QLRJn7NGQhKE0hqlVWszUdUWcOBbK+H9sZo3UQotiSlRoyMR4AupxThv/2iVblyqXIROueCQwmjZPxdrkSP63WWDe0TwKTD1m3lFU+StdWwjjNj0z+4VQOMAkc1ZGNoB3Igeiz6ZoD2bjnPQSMdl5TkY3Ht60Iok3pZ25k82fvIWD2mIGM7L7msyGq2F7jVWTkO2cDZsmdvX5kI/k+KYYokpLo8iAj98reYEHJNRVZcQs/hahR/LhLREYi3wss+ZCTkJFfW74KokTlRA6ZGbNsYImtuYHMVNfLhRAFckvfVZCZMi0bLLq6UENmdt8nO6HBNXqdV5HZk+UJYNmKcgHZeVf2ggaWMdAlIjPJtxtCMMIlIbs0pSofGtCwBaMUtMC3OQAhCAxyoQWi8dF90GDWrPapyM7/8chHICTbJyp+tEBT38iGBhH4cBcnoQXqukoIUbtrMlrh4Z4/mQP1r8kHuoxWiEophGyZ4kFLtKxZ7aGezU4fpUtoibNTDoTuAUNCS0SuekEfqEe2TRMMFa3hNoyBMLD1d6JFstFlSDLUl4wriobW+JWJ2yEsGr2no1WasqFtLtSH96veKhOtxsoxrgmESfEiDa2SeMf9GRBxOzvN1D1olayOh7DZ8fY7frRK9Iq/SCiASCqZ8q5LQMsERwWEUdt1bj9alqrLq8cXQaS0mzLTJ6B1duUxCKtlb6oYAjuv5U0eDhEwpu+FtzgBQyA6t0GYVSgChkLUvIveaGKD8Co+9opD92AoJK4qGcLtsbJUDI2bwysVVyFsCi+ub8lpEobmbP8AhF96mQdDlMrzl6bfkQ9hcLnyqWkOTpAwNJLzQiZEQjrvwVBJqs4vmn5xEoSkw4ptA1VOFjFkztWFAPUfLTLJzetPbD52fg5YsrV9xayRGu8QMQyMC4UQKa+VCRgWqq6ox18/ncE4fjalZPKZJEnjZAnDQTp7LhMi5zFe9WNYSKJscCdabJjfpt3wAjA3Z+jJ505N+xPvzLJLGB6i/kwmRNLpchnDRvLImmF0HZnXv19FwtBJs4vgFoHM7X+sHHIsscfxlmVORfZIGDZ255QARNaecrcfw8rj1hSe18W9+/a37t+z2YHDC/ZMnbqntNnhA4n9jxwd2KIr7+UVJU2QMKwEfnEAIq3vLgUjwa5mKV6D43lecfwPjed5ztAVB/tqovDLym6oB0sW8Rg5Ug0YMf6s8slQL3Z2MSSMbcrfPwr1JH+zU8QYJnETd0C92bpNVzFmic4/bIf61HSL5seY5Fe9UzKhfq14lcOYpC1v2hClYmc9GHMk18gEaABj7tTcGGMEbvMkaBib5nEYUzThsWRoKGs2GCrGDMn3/EZoQEV/t07BGCHr6x+BhrV2guGJjTv7uLm50NAaPSUosbCsVq+BaLDiFUPwYzQTuZWrhkF0yPw/y3UJo5ej7Jn2ED2W/IGTMUoJxsRlNogmRaXP+jwYhSTv72d0gGhT/LInCq/FpUrrDIhGS1ormoTRxM11afMiRKcXh7xkZGHUUJ3PLugD0WvM3OcNN0YFwTVu/gsQ3bIXLOLSoiFUMxf3huiXvWAhlyVhQ5K5UZ1KIDYMv+t3nCZiA5HcznnzG0PsmDO3h1v3YAMQFX3ac8UQW4p++3+Rk+s/Eyr/v8mzIfYUNJkxklM8WG9EjZs5676HIUZ1eProCc4tYj2QVN0x+rn2EMtyz8+f5jBUCSNKEnTvs9PbpkDMK+w7pYXDkKUI3qiUlr+Z+gjcJma3qRqpeSPxNiGleflfPzP57gK4neSP7zRBMDRZDOdtSuMcE3/19CS4DY3p+L9bj5WdmhCGqlBRSHPq1Xl/98t8uH098uhjjz/xJOdyeyTJeumu7lRHjX6qTe8cuN0NG37fiF90R4fCaarI+tRzcHyWPPL+Bx586GH42ejTuG+//v+rW5qLVxSHLKRKJhednKUpPKcNGDho8JCh2Tnw85Nyd8c77unUuUuLlqncvRzvSBME8eaFJMgOhXM61X/a271Hz/ReGb0z4WfO1qhxk4Q7mjZLbJ6U1MKOP7C3TGrVOnHw9TY3dvTukAwN778BUmrkQSLpGi4AAAAASUVORK5CYII=;" parent="hQ67yEuSmeyZ496hQBUE-1" vertex="1">
          <mxGeometry width="20.07" height="20" as="geometry" />
        </mxCell>
        <mxCell id="uFBekcITJ7WLvXIk4Seb-14" value="&lt;div align=&quot;left&quot;&gt;Twilio&lt;/div&gt;" style="text;html=1;align=left;verticalAlign=middle;whiteSpace=wrap;rounded=0;" parent="hQ67yEuSmeyZ496hQBUE-1" vertex="1">
          <mxGeometry x="22.069999999999993" width="40" height="20" as="geometry" />
        </mxCell>
        <mxCell id="uFBekcITJ7WLvXIk4Seb-21" value="" style="edgeStyle=orthogonalEdgeStyle;html=1;endArrow=block;elbow=vertical;startArrow=block;startFill=1;strokeColor=#545B64;rounded=0;entryX=0;entryY=0.5;entryDx=0;entryDy=0;endFill=1;" parent="1" source="ejuhgeyHWz-k4nTtib_r-1" target="uFBekcITJ7WLvXIk4Seb-18" edge="1">
          <mxGeometry width="100" relative="1" as="geometry">
            <mxPoint x="136.95999999999998" y="512" as="sourcePoint" />
            <mxPoint x="322.96000000000004" y="511" as="targetPoint" />
          </mxGeometry>
        </mxCell>
        <mxCell id="uFBekcITJ7WLvXIk4Seb-49" value="" style="edgeStyle=orthogonalEdgeStyle;html=1;endArrow=block;elbow=vertical;startArrow=none;startFill=0;strokeColor=#545B64;rounded=0;endFill=1;entryX=1;entryY=0.25;entryDx=0;entryDy=0;exitX=0;exitY=0.25;exitDx=0;exitDy=0;" parent="1" source="ejuhgeyHWz-k4nTtib_r-8" target="uFBekcITJ7WLvXIk4Seb-18" edge="1">
          <mxGeometry width="100" relative="1" as="geometry">
            <mxPoint x="563" y="279.9999999999999" as="sourcePoint" />
            <mxPoint x="330" y="169" as="targetPoint" />
            <Array as="points">
              <mxPoint x="456" y="310" />
            </Array>
          </mxGeometry>
        </mxCell>
        <mxCell id="uFBekcITJ7WLvXIk4Seb-50" value="" style="edgeStyle=orthogonalEdgeStyle;html=1;endArrow=none;elbow=vertical;startArrow=block;startFill=1;strokeColor=#545B64;rounded=0;endFill=0;entryX=1;entryY=0.75;entryDx=0;entryDy=0;" parent="1" source="uFBekcITJ7WLvXIk4Seb-33" target="uFBekcITJ7WLvXIk4Seb-18" edge="1">
          <mxGeometry width="100" relative="1" as="geometry">
            <mxPoint x="470" y="174" as="sourcePoint" />
            <mxPoint x="399" y="172" as="targetPoint" />
            <Array as="points">
              <mxPoint x="487" y="360" />
              <mxPoint x="487" y="330" />
            </Array>
          </mxGeometry>
        </mxCell>
        <mxCell id="uFBekcITJ7WLvXIk4Seb-52" value="&lt;font style=&quot;font-size: 6px;&quot; color=&quot;#808080&quot;&gt;INBOUND&lt;/font&gt;" style="edgeLabel;html=1;align=center;verticalAlign=middle;resizable=0;points=[];" parent="uFBekcITJ7WLvXIk4Seb-50" vertex="1" connectable="0">
          <mxGeometry x="-0.1348" y="-2" relative="1" as="geometry">
            <mxPoint x="-1" as="offset" />
          </mxGeometry>
        </mxCell>
        <mxCell id="uFBekcITJ7WLvXIk4Seb-53" value="&lt;font style=&quot;font-size: 6px;&quot; color=&quot;#808080&quot;&gt;OUTBOUND&lt;/font&gt;" style="edgeLabel;html=1;align=center;verticalAlign=middle;resizable=0;points=[];" parent="uFBekcITJ7WLvXIk4Seb-50" vertex="1" connectable="0">
          <mxGeometry x="-0.1348" y="-2" relative="1" as="geometry">
            <mxPoint y="-20" as="offset" />
          </mxGeometry>
        </mxCell>
        <mxCell id="uFBekcITJ7WLvXIk4Seb-57" value="" style="endArrow=open;startArrow=open;html=1;rounded=0;startFill=0;endFill=0;endSize=4;startSize=4;dashed=1;dashPattern=1 2;strokeColor=#CCCCCC;" parent="1" edge="1">
          <mxGeometry width="50" height="50" relative="1" as="geometry">
            <mxPoint x="503" y="360" as="sourcePoint" />
            <mxPoint x="503" y="310" as="targetPoint" />
          </mxGeometry>
        </mxCell>
        <mxCell id="uFBekcITJ7WLvXIk4Seb-60" value="&lt;font color=&quot;#9a9996&quot; style=&quot;font-size: 6px;&quot;&gt;REST&lt;/font&gt;" style="edgeLabel;html=1;align=center;verticalAlign=middle;resizable=0;points=[];" parent="uFBekcITJ7WLvXIk4Seb-57" vertex="1" connectable="0">
          <mxGeometry x="0.0646" relative="1" as="geometry">
            <mxPoint as="offset" />
          </mxGeometry>
        </mxCell>
        <mxCell id="hQ67yEuSmeyZ496hQBUE-5" value="" style="html=1;verticalLabelPosition=bottom;align=center;labelBackgroundColor=#ffffff;verticalAlign=top;strokeWidth=2;strokeColor=#0080F0;shadow=0;dashed=0;shape=mxgraph.ios7.icons.cloud;opacity=80;" parent="1" vertex="1">
          <mxGeometry x="351" y="291" width="90.12" height="47" as="geometry" />
        </mxCell>
        <mxCell id="hQ67yEuSmeyZ496hQBUE-10" value="&lt;p style=&quot;line-height: 90%;&quot;&gt;&lt;font color=&quot;#4d4d4d&quot; style=&quot;font-size: 10px;&quot;&gt;Internet&lt;/font&gt;&lt;br&gt;&lt;/p&gt;" style="text;html=1;align=center;verticalAlign=middle;whiteSpace=wrap;rounded=0;" parent="1" vertex="1">
          <mxGeometry x="372.48" y="310.5" width="50" height="19" as="geometry" />
        </mxCell>
        <mxCell id="hQ67yEuSmeyZ496hQBUE-33" value="" style="edgeStyle=orthogonalEdgeStyle;html=1;endArrow=block;elbow=vertical;startArrow=none;startFill=0;strokeColor=#545B64;rounded=0;endFill=1;entryX=0.505;entryY=0.038;entryDx=0;entryDy=0;exitX=0.5;exitY=1;exitDx=0;exitDy=0;entryPerimeter=0;" parent="1" source="ejuhgeyHWz-k4nTtib_r-8" target="hQ67yEuSmeyZ496hQBUE-11" edge="1">
          <mxGeometry width="100" relative="1" as="geometry">
            <mxPoint x="548" y="633" as="sourcePoint" />
            <mxPoint x="262" y="663" as="targetPoint" />
            <Array as="points">
              <mxPoint x="721" y="593" />
              <mxPoint x="721" y="593" />
            </Array>
          </mxGeometry>
        </mxCell>
        <mxCell id="hQ67yEuSmeyZ496hQBUE-31" value="" style="html=1;verticalLabelPosition=bottom;align=center;labelBackgroundColor=#ffffff;verticalAlign=top;strokeWidth=2;strokeColor=#0080F0;shadow=0;dashed=0;shape=mxgraph.ios7.icons.cloud;opacity=80;" parent="1" vertex="1">
          <mxGeometry x="679" y="504" width="90.12" height="47" as="geometry" />
        </mxCell>
        <mxCell id="hQ67yEuSmeyZ496hQBUE-32" value="&lt;p style=&quot;line-height: 90%;&quot;&gt;&lt;font color=&quot;#4d4d4d&quot; style=&quot;font-size: 10px;&quot;&gt;Internet&lt;/font&gt;&lt;br&gt;&lt;/p&gt;" style="text;html=1;align=center;verticalAlign=middle;whiteSpace=wrap;rounded=0;" parent="1" vertex="1">
          <mxGeometry x="700.48" y="523.5" width="50" height="19" as="geometry" />
        </mxCell>
        <mxCell id="OqW3DU-yC3DDHoo6JQ2J-6" value="" style="group" parent="1" vertex="1" connectable="0">
          <mxGeometry x="516" y="295.25" width="28.52" height="31.5" as="geometry" />
        </mxCell>
        <mxCell id="OqW3DU-yC3DDHoo6JQ2J-7" value="" style="ellipse;whiteSpace=wrap;html=1;aspect=fixed;strokeColor=none;" parent="OqW3DU-yC3DDHoo6JQ2J-6" vertex="1">
          <mxGeometry x="1.0695" y="1.18125" width="26.381" height="26.381" as="geometry" />
        </mxCell>
        <mxCell id="OqW3DU-yC3DDHoo6JQ2J-8" value="" style="sketch=0;outlineConnect=0;fontColor=#232F3E;gradientColor=none;fillColor=#8C4FFF;strokeColor=none;dashed=0;verticalLabelPosition=bottom;verticalAlign=top;align=center;html=1;fontSize=12;fontStyle=0;aspect=fixed;pointerEvents=1;shape=mxgraph.aws4.nat_gateway;" parent="OqW3DU-yC3DDHoo6JQ2J-6" vertex="1">
          <mxGeometry width="28.52" height="28.52" as="geometry" />
        </mxCell>
        <mxCell id="OqW3DU-yC3DDHoo6JQ2J-9" value="" style="group" parent="1" vertex="1" connectable="0">
          <mxGeometry x="707" y="459" width="28.52" height="31.5" as="geometry" />
        </mxCell>
        <mxCell id="OqW3DU-yC3DDHoo6JQ2J-10" value="" style="ellipse;whiteSpace=wrap;html=1;aspect=fixed;strokeColor=none;" parent="OqW3DU-yC3DDHoo6JQ2J-9" vertex="1">
          <mxGeometry x="1.0695" y="1.18125" width="26.381" height="26.381" as="geometry" />
        </mxCell>
        <mxCell id="OqW3DU-yC3DDHoo6JQ2J-11" value="" style="sketch=0;outlineConnect=0;fontColor=#232F3E;gradientColor=none;fillColor=#8C4FFF;strokeColor=none;dashed=0;verticalLabelPosition=bottom;verticalAlign=top;align=center;html=1;fontSize=12;fontStyle=0;aspect=fixed;pointerEvents=1;shape=mxgraph.aws4.nat_gateway;" parent="OqW3DU-yC3DDHoo6JQ2J-9" vertex="1">
          <mxGeometry width="28.52" height="28.52" as="geometry" />
        </mxCell>
      </root>
    </mxGraphModel>
  </diagram>
</mxfile>
